<svg width="237" height="111" viewBox="0 0 237 111" fill="none" xmlns="http://www.w3.org/2000/svg">
<path d="M231.274 69.0274H230.917C230.637 69.0099 230.358 68.9722 230.082 68.9148C229.779 68.7896 229.487 68.6389 229.21 68.4645C228.6 68.0892 227.934 67.6201 227.127 67.0196C226.071 65.9721 225.078 64.863 224.153 63.6982L223.017 62.2627C221.59 60.3856 220.021 58.6197 218.326 56.9803C216.224 55.0038 213.926 53.2465 211.468 51.7355C206.481 48.6771 200.757 47.0297 194.907 46.9693C188.331 46.8791 181.975 49.333 177.165 53.8185C175.833 55.0569 174.688 56.3517 173.572 57.5714C171.695 59.7106 170.035 61.559 168.102 62.4597C167.12 62.9158 166.05 63.1496 164.968 63.1446C163.32 63.1391 161.715 62.6247 160.371 61.6716C159.297 60.8852 158.428 59.8522 157.837 58.6598C157.121 56.9689 156.763 55.1479 156.787 53.3118C156.74 52.1108 156.787 50.8817 156.787 49.5588C156.787 45.5713 156.787 41.0395 155.173 36.4984C153.48 31.8083 150.622 27.6255 146.869 24.343C143.115 21.0605 138.589 18.7861 133.715 17.7335C132.733 15.4603 131.106 13.5256 129.034 12.1695C126.962 10.8134 124.538 10.0957 122.062 10.1056C121.668 10.1056 121.274 10.1243 120.88 10.1619C118.705 7.59448 115.657 5.92328 112.323 5.47063C111.788 5.40312 111.249 5.36863 110.709 5.36741C108.127 5.37822 105.599 6.10932 103.41 7.47846C102.703 7.02185 101.984 6.58401 101.252 6.16492C94.0063 2.08133 85.8216 -0.0432446 77.5047 0.000667125C75.1888 0.00277651 72.8755 0.159499 70.5805 0.46979C60.0877 1.98155 50.1507 6.13324 41.7012 12.5356C39.5484 11.6704 37.2473 11.2338 34.9271 11.2502C33.1133 11.2496 31.3078 11.4958 29.5603 11.9821C26.5956 12.8496 23.8908 14.4356 21.6861 16.5993C19.4815 18.7631 17.8451 21.4377 16.9222 24.3857C16.4568 25.8161 16.1608 27.2961 16.0402 28.7954C12.4882 30.8403 9.7493 34.0468 8.28474 37.8748C6.82019 41.7028 6.71943 45.9185 7.99944 49.8122C3.6281 53.9223 0.841559 59.4389 0.127556 65.3964C-0.304252 69.5566 0.364674 73.7572 2.06733 77.5775C3.76998 81.3977 6.44658 84.7035 9.82902 87.1637C12.4256 89.1377 15.408 90.5442 18.5829 91.292C20.291 96.7443 23.6721 101.521 28.2468 104.943C32.9902 108.429 38.6325 110.484 44.5066 110.864C45.2947 110.92 46.1016 110.958 46.9085 110.958C51.727 110.858 56.498 109.984 61.0385 108.368C62.9807 107.73 64.9228 107.008 66.7993 106.304C72.0816 104.334 77.12 102.467 81.8769 102.467C83.089 102.461 84.2977 102.593 85.4798 102.861C87.6978 103.444 89.8658 104.203 91.9631 105.131C94.8065 106.39 97.7627 107.376 100.792 108.077C103.103 108.909 105.542 109.332 107.998 109.325C109.798 109.325 111.591 109.101 113.336 108.659C117.134 107.664 120.567 105.599 123.225 102.71C125.427 100.912 127.17 98.6157 128.311 96.0114L129.09 94.8198L129.287 94.5853C130.975 92.8683 132.101 92.4179 132.561 92.3053C132.847 92.238 133.14 92.2034 133.434 92.2021C134.431 92.2531 135.4 92.5566 136.248 93.0841C141.418 99.877 148.267 104.634 155.642 106.548C157.976 107.161 160.378 107.477 162.791 107.486C169.61 107.49 176.193 104.986 181.284 100.449C184.806 97.3465 187.341 93.2786 188.574 88.7494C189.068 86.6423 189.363 84.4938 189.456 82.3318C189.464 80.466 189.781 78.6145 190.395 76.8524C192.496 72.1612 197.9 70.4817 202.291 70.4817C203.114 70.4812 203.935 70.5377 204.75 70.6506C208.261 71.1071 211.644 72.2688 214.695 74.0658C215.999 74.8539 217.322 75.6045 218.598 76.3176L218.898 76.4865C220.434 77.6757 222.115 78.6656 223.899 79.4326C225.431 80.0669 227.058 80.4441 228.712 80.5491C229.211 80.6107 229.712 80.6421 230.214 80.6429C230.922 80.6433 231.629 80.5774 232.325 80.4459C233.732 80.1759 234.988 79.3911 235.848 78.2448C236.708 77.0985 237.109 75.6729 236.974 74.2463C236.84 72.8197 236.178 71.4946 235.119 70.5296C234.06 69.5647 232.679 69.0291 231.246 69.0274H231.274Z" fill="#EDE6DD"/>
<path d="M22.7301 69.6193C21.5482 70.1767 20.2499 70.4429 18.944 70.3955C17.6381 70.3482 16.3626 69.9887 15.2241 69.3472C14.813 69.1002 14.4266 68.8143 14.0701 68.4935C14.7672 69.7524 15.7916 70.7994 17.0349 71.524C21.5291 74.0948 27.2993 71.3739 28.9694 66.7014C29.4118 65.4569 29.5886 64.1335 29.4884 62.8164C29.3882 61.4994 29.0133 60.218 28.3877 59.0547C28.6967 61.189 28.3142 63.3662 27.2961 65.2673C26.278 67.1685 24.6778 68.6936 22.7301 69.6193Z" fill="#83CDCE"/>
<path d="M76.9798 87.2006C72.2885 79.6946 70.2807 69.2238 73.8929 60.9297C72.7286 62.4338 71.6899 64.0311 70.7873 65.7054C68.1555 70.7092 66.8809 76.3153 67.0906 81.9652C67.2112 84.8835 67.7159 87.7732 68.5918 90.5595C69.0295 91.961 69.5624 93.3309 70.1869 94.6597C70.459 95.2414 70.7592 95.8043 71.0594 96.3766C73.0359 95.7425 75.0551 95.2502 77.1017 94.9036C79.337 94.5359 81.6089 94.4445 83.8665 94.6315C81.0903 92.6476 78.7472 90.1193 76.9798 87.2006Z" fill="#F9EEE4"/>
<path d="M127.692 59.9543C125.61 60.5852 123.414 60.7483 121.262 60.432C119.11 60.1157 117.054 59.3279 115.241 58.1247C114.501 57.6071 113.808 57.0264 113.168 56.3889C115.523 59.9074 118.6 62.9098 122.701 64.2233C125.49 65.1573 128.492 65.2512 131.335 64.4932C134.177 63.7352 136.734 62.1589 138.688 59.9599C140.642 57.761 141.907 55.0364 142.326 52.1247C142.745 49.2129 142.299 46.2423 141.043 43.5819C138.463 38.0931 132.468 34.115 126.275 35.2315C124.889 35.4742 123.566 35.9961 122.387 36.7654C121.208 37.5347 120.197 38.5354 119.417 39.7069C118.98 40.3655 118.662 41.096 118.478 41.8649C118.897 40.9509 119.479 40.121 120.195 39.4161C123.714 35.9633 129.39 36.6013 132.871 39.7726C136.005 42.5873 136.924 47.1472 135.995 51.1348C135.508 53.2047 134.484 55.1097 133.026 56.658C131.569 58.2063 129.729 59.3432 127.692 59.9543Z" fill="#83CDCE"/>
<path d="M78.8933 20.7084C81.8983 18.7468 85.4672 17.8331 89.0451 18.1094C86.9019 17.5415 84.6946 17.2514 82.4774 17.2462C79.0751 17.2315 75.7529 18.2777 72.973 20.2393C71.537 21.3061 70.3666 22.69 69.5529 24.2832C68.7392 25.8764 68.3042 27.6359 68.2818 29.4247C68.2304 33.0196 69.5065 36.5072 71.8658 39.22C73.0977 40.6295 74.5222 41.8582 76.0973 42.8697C73.8118 40.3934 72.4011 37.236 72.0817 33.8814C71.5844 28.4864 74.4836 23.6076 78.8933 20.7084Z" fill="#83CDCE"/>
<path d="M69.0986 94.0324C68.4716 92.5793 67.948 91.0838 67.5318 89.5569C65.9835 83.8906 65.9835 77.9127 67.5318 72.2463C68.8404 67.2728 71.3723 62.7057 74.897 58.9607C75.2645 58.3128 75.6686 57.6863 76.1073 57.0843C77.5784 55.0192 79.4929 53.3094 81.7106 52.0805C83.9283 50.8515 86.3929 50.1344 88.9238 49.9817C91.6955 49.8893 94.4633 50.2571 97.1147 51.0701C98.9093 51.5009 100.6 52.2856 102.087 53.3782C104.145 54.5014 105.813 56.2222 106.872 58.3134C108.006 60.6832 108.337 63.3576 107.816 65.9323C107.294 68.507 105.949 70.842 103.983 72.5841C102.916 73.5726 101.658 74.3322 100.286 74.8163C98.9146 75.3004 97.4586 75.4986 96.0075 75.3988C94.7057 75.271 93.4529 74.8361 92.3519 74.1299C91.2509 73.4236 90.3333 72.4662 89.6744 71.3362C89.0815 70.2448 88.7709 69.0224 88.7709 67.7803C88.7709 66.5382 89.0815 65.3158 89.6744 64.2243C90.2969 63.1117 91.2529 62.2225 92.4076 61.6821C93.5624 61.1418 94.8576 60.9775 96.1107 61.2125C97.3461 61.4109 98.4629 62.0634 99.2422 63.0423C100.021 64.0212 100.407 65.2558 100.323 66.5042C100.089 68.7842 98.5502 70.9421 96.1107 71.0923C94.0747 71.2236 92.1044 69.2627 92.9019 67.1798C93.0599 66.7999 93.3181 66.4702 93.649 66.2257C93.9798 65.9812 94.3709 65.8312 94.7803 65.7917C95.1898 65.7522 95.6023 65.8247 95.9738 66.0014C96.3453 66.1781 96.6618 66.4524 96.8895 66.7951C96.9134 66.848 96.9168 66.9079 96.8991 66.9632C96.8814 67.0185 96.8438 67.0653 96.7936 67.0945C96.7434 67.1237 96.6842 67.1332 96.6274 67.1212C96.5706 67.1092 96.5202 67.0766 96.486 67.0296C96.2964 66.7688 96.0367 66.5671 95.7371 66.4477C95.4375 66.3284 95.1103 66.2963 94.7932 66.3552C94.4761 66.4141 94.1822 66.5615 93.9455 66.7805C93.7088 66.9995 93.5389 67.2811 93.4555 67.5926C93.4029 67.9262 93.428 68.2675 93.5288 68.5898C93.6296 68.9121 93.8035 69.2069 94.0368 69.4511C94.2701 69.6953 94.5566 69.8824 94.874 69.9978C95.1914 70.1132 95.5311 70.1538 95.8668 70.1165C96.4585 70.0646 97.0203 69.834 97.4778 69.4553C97.9353 69.0765 98.2668 68.5676 98.4282 67.996C98.632 66.9559 98.4271 65.8772 97.8559 64.9843C96.7394 63.1078 94.1029 62.8451 92.3202 63.9803C91.3977 64.6559 90.747 65.6389 90.4855 66.752C90.2239 67.8652 90.3689 69.0351 90.8941 70.0508C93.1646 74.4887 99.3946 74.3105 102.8 71.3925C104.419 70.0205 105.559 68.1689 106.055 66.1059C106.551 64.0428 106.377 61.8755 105.559 59.9177C104.709 57.9632 103.276 56.3195 101.455 55.2124C99.6336 54.1053 97.5145 53.5891 95.3883 53.7347C93.2113 53.9281 91.12 54.6754 89.3135 55.9055C87.507 57.1356 86.0453 58.8075 85.0676 60.7622C80.4608 69.5535 84.7955 80.0713 90.7533 87.0331C94.2228 91.0496 98.4342 94.3595 103.157 96.7814C102.281 95.7988 101.565 94.6843 101.037 93.4788C100.381 91.8287 100.07 90.0621 100.122 88.2875C100.173 86.5128 100.587 84.7674 101.337 83.1581C102.929 79.0714 105.68 75.5385 109.252 72.9934C112.823 70.4482 117.061 69.0016 121.443 68.8311C126.225 68.7202 130.932 70.026 134.973 72.5841C139.167 75.0986 142.854 78.373 147.123 80.7843C151.561 83.2895 156.506 84.725 161.572 83.2332C166.01 81.9196 169.707 78.8515 172.878 75.5958C178.92 69.3846 183.856 61.0905 192.581 58.3509C198.211 56.5776 204.225 57.7129 209.395 60.4901C207.896 59.4021 206.297 58.4596 204.619 57.6753C200.642 55.7333 196.169 55.0462 191.793 55.705C189.691 56.0472 187.669 56.7688 185.826 57.8348C183.955 59.0266 182.268 60.4836 180.816 62.1602C177.823 65.3784 175.008 68.681 170.786 70.2572C168.808 72.2906 166.427 73.8885 163.796 74.9484C158.26 76.9938 152.34 74.2354 149.234 69.4503C145.885 64.29 146.42 57.6941 148.85 52.271C148.85 50.0849 148.85 47.8988 148.756 45.7033C148.606 41.6196 147.305 37.6613 145.003 34.2849C142.766 31.1283 139.75 28.604 136.249 26.9572C132.788 25.2632 128.877 24.7145 125.084 25.3903C121.267 26.1685 117.769 28.0663 115.035 30.8415C109.312 36.546 107.661 45.6376 112.333 52.5338C113.427 54.1962 114.893 55.5819 116.614 56.5816C118.334 57.5813 120.264 58.1677 122.25 58.2946C125.909 58.4728 129.925 57.0749 132.017 53.913C132.972 52.4676 133.536 50.7996 133.654 49.0715C133.773 47.3434 133.441 45.6141 132.693 44.052C130.985 40.7118 126.557 38.6196 123.057 40.5711C119.914 42.335 118.788 47.4391 122.673 49.1185C123.302 49.4307 124.026 49.4959 124.701 49.3015C125.377 49.107 125.955 48.6669 126.322 48.0677C127.007 46.8949 127.092 44.7557 125.562 44.1364C125.149 43.9676 125.328 43.292 125.75 43.4609C126.4 43.6984 126.969 44.1138 127.394 44.6596C127.819 45.2055 128.081 45.8597 128.152 46.5477C128.29 47.3771 128.202 48.2284 127.899 49.0124C127.595 49.7964 127.086 50.4844 126.425 51.0044C124.774 52.2241 122.269 51.7832 120.674 50.6854C119.759 50.0653 119.015 49.2242 118.512 48.2401C118.008 47.2561 117.761 46.1609 117.794 45.0559C117.378 43.118 117.746 41.0943 118.816 39.4265C119.727 38.0709 120.925 36.9316 122.323 36.0886C123.722 35.2457 125.289 34.7196 126.913 34.5476C133.387 33.8157 139.458 38.188 141.925 44.0145C143.111 46.8731 143.421 50.0197 142.815 53.0547C142.209 56.0897 140.715 58.8761 138.522 61.06C136.329 63.2439 133.536 64.7268 130.499 65.3203C127.461 65.9137 124.316 65.591 121.462 64.3932C117.127 62.5917 114.012 58.9983 111.808 54.9357C110.017 52.6818 108.785 50.0355 108.214 47.2139C108.102 46.6697 108.026 46.1255 107.961 45.572C107.482 43.9019 107.098 42.213 106.741 40.496C106.273 37.8586 105.602 35.2613 104.733 32.7274C102.881 27.8709 99.2518 23.8999 94.5814 21.6185C92.6511 20.6498 90.5367 20.1029 88.3788 20.0139C86.2209 19.9249 84.0687 20.296 82.0652 21.1025C79.9467 21.857 78.069 23.165 76.6271 24.8908C75.1852 26.6165 74.2318 28.6969 73.866 30.9158C73.5002 33.1346 73.7353 35.4109 74.5469 37.5082C75.3585 39.6054 76.7169 41.4471 78.4811 42.8417C81.9901 45.8816 87.113 46.9137 91.2694 44.5868C95.1913 42.4007 97.2366 37.0808 94.9192 33.0182C92.7143 29.1433 86.9722 28.0924 83.9229 31.5264C83.2038 32.3177 82.6968 33.2782 82.4491 34.3184C82.2013 35.3585 82.221 36.4444 82.5062 37.4749C83.2192 39.7548 85.6118 41.5563 88.0137 40.6743C90.2561 39.8487 91.1474 36.987 88.9519 35.4671C86.7564 33.9471 84.5234 36.7806 85.7713 38.7415C85.8369 38.8541 85.6774 38.9761 85.593 38.8823C85.3231 38.5816 85.1369 38.2154 85.053 37.8203C84.969 37.4251 84.9902 37.0149 85.1145 36.6305C85.2274 36.1905 85.4411 35.7829 85.7388 35.4399C86.0364 35.0968 86.4098 34.8277 86.8294 34.6538C87.249 34.48 87.7033 34.4062 88.1564 34.4382C88.6095 34.4702 89.0488 34.6073 89.4398 34.8384C89.8848 35.1168 90.2649 35.4875 90.5544 35.9254C90.8439 36.3633 91.0361 36.8582 91.1179 37.3767C91.1997 37.8952 91.1693 38.4253 91.0287 38.931C90.8882 39.4368 90.6407 39.9065 90.303 40.3084C89.539 41.1529 88.4898 41.6852 87.3572 41.803C86.2245 41.9207 85.0882 41.6157 84.1669 40.9464C83.2328 40.2819 82.5009 39.3718 82.0521 38.3169C81.6033 37.2621 81.4552 36.1036 81.6242 34.9698C81.7782 33.838 82.18 32.7542 82.8012 31.7956C83.4224 30.8371 84.2475 30.0275 85.2177 29.4247C86.2554 28.8533 87.4115 28.5305 88.5951 28.4817C89.7787 28.4328 90.9575 28.6593 92.0387 29.1433C97.0584 31.2543 98.7003 37.4655 96.0826 42.0817C93.3148 46.9699 86.9066 48.6494 81.8213 46.7729C80.5809 46.3088 79.4098 45.6775 78.3404 44.8964C75.1095 43.571 72.3143 41.3674 70.2714 38.5351C68.0224 35.4752 67.0166 31.6767 67.4567 27.9048C67.6874 26.1524 68.294 24.4706 69.2348 22.9743C70.1757 21.478 71.4286 20.2027 72.9079 19.2354C78.772 15.3323 85.9308 16.3175 92.2452 18.6443C92.8428 18.8039 93.4316 18.9949 94.0091 19.2166C96.2541 20.0895 98.3352 21.3362 100.164 22.9039C95.2519 17.1857 88.3834 13.5056 80.9018 12.5832C70.5811 11.2697 60.1384 15.0884 51.7223 20.9618C43.3062 26.8352 35.3499 35.7391 35.3687 46.5759C35.3191 51.4617 37.1772 56.1741 40.5478 59.7113C42.1654 61.4074 44.1794 62.6745 46.4086 63.3984C48.6377 64.1223 51.0119 64.2804 53.3173 63.8584C55.6612 63.4062 57.8208 62.2762 59.5286 60.6084C61.2364 58.9406 62.4173 56.8084 62.925 54.4759C64.0039 49.8504 62.728 45.1967 60.5981 41.0684C58.1167 39.4925 55.1856 38.777 52.2571 39.0324C48.5041 39.3795 44.7512 41.378 42.9779 44.8871C41.4391 48.0208 41.6643 52.2898 44.1976 54.8418C44.8598 55.5434 45.6782 56.079 46.5862 56.405C47.4942 56.7311 48.4663 56.8384 49.4236 56.7183C50.2692 56.5901 51.0583 56.2156 51.6924 55.6416C52.3265 55.0675 52.7774 54.3195 52.9889 53.4908C53.1909 52.709 53.114 51.8812 52.7715 51.15C52.429 50.4187 51.8423 49.8298 51.1124 49.4845C49.6206 48.8183 47.1812 49.4844 46.7027 51.2296C46.6928 51.2659 46.6759 51.3 46.6529 51.3298C46.6299 51.3596 46.6012 51.3846 46.5686 51.4033C46.5359 51.4221 46.4998 51.4342 46.4625 51.439C46.4251 51.4438 46.3872 51.4412 46.3509 51.4313C46.3145 51.4214 46.2805 51.4045 46.2506 51.3815C46.2208 51.3585 46.1958 51.3298 46.1771 51.2972C46.1584 51.2645 46.1463 51.2284 46.1415 51.1911C46.1367 51.1537 46.1393 51.1158 46.1491 51.0795C46.3268 50.2794 46.7155 49.5416 47.2748 48.9427C47.8342 48.3437 48.5438 47.9055 49.3298 47.6736C53.7865 46.3132 56.8358 51.9051 55.0718 55.5643C54.5814 56.5238 53.8801 57.3599 53.0205 58.0099C52.1609 58.6599 51.1654 59.1068 50.1085 59.3173C48.9366 59.5167 47.7355 59.4624 46.5864 59.1581C45.4372 58.8538 44.3667 58.3066 43.447 57.5534C40.0318 54.8794 38.9622 50.0474 40.3132 45.9754C40.664 44.9451 41.1634 43.9715 41.7957 43.0856C42.9246 39.9817 45.0535 37.3412 47.8474 35.5796C54.7059 31.1417 63.6381 33.4404 68.4888 39.7267C72.9079 45.4312 72.9923 54.0631 68.9954 60.0397C67.6337 63.3158 65.3995 66.1555 62.5359 68.2499C59.6723 70.3442 56.289 71.6129 52.7544 71.9179C54.304 72.5491 55.767 73.3752 57.1079 74.3761C59.9106 76.4351 61.8815 79.4314 62.6623 82.8203C62.9942 84.4253 62.9625 86.0841 62.5696 87.6752C62.1767 89.2663 61.4325 90.7492 60.3917 92.0151C58.0391 94.9595 54.7583 97.02 51.0843 97.8604C48.4531 98.4792 45.6878 98.1468 43.2781 96.9222C43.1092 96.9222 42.9403 96.8753 42.7715 96.8377C39.5327 96.1098 36.6976 94.1649 34.8526 91.4053C33.8375 89.8903 33.2255 88.1414 33.0745 86.324C32.9234 84.5066 33.2383 82.6807 33.9895 81.0189C34.8144 79.5 36.0248 78.2251 37.4989 77.3225C38.973 76.42 40.6589 75.9215 42.3868 75.8773C45.9896 75.746 49.6019 77.7538 50.5495 81.3754C50.7792 82.2043 50.8253 83.0733 50.6845 83.9218C50.5437 84.7703 50.2195 85.5778 49.7344 86.2881C49.2493 86.9983 48.615 87.5941 47.8758 88.034C47.1367 88.4738 46.3105 88.747 45.4548 88.8345C42.3492 89.0409 39.8254 85.6069 41.167 82.7265C41.2121 82.6504 41.281 82.5912 41.3631 82.558C41.4451 82.5249 41.5358 82.5196 41.6212 82.5431C41.7065 82.5665 41.7818 82.6174 41.8353 82.6879C41.8889 82.7583 41.9178 82.8444 41.9176 82.9329C41.8488 83.6035 41.9923 84.2787 42.3279 84.8633C42.6634 85.4479 43.174 85.9124 43.7877 86.1913C44.4014 86.4701 45.0871 86.5493 45.7482 86.4175C46.4092 86.2857 47.0122 85.9497 47.472 85.4568C49.874 83.008 47.7723 79.3207 45.0514 78.2698C43.7324 77.7966 42.3102 77.688 40.9346 77.9555C39.5591 78.223 38.2812 78.8567 37.2358 79.7898C36.1543 80.7965 35.4019 82.1062 35.0771 83.5476C34.7523 84.989 34.8703 86.4949 35.4156 87.8681C36.3326 90.2608 38.0768 92.2456 40.3318 93.4626C42.5868 94.6796 45.2032 95.0482 47.7066 94.5015C50.2125 93.834 52.3865 92.2705 53.8166 90.1072C55.2467 87.9439 55.8335 85.3311 55.4659 82.764C54.9474 79.8772 53.5363 77.2257 51.4314 75.183C49.8676 73.5991 48.0345 72.3061 46.0178 71.3644L45.2578 71.1486C45.1497 71.1728 45.0375 71.1728 44.9294 71.1486C42.8663 70.3313 40.6885 69.8407 38.4743 69.6943C36.2048 69.6614 33.9631 70.1968 31.9535 71.2517C29.9291 72.4108 28.2118 74.0378 26.9451 75.9966C25.6784 77.9554 24.8992 80.189 24.6727 82.5107C23.6312 91.3302 29.9175 99.0145 37.9489 101.829C42.3597 103.308 47.076 103.631 51.6473 102.767C56.0178 101.846 60.2974 100.536 64.4356 98.855C66.3777 98.1419 68.3199 97.4194 70.2902 96.7721C69.8424 95.8817 69.4446 94.967 69.0986 94.0324Z" fill="#02A0C7"/>
<path d="M41.7956 101.03C46.7048 100.984 51.4525 99.2703 55.2594 96.1703C53.9599 96.8783 52.5669 97.3995 51.1218 97.7184C48.4905 98.3371 45.7252 98.0048 43.3156 96.7801C43.1467 96.7801 42.9778 96.7332 42.8089 96.6957C39.5701 95.9678 36.7351 94.0229 34.8901 91.2632C33.875 89.7482 33.263 87.9993 33.1119 86.1819C32.9609 84.3645 33.2758 82.5387 34.0269 80.8769C34.8519 79.3579 36.0623 78.0831 37.5364 77.1805C39.0105 76.2779 40.6963 75.7794 42.4242 75.7353C46.0271 75.6039 49.6393 77.6118 50.587 81.2334C50.8167 82.0622 50.8628 82.9313 50.722 83.7798C50.5812 84.6283 50.2569 85.4358 49.7718 86.146C49.2867 86.8563 48.6524 87.4521 47.9133 87.8919C47.1741 88.3317 46.3479 88.6049 45.4923 88.6925C42.3867 88.8989 39.8628 85.4649 41.2045 82.5845C41.2496 82.5083 41.3185 82.4491 41.4005 82.4159C41.4826 82.3828 41.5733 82.3775 41.6586 82.401C41.744 82.4245 41.8192 82.4754 41.8728 82.5458C41.9264 82.6163 41.9553 82.7024 41.9551 82.7909C41.8863 83.4614 42.0298 84.1366 42.3653 84.7213C42.7008 85.3059 43.2115 85.7704 43.8252 86.0492C44.4388 86.3281 45.1246 86.4072 45.7856 86.2754C46.4467 86.1436 47.0497 85.8076 47.5095 85.3148C49.9114 82.8659 47.8098 79.1786 45.0889 78.1278C43.7699 77.6545 42.3476 77.5459 40.9721 77.8134C39.5966 78.0809 38.3187 78.7147 37.2732 79.6478C36.1917 80.6544 35.4393 81.9642 35.1146 83.4056C34.7898 84.847 34.9078 86.3528 35.4531 87.7261C36.3701 90.1188 38.1143 92.1036 40.3692 93.3206C42.6242 94.5375 45.2407 94.9061 47.7441 94.3594C50.25 93.6919 52.4239 92.1284 53.854 89.9651C55.2841 87.8018 55.871 85.1891 55.5034 82.622C54.9848 79.7351 53.5738 77.0836 51.4689 75.041C49.9051 73.4571 48.072 72.164 46.0552 71.2223L45.2953 71.0065C45.1871 71.0307 45.075 71.0307 44.9669 71.0065C42.9038 70.1893 40.7259 69.6986 38.5117 69.5522C36.2422 69.5193 34.0006 70.0547 31.9909 71.1097C29.9666 72.2688 28.2492 73.8958 26.9825 75.8546C25.7159 77.8134 24.9366 80.047 24.7101 82.3687C24.4467 84.8905 24.745 87.4393 25.5837 89.8321C26.4224 92.2249 27.7806 94.4023 29.5609 96.2078C33.2857 98.6472 37.217 100.983 41.7956 101.03Z" fill="#045282"/>
<path d="M204.619 57.5728C200.642 55.6308 196.169 54.9436 191.793 55.6025C189.691 55.9446 187.669 56.6663 185.826 57.7323C183.955 58.9241 182.268 60.3811 180.816 62.0576C177.823 65.2758 175.008 68.5784 170.786 70.1547C168.808 72.1881 166.427 73.786 163.796 74.8459C158.26 76.8913 152.34 74.1329 149.234 69.3478C145.885 64.1874 146.419 57.5916 148.85 52.1685C148.85 49.9824 148.85 47.7963 148.756 45.6008C148.606 41.517 147.305 37.5588 145.003 34.1823C142.765 31.0258 139.75 28.5015 136.249 26.8546C132.788 25.1607 128.877 24.6119 125.084 25.2878C121.267 26.0659 117.769 27.9637 115.035 30.739C109.312 36.4435 107.661 45.5351 112.333 52.4312C113.427 54.0937 114.893 55.4793 116.614 56.479C118.334 57.4787 120.264 58.0651 122.25 58.1921C125.909 58.3703 129.925 56.9723 132.017 53.8104C132.972 52.365 133.536 50.697 133.654 48.9689C133.773 47.2408 133.441 45.5116 132.693 43.9495C130.985 40.6093 126.557 38.517 123.057 40.4686C119.914 42.2325 118.788 47.3366 122.672 49.016C123.302 49.3282 124.026 49.3934 124.701 49.1989C125.377 49.0045 125.955 48.5644 126.322 47.9652C127.007 46.7924 127.092 44.6532 125.562 44.0339C125.149 43.865 125.328 43.1895 125.75 43.3584C126.399 43.5959 126.969 44.0112 127.394 44.5571C127.819 45.1029 128.081 45.7572 128.152 46.4452C128.29 47.2746 128.202 48.1258 127.899 48.9099C127.595 49.6939 127.086 50.3819 126.425 50.9019C124.774 52.1216 122.269 51.6806 120.674 50.5829C119.759 49.9627 119.015 49.1217 118.512 48.1376C118.008 47.1536 117.761 46.0583 117.794 44.9534C117.378 43.0155 117.745 40.9918 118.816 39.3239C119.727 37.9684 120.925 36.829 122.323 35.9861C123.722 35.1431 125.289 34.6171 126.913 34.445C133.387 33.7132 139.458 38.0854 141.925 43.912C143.111 46.7706 143.421 49.9172 142.815 52.9522C142.209 55.9872 140.715 58.7736 138.522 60.9575C136.329 63.1414 133.536 64.6243 130.499 65.2177C127.461 65.8112 124.316 65.4885 121.462 64.2907C117.127 62.4892 114.012 58.8957 111.808 54.8331C110.017 52.5792 108.785 49.933 108.214 47.1114C108.102 46.5672 108.026 46.023 107.961 45.4694C107.482 43.7994 107.098 42.1105 106.741 40.3935C106.273 37.7561 105.602 35.1588 104.733 32.6248C102.881 27.7684 99.2518 23.7974 94.5814 21.516C92.6511 20.5473 90.5367 20.0003 88.3788 19.9114C86.2209 19.8224 84.0687 20.1935 82.0652 21C79.9467 21.7544 78.069 23.0625 76.6271 24.7882C75.1852 26.5139 74.2318 28.5943 73.866 30.8132C73.5001 33.0321 73.7353 35.3084 74.5469 37.4057C75.3585 39.5029 76.7169 41.3445 78.4811 42.7391C80.0694 44.1359 81.9875 45.1046 84.0543 45.5539C83.4069 46.0418 83.3131 46.2763 83.4069 46.1731C83.4843 46.0701 83.5859 45.9877 83.7026 45.933C83.8193 45.8784 83.9477 45.8532 84.0764 45.8597C84.2051 45.8662 84.3303 45.9041 84.4409 45.9702C84.5516 46.0363 84.6443 46.1285 84.711 46.2388C84.6172 47.3084 86.1935 45.5539 86.3342 45.7884C88.0511 45.7916 89.7403 45.3555 91.2412 44.5218C95.1631 42.3357 97.2085 37.0158 94.891 32.9532C92.6861 29.0783 86.9441 28.0275 83.8948 31.4614C83.1757 32.2527 82.6686 33.2132 82.4209 34.2534C82.1732 35.2935 82.1928 36.3794 82.478 37.4099C83.1911 39.6898 85.5836 41.4913 87.9855 40.6093C90.2279 39.7837 91.1193 36.922 88.9238 35.4021C86.7283 33.8821 84.4952 36.7156 85.7431 38.6765C85.8088 38.7891 85.6493 38.9111 85.5648 38.8173C85.295 38.5166 85.1088 38.1504 85.0248 37.7553C84.9408 37.3601 84.962 36.9499 85.0863 36.5655C85.1992 36.1255 85.413 35.7179 85.7106 35.3748C86.0083 35.0318 86.3817 34.7627 86.8013 34.5888C87.2209 34.415 87.6752 34.3412 88.1282 34.3732C88.5813 34.4052 89.0207 34.5423 89.4116 34.7734C89.8567 35.0518 90.2368 35.4225 90.5263 35.8604C90.8158 36.2983 91.0079 36.7932 91.0897 37.3117C91.1716 37.8302 91.1412 38.3603 91.0006 38.866C90.86 39.3718 90.6125 39.8415 90.2748 40.2434C89.5109 41.0879 88.4617 41.6202 87.329 41.738C86.1963 41.8557 85.0601 41.5507 84.1387 40.8814C83.2046 40.2169 82.4727 39.3068 82.0239 38.2519C81.5752 37.1971 81.4271 36.0386 81.5961 34.9048C81.7623 33.7822 82.1728 32.7097 82.7985 31.763C83.4243 30.8163 84.2501 30.0183 85.2177 29.4254C86.2554 28.854 87.4115 28.5312 88.5951 28.4823C89.7787 28.4335 90.9575 28.66 92.0387 29.144C97.0583 31.255 98.7003 37.4662 96.0826 42.0824C95.114 43.683 93.7618 45.017 92.1482 45.9638C90.5347 46.9107 88.7106 47.4405 86.8409 47.5054L86.6626 47.6274C84.4919 49.0979 82.4515 50.7522 80.564 52.572V52.7315C83.0547 51.0676 85.9432 50.0962 88.9331 49.9167C91.7048 49.8243 94.4727 50.1921 97.124 51.0051C98.9187 51.4359 100.609 52.2206 102.097 53.3132C104.154 54.4364 105.823 56.1572 106.882 58.2484C108.03 60.6268 108.369 63.3157 107.845 65.9045C107.322 68.4933 105.965 70.8395 103.983 72.5848C102.916 73.5732 101.658 74.3329 100.286 74.817C98.9146 75.3011 97.4585 75.4993 96.0075 75.3995C94.7057 75.2717 93.4529 74.8368 92.3519 74.1306C91.2509 73.4243 90.3333 72.4669 89.6744 71.3369C89.0815 70.2454 88.7709 69.023 88.7709 67.7809C88.7709 66.5388 89.0815 65.3164 89.6744 64.225C90.2969 63.1124 91.2529 62.2232 92.4076 61.6828C93.5624 61.1425 94.8576 60.9782 96.1107 61.2132C97.3461 61.4115 98.4629 62.0641 99.2422 63.043C100.021 64.0219 100.407 65.2565 100.323 66.5049C100.089 68.7848 98.5501 70.9428 96.1107 71.0929C94.0747 71.2243 92.1044 69.2634 92.9019 67.1804C93.0599 66.8006 93.3181 66.4709 93.649 66.2264C93.9798 65.9819 94.3709 65.8319 94.7803 65.7923C95.1898 65.7528 95.6023 65.8254 95.9738 66.0021C96.3453 66.1788 96.6618 66.4531 96.8895 66.7958C96.9134 66.8487 96.9168 66.9086 96.8991 66.9639C96.8814 67.0192 96.8438 67.066 96.7936 67.0951C96.7434 67.1243 96.6842 67.1339 96.6274 67.1219C96.5705 67.1099 96.5202 67.0773 96.486 67.0303C96.2963 66.7695 96.0367 66.5678 95.7371 66.4484C95.4375 66.3291 95.1103 66.2969 94.7932 66.3558C94.4761 66.4147 94.1822 66.5622 93.9455 66.7812C93.7087 67.0002 93.5389 67.2818 93.4555 67.5933C93.4029 67.9269 93.428 68.2681 93.5288 68.5905C93.6296 68.9128 93.8035 69.2076 94.0368 69.4518C94.2701 69.696 94.5566 69.883 94.874 69.9985C95.1914 70.1139 95.5311 70.1545 95.8668 70.1172C96.4584 70.0653 97.0203 69.8347 97.4778 69.4559C97.9353 69.0772 98.2667 68.5683 98.4282 67.9967C98.632 66.9566 98.4271 65.8778 97.8559 64.985C96.7393 63.1085 94.1029 62.8457 92.3202 63.981C91.3977 64.6566 90.7469 65.6396 90.4854 66.7527C90.2239 67.8659 90.3688 69.0358 90.8941 70.0515C93.1646 74.4894 99.3946 74.3111 102.8 71.3932C104.419 70.0212 105.559 68.1696 106.055 66.1065C106.551 64.0435 106.377 61.8762 105.559 59.9184C104.709 57.9638 103.276 56.3201 101.455 55.2131C99.6336 54.106 97.5145 53.5898 95.3883 53.7354C93.2113 53.9288 91.12 54.6761 89.3135 55.9062C87.507 57.1363 86.0453 58.8082 85.0676 60.7628C80.4608 69.5542 84.7955 80.072 90.7533 87.0337C94.2228 91.0503 98.4342 94.3602 103.157 96.7821C102.281 95.7995 101.565 94.685 101.037 93.4795C100.381 91.8294 100.07 90.0628 100.122 88.2882C100.173 86.5135 100.587 84.7681 101.337 83.1588C102.929 79.072 105.68 75.5392 109.252 72.9941C112.823 70.4489 117.061 69.0023 121.443 68.8318C126.225 68.7209 130.932 70.0267 134.973 72.5848C139.167 75.0993 142.854 78.3737 147.123 80.785C151.561 83.2901 156.506 84.7257 161.572 83.2339C166.01 81.9203 169.707 78.8522 172.878 75.5965C178.92 69.3853 183.855 61.0912 192.581 58.3515C198.211 56.5783 204.225 57.7135 209.395 60.4907C207.9 59.3671 206.301 58.3899 204.619 57.5728Z" fill="#4A5070"/>
<path d="M179.483 82.5854C176.962 85.4164 173.904 87.7185 170.486 89.3581C167.068 90.9977 163.359 91.9422 159.573 92.1367C152.377 92.4528 145.331 90.0135 139.87 85.3157C140.905 87.0324 142.075 88.6638 143.37 90.1946C146.229 93.5099 149.772 96.1666 153.756 97.982C157.617 99.7881 161.918 100.44 166.141 99.8585C170.038 99.2498 173.677 97.5297 176.621 94.9046C179.713 92.1391 181.657 88.3168 182.072 84.1898C182.251 82.4165 182.251 80.6245 182.41 78.8418C181.533 80.1637 180.554 81.4153 179.483 82.5854Z" fill="#83CDCE"/>
<path d="M111.272 101.041C110.825 101.009 110.38 100.95 109.94 100.863C108.45 100.553 107.033 99.9603 105.765 99.1179C96.4583 95.9104 88.7876 89.1699 84.4103 80.3529C81.7645 74.9862 80.5448 68.7562 82.3837 62.9297C84.035 57.6943 88.0882 53.3221 93.5676 52.1493C95.5491 51.7254 97.6043 51.793 99.5536 52.3463C95.3905 50.8288 90.9159 50.3678 86.5308 51.0046C84.1382 51.5477 81.8963 52.6157 79.967 54.1312C78.0377 55.6467 76.4693 57.572 75.375 59.7678C72.8418 64.6092 72.4852 70.3419 73.4235 75.6523C74.2022 80.2104 75.9876 84.5375 78.6495 88.3186C80.5203 90.9147 82.8863 93.115 85.6113 94.7926C87.207 95.0375 88.7772 95.4269 90.3025 95.956C94.6372 97.4666 98.7467 99.7746 103.213 100.835C105.846 101.532 108.607 101.603 111.272 101.041Z" fill="#07244C"/>
<path d="M204.524 59.2322C201.916 58.3974 199.162 58.1205 196.44 58.4195C193.718 58.7185 191.089 59.5868 188.724 60.968C181.059 65.5372 176.64 73.7469 169.8 79.2826C166.61 81.8721 162.876 83.9738 158.719 84.3209C154.094 84.7432 149.674 82.9042 145.809 80.568C141.737 78.0628 138.115 74.8916 133.921 72.5647C129.692 70.1106 124.797 69.0534 119.932 69.5436C116.925 69.906 114.022 70.8694 111.394 72.3765C108.767 73.8835 106.47 75.9034 104.639 78.3161C107.014 75.9643 109.873 74.1585 113.017 73.0245C117.085 71.4596 121.525 71.1331 125.777 72.0862C129.896 73.126 133.491 75.6395 135.882 79.1512C137.158 80.9057 138.256 82.7634 139.391 84.6024C142.391 87.0432 145.831 88.8872 149.524 90.0349C153.119 91.1858 156.909 91.6019 160.667 91.2586C164.426 90.9153 168.078 89.8195 171.404 88.0364C174.604 86.2701 177.443 83.918 179.773 81.1027C180.856 79.7817 181.817 78.3654 182.644 76.8713C182.644 76.7493 182.644 76.6367 182.701 76.5147C183.125 74.5097 183.963 72.615 185.159 70.9509C187.519 67.6742 190.826 65.1988 194.635 63.8578C199.315 62.3249 204.341 62.1944 209.094 63.4825C211.164 63.9904 213.184 64.6876 215.127 65.5654C212.092 62.7122 208.475 60.5514 204.524 59.2322Z" fill="#F9EEE4"/>
<path d="M131.67 77.1909C128.665 74.7652 124.878 73.5206 121.021 73.6913C113.308 73.8226 104.217 78.4294 102.462 86.5359C102.07 88.3142 102.169 90.1658 102.749 91.892C103.329 93.6182 104.369 95.1539 105.755 96.3343C107.142 97.5147 108.824 98.2952 110.621 98.5922C112.418 98.8892 114.261 98.6914 115.954 98.02C117.118 97.5264 118.185 96.8308 119.107 95.9652C119.904 94.9707 120.664 93.8823 121.433 92.794C121.879 91.8611 122.158 90.8578 122.259 89.8291C122.578 86.3576 120.795 82.3231 117.127 81.4693C114.078 80.7844 110.015 82.6703 110.559 86.2732C110.747 87.6524 111.788 89.3318 113.374 89.1911C114.584 89.0879 116.282 87.8869 115.907 86.4983C115.851 86.2469 115.893 85.9834 116.026 85.7623C116.158 85.5413 116.371 85.3797 116.619 85.311C116.867 85.2423 117.133 85.2717 117.36 85.3932C117.587 85.5146 117.759 85.7189 117.84 85.9635C118.072 86.8005 118.034 87.6894 117.731 88.5033C117.427 89.3173 116.874 90.0144 116.151 90.4953C115.418 91.0529 114.53 91.3703 113.61 91.4039C112.69 91.4375 111.781 91.1856 111.009 90.6829C110.289 90.1552 109.707 89.4601 109.315 88.6576C108.922 87.855 108.731 86.969 108.758 86.0761C108.758 82.3231 112.135 79.7242 115.729 79.6867C119.679 79.6867 122.728 82.5765 123.77 86.2544C124.052 87.2584 124.184 88.2985 124.164 89.3412L124.727 88.7407C126.267 86.6623 128.542 85.2496 131.088 84.7907C133.663 84.4102 136.289 84.9554 138.5 86.3294C136.474 83.0737 134.588 79.6773 131.67 77.1909Z" fill="#5A91A5"/>
<path d="M33.3886 68.3707C34.978 67.7633 36.6528 67.4088 38.3519 67.3199C37.7796 66.8883 37.226 66.4379 36.7006 65.9594C29.6356 59.57 27.3744 49.7278 29.1946 40.6268C29.8863 37.2024 31.1082 33.9071 32.8163 30.8596C29.9989 33.3341 27.7161 36.3575 26.1078 39.7448C25.0545 42.0189 24.322 44.4282 23.9311 46.9036C23.7393 48.1455 23.642 49.4001 23.6402 50.6566C23.6402 51.1164 23.6402 51.5948 23.6871 52.0452C25.3954 53.0567 26.7689 54.5477 27.6372 56.333C27.7913 56.6594 27.926 56.9946 28.0406 57.3369C28.8314 58.3731 29.4232 59.547 29.7857 60.7991C31.2306 65.9219 28.2095 71.7296 22.8615 72.818C20.9147 73.2137 18.8908 72.9104 17.1456 71.9614C15.4004 71.0125 14.0456 69.4786 13.3195 67.6295C12.3309 66.4654 11.7829 64.9909 11.7714 63.4637C11.7491 62.3029 12.054 61.1592 12.6514 60.1636C13.2487 59.1681 14.1143 58.3608 15.1491 57.8342C16.1817 57.3439 17.3379 57.1756 18.4674 57.3513C19.5969 57.527 20.6474 58.0385 21.4823 58.8193C21.9365 59.2323 22.293 59.7415 22.5256 60.3096C22.7582 60.8778 22.8612 61.4906 22.8271 62.1036C22.7929 62.7166 22.6225 63.3143 22.3282 63.8531C22.0338 64.3919 21.6231 64.8582 21.1257 65.2182C19.3806 66.391 16.6503 65.6967 16.3031 63.4355C16.2845 63.3683 16.2933 63.2965 16.3276 63.2358C16.3619 63.1751 16.4189 63.1305 16.4861 63.1118C16.5533 63.0932 16.6251 63.102 16.6858 63.1363C16.7465 63.1706 16.7911 63.2276 16.8098 63.2948C16.9079 63.5844 17.0667 63.8498 17.2756 64.0731C17.4845 64.2965 17.7386 64.4726 18.0211 64.5899C18.3035 64.7071 18.6077 64.7627 18.9133 64.7529C19.219 64.7432 19.519 64.6683 19.7934 64.5333C20.2403 64.2554 20.5919 63.8479 20.8015 63.3652C21.011 62.8825 21.0685 62.3474 20.9662 61.8311C20.8728 61.3584 20.6856 60.9091 20.4155 60.51C20.1454 60.1109 19.798 59.77 19.3938 59.5076C18.9896 59.2451 18.5369 59.0664 18.0624 58.9821C17.588 58.8977 17.1014 58.9094 16.6315 59.0164C15.8023 59.186 15.0452 59.6064 14.4628 60.2206C13.8805 60.8349 13.501 61.6133 13.3758 62.4504C13.2225 63.3502 13.316 64.2747 13.6465 65.1256C13.9769 65.9765 14.5319 66.7219 15.2523 67.2823C18.4705 69.8719 23.2461 68.3144 25.2821 65.0024C26.2299 63.4323 26.6299 61.592 26.4193 59.7701C26.2088 57.9482 25.3996 56.2476 24.1187 54.935C23.9215 54.7464 23.7148 54.5679 23.4995 54.4002C23.4593 54.3968 23.4209 54.3816 23.3892 54.3566C23.3576 54.3316 23.3339 54.2978 23.3212 54.2595C22.1856 53.3641 20.8319 52.7876 19.3994 52.5894C18.56 52.4727 17.7098 52.4538 16.8661 52.5331C16.8661 52.5331 16.8661 52.5331 16.8098 52.5894C13.9895 54.119 11.6407 56.39 10.0169 59.1571C8.56486 61.5875 7.76863 64.3532 7.70613 67.1836C7.64364 70.0141 8.31701 72.8122 9.66035 75.3043C11.0516 77.7419 12.9953 79.819 15.3354 81.3687C17.6754 82.9184 20.3464 83.8974 23.1336 84.2271C23.0965 81.8206 23.5532 79.4321 24.4753 77.209C25.286 75.2095 26.4939 73.3953 28.0259 71.8762C29.558 70.357 31.3823 69.1645 33.3886 68.3707Z" fill="#07244C"/>
<path d="M114.144 29.2461C117.657 25.7361 122.266 23.5343 127.204 23.0067C127.101 22.6033 127.035 22.1905 126.96 21.9559C126.596 20.7803 125.87 19.7495 124.887 19.0098C123.873 18.3323 122.656 18.0258 121.442 18.1421C120.228 18.2583 119.092 18.7902 118.225 19.6478C118.061 19.8007 117.856 19.9031 117.635 19.9429C117.413 19.9827 117.186 19.9581 116.978 19.8721C116.77 19.7861 116.592 19.6424 116.464 19.4579C116.336 19.2734 116.263 19.056 116.255 18.8315C116.262 17.3886 115.772 15.9874 114.866 14.8644C113.96 13.7414 112.694 12.9653 111.282 12.6673C109.777 12.4437 108.243 12.7954 106.985 13.6524C106.198 14.2224 105.516 14.9239 104.968 15.7259C109.182 19.3297 112.351 23.999 114.144 29.2461Z" fill="#83CDCE"/>
<path d="M147.452 61.6899C147.79 67.3193 151.205 72.6486 156.741 74.3468C159.488 75.1398 162.435 74.8441 164.969 73.5211C166.54 72.7131 168.006 71.7141 169.332 70.5469C165.383 71.6297 161.169 71.1524 157.562 69.2137C153.956 67.275 151.233 64.0234 149.957 60.1324C149.247 57.7709 148.89 55.3175 148.897 52.8516C147.801 55.6637 147.308 58.675 147.452 61.6899Z" fill="#83CDCE"/>
<path d="M45.9521 96.977C48.177 97.4816 50.5003 97.3318 52.6418 96.5454C55.9547 95.3832 58.7868 93.1518 60.692 90.2029C61.5267 88.8124 62.0198 87.2439 62.1307 85.6259C62.2416 84.008 61.9672 82.3868 61.33 80.8955C59.4535 76.2981 55.4941 73.6147 51.0656 71.9165C50.4933 71.9165 49.9116 71.9165 49.3392 71.832C51.2613 72.6933 52.9955 73.9238 54.4433 75.4536C55.876 76.9764 56.9274 78.8171 57.5113 80.8247C58.0952 82.8324 58.1949 84.9498 57.8022 87.0035C57.1855 89.731 55.6937 92.1821 53.5542 93.9828C51.4147 95.7835 48.745 96.835 45.9521 96.977Z" fill="#83CDCE"/>
<path d="M31.2304 39.6127C29.3539 47.7661 30.9864 56.6795 36.8599 62.8156C42.039 68.173 49.9953 70.9033 57.1354 68.1823C63.7031 65.696 68.901 58.7999 67.6531 51.6036C66.9333 47.5389 64.6497 43.9181 61.2918 41.5174C61.5263 41.9302 61.7515 42.3524 61.9579 42.784C64.191 47.4753 64.7727 53.1047 62.3989 57.8804C61.3218 59.9505 59.7089 61.6937 57.7285 62.9281C55.7482 64.1625 53.4729 64.843 51.14 64.8985C48.8105 64.9639 46.4975 64.4898 44.3816 63.5132C42.2657 62.5367 40.4043 61.0841 38.9427 59.269C35.734 55.2858 34.2209 50.2003 34.73 45.1109C35.6683 33.8519 44.0468 24.9761 53.1384 19.1027C62.23 13.2293 73.2732 9.98295 83.8941 12.3379C91.8035 14.0925 99.5629 19.0183 103.4 26.2897C104.395 27.601 105.221 29.0321 105.858 30.5493C107.256 33.927 107.604 37.5205 107.979 41.1233C108.277 38.9036 108.963 36.7536 110.006 34.7714C110.857 33.1697 111.904 31.6791 113.12 30.3335C109.15 21.9047 102.327 15.1515 93.8583 11.2683C86.0916 7.89152 77.4991 6.88927 69.1637 8.38791C60.3672 9.86389 52.0824 13.5256 45.0695 19.037C38.3986 24.2724 33.1256 31.2436 31.2304 39.6127Z" fill="#07244C"/>
<path d="M71.2841 49.8585C71.2667 46.0433 69.8966 42.3581 67.4175 39.4581C64.9385 36.5582 61.5112 34.6315 57.7452 34.0209C54.0949 33.532 50.3969 34.4733 47.4245 36.648C45.9432 37.7323 44.6714 39.0771 43.6715 40.6167C43.4745 40.917 43.3056 41.236 43.1367 41.555C44.8405 39.8356 46.9612 38.5878 49.2916 37.9334C57.6045 35.569 66.18 40.917 69.2293 48.6575C70.2177 51.1238 70.5161 53.8126 70.0925 56.4356C70.8968 54.3368 71.3009 52.106 71.2841 49.8585Z" fill="#F9EEE4"/>
<path d="M21.2287 51.0022C21.791 51.1534 22.3376 51.3576 22.8613 51.6121C22.8143 49.9721 22.9306 48.3314 23.2084 46.7144C23.5908 44.2148 24.3269 41.7822 25.3946 39.49C27.1914 35.5006 30.0066 32.0543 33.5573 29.4976C35.6753 26.0488 38.2649 22.9129 41.2509 20.1808C39.4299 19.3474 37.477 18.8393 35.4807 18.6796C33.7022 18.5754 31.924 18.8902 30.2893 19.5987C28.6546 20.3072 27.2091 21.3895 26.0691 22.7586C24.9291 24.1278 24.1264 25.7454 23.7257 27.4813C23.325 29.2173 23.3374 31.0231 23.762 32.7533C23.7948 32.8722 23.8037 32.9964 23.7884 33.1188C23.7731 33.2412 23.7339 33.3593 23.6729 33.4665C23.6119 33.5737 23.5303 33.6678 23.4329 33.7435C23.3355 33.8191 23.2242 33.8748 23.1052 33.9074C21.3601 34.2873 19.7323 35.0827 18.3603 36.2261C16.9882 37.3695 15.9123 38.8271 15.224 40.4751C14.5369 42.2196 14.3208 44.1141 14.5975 45.9685C14.8741 47.8229 15.6338 49.5719 16.8002 51.0398C18.2497 50.6545 19.773 50.6416 21.2287 51.0022Z" fill="#5A91A5"/>
<path d="M91.7096 44.7924C88.4798 46.3562 85.4442 48.2928 82.6649 50.5626C81.2909 51.6888 79.9844 52.895 78.7524 54.1749C77.4562 55.4347 76.3244 56.8533 75.3841 58.397C75.3652 58.4394 75.3611 58.4869 75.3726 58.5319C75.3841 58.5769 75.4104 58.6167 75.4473 58.6449C75.4841 58.6731 75.5294 58.6881 75.5758 58.6874C75.6223 58.6866 75.6671 58.6703 75.7031 58.6409C76.9791 57.4775 78.0768 56.1358 79.2872 54.888C80.4975 53.6401 81.8111 52.3922 83.1621 51.2382C85.8673 48.9102 88.7749 46.8284 91.8503 45.0176C92.0098 44.9238 91.8503 44.6892 91.7096 44.7736V44.7924Z" fill="#EDA04C"/>
<path d="M25.329 90.5686C26.3764 92.8039 27.8544 94.8106 29.6786 96.4738C31.5027 98.1369 33.6371 99.4238 35.9594 100.261C38.3223 101.155 40.839 101.572 43.364 101.488C45.8891 101.405 48.3726 100.822 50.6711 99.7728C53.0917 98.6845 55.8783 96.9581 57.2388 94.6031C57.3139 94.4717 57.145 94.3685 57.0418 94.453C56.1035 95.2036 55.1653 96.0855 54.227 96.8173C53.2505 97.5302 52.2146 98.158 51.1308 98.6938C48.93 99.7683 46.5518 100.433 44.1127 100.655C39.2832 101.097 34.4736 99.6211 30.724 96.5453C28.6488 94.8343 26.9004 92.7617 25.5636 90.4279C25.4698 90.2684 25.254 90.4279 25.329 90.5686Z" fill="#EDA04C"/>
<path d="M231.255 74.6569H231.049C230.169 74.6342 229.294 74.5114 228.441 74.291C227.672 74.0207 226.935 73.6651 226.245 73.2308C225.275 72.6318 224.335 71.9835 223.431 71.2886C222.116 70.0206 220.887 68.6666 219.753 67.2354C218.132 65.0707 216.367 63.0175 214.47 61.0899C212.65 59.3758 210.66 57.8511 208.531 56.5394C200.04 51.3603 188.631 50.7786 181.003 57.8811C177.522 61.1274 174.933 65.4715 170.485 67.5451C168.336 68.5255 165.967 68.9212 163.616 68.6922C161.265 68.4632 159.016 67.6176 157.096 66.2409C155.273 64.9228 153.798 63.1807 152.799 61.165C151.724 58.7655 151.168 56.1662 151.167 53.537C150.96 48.4611 151.589 43.3101 149.844 38.4219C146.926 30.2873 139.457 23.9166 130.779 23.0159C130.235 22.9596 129.7 22.9314 129.156 22.9221C129.152 21.9323 128.941 20.9542 128.536 20.051C127.901 18.5858 126.8 17.3717 125.403 16.5983C124.282 16.0224 123.035 15.7377 121.776 15.7705C120.516 15.8033 119.286 16.1525 118.197 16.7859C117.75 15.3131 116.897 13.9963 115.735 12.9871C114.573 11.9779 113.15 11.3174 111.629 11.0814C109.779 10.8701 107.913 11.3043 106.347 12.3105C105.33 12.9237 104.479 13.7775 103.87 14.7968C102.168 13.399 100.354 12.1437 98.4468 11.0439C90.1989 6.44565 80.6674 4.68836 71.3221 6.043C61.5854 7.41151 52.373 11.2918 44.5914 17.302C43.7658 17.94 42.9683 18.6061 42.1801 19.2911C39.3654 16.6358 34.6742 16.2793 31.0901 17.2926C29.0176 17.9161 27.1298 19.0385 25.5922 20.5615C24.0545 22.0844 22.914 23.9613 22.2705 26.0277C21.6123 28.0546 21.4388 30.2077 21.7639 32.3139C19.907 32.8515 18.1981 33.8077 16.7684 35.1089C15.3387 36.4101 14.2263 38.0217 13.5167 39.8199C12.8187 41.7478 12.5941 43.8152 12.8619 45.8481C13.1297 47.8809 13.882 49.8196 15.0554 51.501C9.82002 54.3158 6.42357 60.1611 5.67297 65.9594C5.35345 69.139 5.87929 72.3467 7.19731 75.2578C8.51533 78.169 10.5788 80.6805 13.1789 82.5382C16.0526 84.764 19.5654 86.0073 23.1994 86.0848C23.5829 88.9016 24.5279 91.6127 25.9784 94.0576C27.4289 96.5024 29.3553 98.6313 31.6436 100.318C35.5299 103.155 40.1459 104.821 44.9479 105.122C49.8362 105.497 54.6682 104.399 59.2937 102.889C68.0663 100.008 77.2424 95.0826 86.7374 97.2593C92.1136 98.4884 96.908 101.519 102.34 102.532C105.415 103.705 108.778 103.899 111.967 103.086C114.858 102.29 117.449 100.658 119.417 98.3946C121.157 97.0446 122.505 95.253 123.32 93.2061L123.526 92.8871C123.876 92.3429 124.23 91.805 124.586 91.2733C124.811 91.0012 125.027 90.7291 125.281 90.4758C126.898 88.6612 128.991 87.3352 131.323 86.6477C134.569 85.9065 137.553 86.9574 140.171 88.7119C144.318 94.4727 150.135 99.1358 157.059 100.909C160.61 101.852 164.34 101.9 167.914 101.049C171.489 100.197 174.796 98.473 177.541 96.0302C180.254 93.6783 182.213 90.5775 183.17 87.1169C184.259 82.9041 183.471 78.3818 185.291 74.3286C188.734 66.6443 197.713 63.7639 205.548 64.8523C209.829 65.4321 213.947 66.8782 217.651 69.1025C219.086 69.9751 220.569 70.8008 222.042 71.6264C223.281 72.6256 224.647 73.4554 226.105 74.094C227.116 74.5106 228.192 74.7487 229.285 74.7977C229.953 74.9095 230.635 74.9095 231.302 74.7977C231.434 74.8915 231.406 74.6382 231.255 74.6569ZM149.956 60.1329C151.224 64.035 153.947 67.2985 157.559 69.2451C161.171 71.1916 165.394 71.6715 169.35 70.585C168.016 71.7403 166.544 72.7267 164.968 73.5217C162.434 74.8272 159.495 75.1093 156.759 74.3098C151.232 72.6116 147.798 67.2542 147.47 61.6529C147.319 58.6432 147.801 55.6352 148.887 52.824C148.88 55.2998 149.24 57.7629 149.956 60.1329ZM106.985 13.6709C108.242 12.8139 109.777 12.4622 111.282 12.6858C112.694 12.9839 113.959 13.7599 114.865 14.8829C115.771 16.006 116.262 17.4072 116.255 18.8501C116.263 19.0746 116.335 19.292 116.464 19.4764C116.592 19.6609 116.77 19.8047 116.978 19.8907C117.185 19.9766 117.413 20.0012 117.634 19.9614C117.855 19.9217 118.06 19.8193 118.225 19.6663C119.092 18.8088 120.228 18.2769 121.442 18.1606C122.656 18.0444 123.873 18.3509 124.887 19.0283C125.87 19.768 126.596 20.7989 126.96 21.9744C127.035 22.209 127.101 22.6124 127.204 23.0253C122.266 23.5529 117.657 25.7547 114.144 29.2646C112.349 24.0209 109.18 19.355 104.968 15.7538C105.515 14.9484 106.197 14.2437 106.985 13.6709ZM45.0606 19.0377C52.0734 13.5263 60.3583 9.86459 69.1547 8.38861C77.4901 6.88997 86.0826 7.89222 93.8493 11.269C102.323 15.1593 109.147 21.923 113.112 30.3624C111.895 31.708 110.849 33.1985 109.997 34.8003C108.954 36.7825 108.268 38.9325 107.97 41.1522C107.595 37.5493 107.247 33.9558 105.85 30.5782C105.21 29.0539 104.381 27.6164 103.382 26.2998C99.5351 19.0377 91.7852 14.1025 83.8758 12.348C73.2548 9.98363 62.0803 13.2863 53.1201 19.1128C44.1598 24.9393 35.6593 33.8433 34.7117 45.121C34.2025 50.2104 35.7157 55.2959 38.9244 59.2791C40.3859 61.0942 42.2474 62.5468 44.3633 63.5233C46.4791 64.4999 48.7922 64.974 51.1216 64.9086C53.4545 64.8531 55.7298 64.1726 57.7102 62.9382C59.6905 61.7038 61.3034 59.9606 62.3806 57.8905C64.7637 53.0961 64.1726 47.5229 61.9396 42.7941C61.7332 42.3625 61.508 41.9403 61.2734 41.5275C64.6314 43.9282 66.915 47.549 67.6348 51.6136C68.8826 58.81 63.6472 65.6873 57.117 68.1924C49.9488 70.9134 42.0206 68.1924 36.8415 62.8257C30.9212 56.6895 29.3355 47.8137 31.212 39.6228C33.1261 31.2443 38.399 24.2731 45.0606 19.0283V19.0377ZM69.1547 48.6675C66.0585 40.9176 57.5298 35.5321 49.217 37.9434C46.8866 38.5978 44.7658 39.8456 43.0621 41.565C43.231 41.2554 43.3999 40.9364 43.5969 40.6268C44.5968 39.0872 45.8685 37.7423 47.3499 36.658C50.3222 34.4833 54.0202 33.542 57.6706 34.0309C61.4366 34.6416 64.8638 36.5682 67.3429 39.4681C69.8219 42.3681 71.192 46.0534 71.2095 49.8685C71.2012 52.1176 70.7716 54.3453 69.9428 56.4362C70.3902 53.82 70.1178 51.1314 69.1547 48.6582V48.6675ZM54.4336 75.3982C52.9859 73.8684 51.2517 72.6379 49.3296 71.7766C49.9113 71.8328 50.4836 71.861 51.0559 71.861C55.4845 73.5592 59.5002 76.2426 61.3204 80.84C61.9575 82.3313 62.2319 83.9525 62.121 85.5704C62.0101 87.1884 61.5171 88.757 60.6824 90.1474C58.7771 93.0963 55.945 95.3277 52.6322 96.49C50.4906 97.2763 48.1673 97.4262 45.9425 96.9215C48.7308 96.7761 51.3952 95.7241 53.5308 93.9255C55.6664 92.127 57.1562 89.6803 57.7738 86.9574C58.1704 84.9038 58.0745 82.7854 57.4939 80.776C56.9132 78.7667 55.8645 76.9237 54.4336 75.3982ZM15.2243 40.4673C15.9127 38.8192 16.9885 37.3616 18.3606 36.2182C19.7327 35.0748 21.3604 34.2794 23.1056 33.8995C23.2245 33.867 23.3359 33.8113 23.4333 33.7356C23.5307 33.66 23.6122 33.5659 23.6732 33.4587C23.7342 33.3515 23.7735 33.2333 23.7888 33.1109C23.8041 32.9886 23.7951 32.8644 23.7624 32.7455C23.3378 31.0152 23.3253 29.2094 23.7261 27.4735C24.1268 25.7375 24.9294 24.1199 26.0694 22.7508C27.2094 21.3817 28.655 20.2993 30.2896 19.5909C31.9243 18.8824 33.7025 18.5676 35.4811 18.6718C37.4774 18.8315 39.4303 19.3396 41.2513 20.173C38.2652 22.905 35.6757 26.041 33.5576 29.4898C30.007 32.0465 27.1918 35.4927 25.3949 39.4821C24.3272 41.7744 23.5911 44.2069 23.2088 46.7066C22.931 48.3236 22.8147 49.9642 22.8616 51.6043C22.338 51.3498 21.7913 51.1456 21.2291 50.9944C19.7735 50.6198 18.2468 50.6198 16.7912 50.9944C15.6348 49.5324 14.8809 47.7934 14.6044 45.95C14.3279 44.1066 14.5384 42.2229 15.2149 40.486L15.2243 40.4673ZM23.115 84.2177C20.3278 83.888 17.6568 82.909 15.3168 81.3593C12.9767 79.8096 11.033 77.7325 9.64175 75.295C8.29841 72.8029 7.62504 70.0047 7.68753 67.1743C7.75003 64.3438 8.54626 61.5781 9.99829 59.1477C11.6221 56.3806 13.9709 54.1096 16.7912 52.58C16.7912 52.58 16.7912 52.58 16.8475 52.5237C17.6912 52.4444 18.5414 52.4633 19.3807 52.58C20.8132 52.7782 22.167 53.3547 23.3026 54.2501C23.3153 54.2884 23.339 54.3222 23.3707 54.3472C23.4023 54.3722 23.4407 54.3874 23.4809 54.3908C23.6962 54.5585 23.9029 54.737 24.1001 54.9256C25.401 56.2442 26.2225 57.9606 26.4333 59.8008C26.6442 61.641 26.2324 63.4988 25.2636 65.0775C23.2276 68.3895 18.4519 69.947 15.2337 67.3574C14.5133 66.7969 13.9583 66.0515 13.6279 65.2007C13.2974 64.3498 13.2039 63.4253 13.3572 62.5254C13.4824 61.6883 13.8619 60.9099 14.4442 60.2957C15.0266 59.6814 15.7837 59.261 16.6129 59.0914C17.0828 58.9844 17.5694 58.9728 18.0438 59.0571C18.5183 59.1415 18.971 59.3202 19.3752 59.5826C19.7794 59.8451 20.1268 60.186 20.3969 60.5851C20.667 60.9842 20.8542 61.4334 20.9476 61.9062C21.0499 62.4224 20.9924 62.9575 20.7829 63.4403C20.5733 63.923 20.2217 64.3305 19.7748 64.6083C19.5004 64.7434 19.2004 64.8183 18.8947 64.828C18.5891 64.8378 18.2849 64.7822 18.0025 64.6649C17.72 64.5477 17.4659 64.3715 17.257 64.1482C17.0481 63.9248 16.8893 63.6595 16.7912 63.3699C16.7725 63.3027 16.7279 63.2456 16.6672 63.2113C16.6065 63.177 16.5347 63.1682 16.4675 63.1869C16.4003 63.2055 16.3433 63.2502 16.309 63.3109C16.2747 63.3716 16.2659 63.4434 16.2845 63.5106C16.6411 65.7718 19.3714 66.4661 21.1071 65.2933C21.6045 64.9333 22.0152 64.4669 22.3096 63.9281C22.6039 63.3893 22.7743 62.7917 22.8085 62.1787C22.8426 61.5657 22.7396 60.9528 22.507 60.3847C22.2744 59.8165 21.9179 59.3074 21.4637 58.8944C20.6288 58.1136 19.5783 57.6021 18.4488 57.4264C17.3193 57.2507 16.1631 57.4189 15.1305 57.9092C14.0957 58.4358 13.2301 59.2431 12.6328 60.2387C12.0354 61.2343 11.7305 62.3779 11.7528 63.5387C11.7643 65.0659 12.3123 66.5405 13.3009 67.7045C14.027 69.5536 15.3818 71.0875 17.127 72.0365C18.8722 72.9855 20.8962 73.2887 22.8429 72.893C28.2003 71.8047 31.212 65.9876 29.7671 60.8741C29.4046 59.6221 28.8128 58.4481 28.022 57.412C27.9074 57.0697 27.7727 56.7345 27.6185 56.4081C26.7503 54.6227 25.3768 53.1317 23.6685 52.1203C23.6685 51.6605 23.6216 51.182 23.6216 50.7317C23.6235 49.4751 23.7207 48.2205 23.9125 46.9787C24.3026 44.4766 25.0416 42.0416 26.108 39.7448C27.7103 36.3297 29.9968 33.28 32.8258 30.7846C31.1178 33.832 29.8958 37.1274 29.2042 40.5517C27.4028 49.6996 29.6639 59.5418 36.7102 65.8843C37.2356 66.3628 37.7891 66.8226 38.3615 67.2448C36.6623 67.3337 34.9875 67.6883 33.3981 68.2956C31.3849 69.0883 29.554 70.2823 28.0169 71.805C26.4797 73.3276 25.2684 75.1471 24.4567 77.1527C23.5257 79.3961 23.0689 81.8079 23.115 84.2365V84.2177ZM28.4254 59.0258C29.051 60.1891 29.4259 61.4705 29.5261 62.7875C29.6263 64.1045 29.4495 65.428 29.0072 66.6725C27.3371 71.3637 21.5669 74.0659 17.0727 71.4951C15.8293 70.7705 14.8049 69.7234 14.1078 68.4645C14.4643 68.7853 14.8508 69.0712 15.2618 69.3183C16.4003 69.9598 17.6759 70.3193 18.9818 70.3666C20.2877 70.4139 21.5859 70.1478 22.7678 69.5904C24.7104 68.6661 26.307 67.1454 27.3247 65.2501C28.3425 63.3547 28.7281 61.1838 28.4254 59.0539V59.0258ZM51.6752 102.523C47.1039 103.386 42.3876 103.063 37.9768 101.585C29.9454 98.7699 23.6592 91.0857 24.7006 82.2661C24.9271 79.9445 25.7063 77.7108 26.973 75.752C28.2397 73.7932 29.957 72.1662 31.9814 71.0072C33.991 69.9522 36.2327 69.4168 38.5022 69.4497C40.7164 69.5961 42.8943 70.0868 44.9573 70.904C45.0655 70.9282 45.1776 70.9282 45.2857 70.904L46.0457 71.1198C48.0623 72.0888 49.8894 73.4106 51.4406 75.0229C53.5455 77.0656 54.9565 79.717 55.4751 82.6039C55.8414 85.1748 55.2506 87.7907 53.815 89.9546C52.3793 92.1185 50.1987 93.6796 47.6876 94.3414C45.1842 94.888 42.5678 94.5195 40.3128 93.3025C38.0578 92.0855 36.3137 90.1006 35.3966 87.708C34.8513 86.3347 34.7334 84.8289 35.0581 83.3875C35.3829 81.9461 36.1353 80.6364 37.2168 79.6297C38.2623 78.6966 39.5401 78.0628 40.9157 77.7953C42.2912 77.5278 43.7134 77.6364 45.0324 78.1097C47.7533 79.1606 49.855 82.8478 47.4531 85.2967C46.9932 85.7895 46.3902 86.1255 45.7292 86.2573C45.0681 86.3891 44.3824 86.31 43.7687 86.0311C43.155 85.7523 42.6444 85.2878 42.3089 84.7031C41.9733 84.1185 41.8299 83.4433 41.8987 82.7728C41.8988 82.6843 41.8699 82.5982 41.8164 82.5277C41.7628 82.4573 41.6875 82.4064 41.6022 82.3829C41.5169 82.3595 41.4262 82.3647 41.3441 82.3979C41.262 82.431 41.1931 82.4902 41.1481 82.5664C39.7782 85.4468 42.3303 88.8808 45.4358 88.6743C46.2915 88.5868 47.1177 88.3136 47.8569 87.8738C48.596 87.434 49.2303 86.8382 49.7154 86.128C50.2005 85.4177 50.5248 84.6101 50.6656 83.7616C50.8063 82.9131 50.7602 82.0442 50.5305 81.2153C49.5923 77.5655 45.9706 75.5858 42.3678 75.7172C40.6399 75.7614 38.9541 76.2598 37.48 77.1624C36.0058 78.065 34.7954 79.3399 33.9705 80.8588C33.2194 82.5206 32.9045 84.3465 33.0555 86.1639C33.2065 87.9813 33.8185 89.7301 34.8337 91.2452C36.6786 94.0048 39.5137 95.9497 42.7524 96.6776C42.9213 96.6776 43.0902 96.7339 43.2591 96.762C45.6688 97.9866 48.4341 98.319 51.0653 97.7003C54.7393 96.8598 58.0201 94.7994 60.3727 91.855C61.4135 90.5891 62.1577 89.1061 62.5506 87.5151C62.9435 85.924 62.9752 84.2651 62.6433 82.6602C61.8625 79.2712 59.8916 76.2749 57.0888 74.216C55.748 73.215 54.285 72.389 52.7354 71.7578C56.27 71.4528 59.6533 70.1841 62.5169 68.0897C65.3805 65.9953 67.6147 63.1556 68.9764 59.8796C72.9827 53.9029 72.8889 45.2711 68.4698 39.5665C63.6003 33.2803 54.6588 30.9816 47.8284 35.4195C45.0345 37.1811 42.9056 39.8216 41.7767 42.9255C41.1444 43.8114 40.645 44.785 40.2943 45.8153C38.9432 49.8497 40.0128 54.7192 43.428 57.3932C44.3477 58.1465 45.4182 58.6937 46.5674 58.998C47.7166 59.3022 48.9176 59.3565 50.0895 59.1571C51.1464 58.9467 52.142 58.4997 53.0015 57.8498C53.8611 57.1998 54.5624 56.3637 55.0529 55.4041C56.8262 51.745 53.7675 46.153 49.3108 47.5135C48.5248 47.7454 47.8152 48.1836 47.2559 48.7825C46.6965 49.3815 46.3078 50.1193 46.1301 50.9193C46.1102 50.9927 46.1203 51.071 46.1581 51.137C46.196 51.203 46.2585 51.2513 46.3319 51.2712C46.4053 51.2911 46.4836 51.281 46.5496 51.2432C46.6155 51.2053 46.6638 51.1429 46.6837 51.0695C47.1622 49.3525 49.6017 48.6581 51.0935 49.3243C51.8234 49.6696 52.4101 50.2586 52.7526 50.9898C53.0951 51.7211 53.1719 52.5488 52.97 53.3306C52.7584 54.1594 52.3075 54.9074 51.6734 55.4814C51.0393 56.0554 50.2502 56.4299 49.4046 56.5582C48.4473 56.6783 47.4752 56.5709 46.5672 56.2449C45.6592 55.9189 44.8408 55.3833 44.1786 54.6817C41.636 52.1297 41.4108 47.8513 42.9589 44.7269C44.6852 41.2272 48.4382 39.2194 52.2381 38.8723C55.1666 38.6169 58.0977 39.3323 60.5791 40.9082C62.7089 45.0365 63.985 49.6902 62.906 54.3158C62.3983 56.6482 61.2175 58.7805 59.5097 60.4483C57.8018 62.1161 55.6422 63.2461 53.2984 63.6982C51.0084 64.1131 48.6514 63.9559 46.4368 63.2406C44.2222 62.5253 42.2185 61.2741 40.6039 59.5981C37.2332 56.0609 35.3752 51.3484 35.4247 46.4627C35.4247 35.6165 43.3811 26.7595 51.7784 20.8485C60.1757 14.9376 70.5433 11.1564 80.9578 12.47C88.4395 13.3924 95.308 17.0725 100.22 22.7907C98.3912 21.223 96.3102 19.9762 94.0651 19.1034C93.4876 18.8817 92.8988 18.6907 92.3012 18.5311C85.9774 16.1948 78.8186 15.219 72.964 19.1222C71.4847 20.0894 70.2317 21.3648 69.2909 22.8611C68.35 24.3573 67.7435 26.0392 67.5128 27.7916C67.0727 31.5635 68.0785 35.362 70.3275 38.4219C72.3704 41.2542 75.1656 43.4578 78.3964 44.7832C79.4659 45.5643 80.637 46.1956 81.8773 46.6597C86.972 48.5362 93.3802 46.8661 96.1387 41.9685C98.747 37.3523 97.0769 31.1411 92.0948 29.03C91.0136 28.546 89.8348 28.3196 88.6512 28.3684C87.4676 28.4172 86.3114 28.7401 85.2738 29.3115C84.3055 29.9024 83.4786 30.6985 82.8512 31.6435C82.2239 32.5886 81.8114 33.6597 81.6428 34.7815C81.4738 35.9153 81.6219 37.0738 82.0706 38.1286C82.5194 39.1835 83.2513 40.0936 84.1854 40.7581C85.1068 41.4274 86.243 41.7324 87.3757 41.6147C88.5084 41.4969 89.5576 40.9646 90.3215 40.1201C90.6592 39.7182 90.9067 39.2485 91.0473 38.7427C91.1879 38.237 91.2183 37.707 91.1365 37.1884C91.0546 36.6699 90.8625 36.175 90.573 35.7371C90.2835 35.2992 89.9034 34.9285 89.4583 34.6501C89.0674 34.419 88.628 34.2819 88.1749 34.2499C87.7219 34.2179 87.2676 34.2917 86.848 34.4655C86.4284 34.6394 86.055 34.9085 85.7573 35.2516C85.4597 35.5946 85.246 36.0023 85.133 36.4422C85.0088 36.8266 84.9875 37.2368 85.0715 37.632C85.1555 38.0271 85.3417 38.3933 85.6115 38.694C85.696 38.7972 85.8649 38.694 85.7898 38.5533C84.5419 36.5923 86.9063 33.862 88.9705 35.2788C91.0346 36.6955 90.2371 39.6604 88.0322 40.486C85.6303 41.368 83.2378 39.5478 82.5247 37.2866C82.2395 36.2561 82.2199 35.1702 82.4676 34.1301C82.7153 33.0899 83.2224 32.1294 83.9415 31.3381C86.9908 27.9135 92.7422 28.955 94.9377 32.8299C97.2552 36.9113 95.2098 42.2124 91.2879 44.3985C87.1315 46.7254 81.9993 45.6839 78.4996 42.6534C76.7355 41.2588 75.377 39.4172 74.5654 37.3199C73.7538 35.2227 73.5187 32.9463 73.8845 30.7275C74.2503 28.5086 75.2037 26.4282 76.6456 24.7025C78.0875 22.9767 79.9653 21.6687 82.0837 20.9142C84.0873 20.1077 86.2394 19.7366 88.3973 19.8256C90.5553 19.9146 92.6696 20.4616 94.5999 21.4303C99.2703 23.7116 102.899 27.6826 104.752 32.5391C105.62 35.073 106.292 37.6703 106.76 40.3078C107.107 42.0248 107.491 43.7136 107.979 45.3837C108.036 45.9279 108.12 46.4814 108.233 47.0256C108.804 49.8473 110.035 52.4935 111.826 54.7474C114.031 58.81 117.146 62.3941 121.481 64.2049C124.334 65.4028 127.48 65.7254 130.517 65.132C133.555 64.5385 136.347 63.0556 138.54 60.8717C140.733 58.6878 142.228 55.9014 142.834 52.8664C143.44 49.8314 143.13 46.6848 141.944 43.8262C139.495 37.9997 133.425 33.6275 126.932 34.3593C125.308 34.5314 123.741 35.0574 122.342 35.9003C120.943 36.7433 119.746 37.8826 118.835 39.2382C117.764 40.906 117.396 42.9297 117.812 44.8676C117.78 45.9726 118.027 47.0678 118.53 48.0518C119.034 49.0359 119.777 49.877 120.693 50.4971C122.288 51.5855 124.783 52.0358 126.444 50.8161C127.105 50.2961 127.614 49.6081 127.917 48.8241C128.221 48.0401 128.308 47.1888 128.17 46.3594C128.1 45.6714 127.837 45.0172 127.412 44.4713C126.988 43.9255 126.418 43.5101 125.768 43.2726C125.346 43.1037 125.168 43.7793 125.581 43.9482C127.11 44.5674 127.016 46.6972 126.341 47.8794C125.973 48.4786 125.395 48.9187 124.72 49.1132C124.044 49.3076 123.321 49.2424 122.691 48.9303C118.807 47.2508 119.933 42.1467 123.076 40.3828C126.575 38.4219 131.004 40.5236 132.711 43.8637C133.46 45.4258 133.791 47.1551 133.673 48.8832C133.554 50.6113 132.99 52.2793 132.036 53.7247C129.944 56.8866 125.928 58.2846 122.269 58.1063C120.283 57.9794 118.353 57.393 116.632 56.3933C114.911 55.3936 113.446 54.0079 112.352 52.3455C107.66 45.4493 109.33 36.3953 115.054 30.6532C117.787 27.878 121.286 25.9802 125.102 25.202C128.896 24.5262 132.806 25.0749 136.267 26.7689C139.768 28.4157 142.784 30.94 145.021 34.0966C147.323 37.473 148.624 41.4313 148.774 45.515C148.896 47.673 148.831 49.8591 148.868 52.0827C146.457 57.5058 145.903 64.1017 149.253 69.262C152.349 74.0471 158.279 76.768 163.814 74.7602C166.446 73.7002 168.826 72.1023 170.804 70.0689C175.026 68.4927 177.841 65.1901 180.834 61.9719C182.286 60.2953 183.974 58.8383 185.844 57.6465C187.688 56.5805 189.71 55.8589 191.812 55.5167C196.188 54.8579 200.661 55.545 204.637 57.4871C206.315 58.2714 207.914 59.2139 209.413 60.3018C204.243 57.4871 198.229 56.3987 192.6 58.1626C183.874 60.9023 178.939 69.187 172.897 75.4076C169.725 78.6727 166.019 81.7313 161.591 83.0449C156.571 84.5273 151.58 83.0918 147.142 80.5961C142.873 78.1942 139.185 74.9197 134.991 72.3958C130.95 69.8377 126.243 68.5319 121.462 68.6428C117.071 68.8161 112.827 70.2702 109.253 72.826C105.678 75.3817 102.93 78.9274 101.346 83.0261C100.596 84.6354 100.183 86.3808 100.131 88.1555C100.079 89.9302 100.391 91.6967 101.046 93.3468C101.575 94.5523 102.29 95.6668 103.166 96.6494C98.4434 94.2275 94.232 90.9177 90.7625 86.9011C84.8046 79.9299 80.4418 69.4122 85.0767 60.6302C86.0545 58.6755 87.5161 57.0036 89.3227 55.7735C91.1292 54.5434 93.2205 53.7961 95.3975 53.6027C97.5237 53.4571 99.6428 53.9733 101.464 55.0804C103.285 56.1875 104.719 57.8312 105.568 59.7857C106.386 61.7435 106.56 63.9109 106.064 65.9739C105.568 68.0369 104.428 69.8885 102.81 71.2605C99.4038 74.1784 93.1832 74.3661 90.9032 69.9188C90.378 68.9031 90.2331 67.7332 90.4946 66.6201C90.7561 65.5069 91.4068 64.5239 92.3294 63.8484C94.0839 62.7131 96.7485 62.9664 97.865 64.8523C98.4362 65.7452 98.6412 66.8239 98.4374 67.8641C98.2759 68.4356 97.9445 68.9445 97.487 69.3233C97.0295 69.702 96.4676 69.9326 95.8759 69.9845C95.5403 70.0218 95.2005 69.9812 94.8831 69.8658C94.5657 69.7503 94.2792 69.5633 94.0459 69.3191C93.8126 69.0749 93.6388 68.7802 93.538 68.4578C93.4372 68.1355 93.4121 67.7942 93.4647 67.4606C93.548 67.1491 93.7179 66.8675 93.9546 66.6486C94.1914 66.4296 94.4853 66.2821 94.8023 66.2232C95.1194 66.1643 95.4467 66.1964 95.7463 66.3157C96.0458 66.4351 96.3055 66.6369 96.4952 66.8977C96.5293 66.9446 96.5797 66.9773 96.6365 66.9892C96.6933 67.0012 96.7526 66.9917 96.8028 66.9625C96.853 66.9333 96.8906 66.8865 96.9083 66.8312C96.926 66.7759 96.9226 66.716 96.8987 66.6631C96.671 66.3205 96.3545 66.0461 95.983 65.8694C95.6115 65.6927 95.199 65.6202 94.7895 65.6597C94.38 65.6992 93.989 65.8492 93.6581 66.0937C93.3273 66.3382 93.0691 66.6679 92.9111 67.0478C92.1136 69.1307 94.0839 71.0916 96.1199 70.9603C98.5593 70.8101 100.089 68.6522 100.333 66.3722C100.416 65.1238 100.031 63.8892 99.2514 62.9103C98.4721 61.9314 97.3553 61.2789 96.1199 61.0805C94.8668 60.8455 93.5716 61.0098 92.4168 61.5502C91.2621 62.0905 90.306 62.9797 89.6835 64.0923C89.0906 65.1838 88.7801 66.4061 88.7801 67.6482C88.7801 68.8903 89.0906 70.1127 89.6835 71.2042C90.3424 72.3342 91.2601 73.2916 92.3611 73.9979C93.462 74.7042 94.7149 75.139 96.0167 75.2668C97.4677 75.3666 98.9238 75.1684 100.295 74.6843C101.667 74.2002 102.925 73.4406 103.992 72.4521C105.958 70.6969 107.297 68.3475 107.805 65.7612C108.313 63.175 107.963 60.4936 106.807 58.1251C105.747 56.0339 104.079 54.3131 102.021 53.1899C100.534 52.0973 98.8434 51.3126 97.0487 50.8818C94.3974 50.0688 91.6296 49.701 88.8579 49.7934C86.327 49.9461 83.8624 50.6632 81.6447 51.8922C79.427 53.1212 77.5125 54.8309 76.0414 56.896C75.6027 57.498 75.1986 58.1245 74.8311 58.7724C71.3288 62.5271 68.8197 67.0971 67.5315 72.0674C65.9833 77.7338 65.9833 83.7117 67.5315 89.378C67.9478 90.9049 68.4714 92.4004 69.0984 93.8535C69.4576 94.7153 69.8616 95.5577 70.3087 96.3773C68.3384 97.0154 66.3869 97.7378 64.4541 98.4603C60.3215 100.199 56.0417 101.565 51.6658 102.542L51.6752 102.523ZM72.082 33.8902C72.4015 37.2449 73.8121 40.4022 76.0977 42.8786C74.5226 41.867 73.098 40.6384 71.8662 39.2288C69.4979 36.5163 68.2149 33.0247 68.2634 29.4241C68.2858 27.6353 68.7208 25.8758 69.5345 24.2826C70.3482 22.6894 71.5186 21.3055 72.9546 20.2387C75.7323 18.2705 79.0547 17.2177 82.459 17.2269C84.6762 17.2321 86.8835 17.5222 89.0268 18.0901C85.4489 17.8138 81.8799 18.7274 78.8749 20.689C74.4839 23.607 71.5848 28.4859 72.082 33.8902ZM132.88 39.7824C129.399 36.658 123.714 35.9825 120.205 39.4258C119.488 40.1308 118.906 40.9606 118.488 41.8746C118.671 41.1058 118.989 40.3753 119.426 39.7167C120.207 38.5452 121.217 37.5444 122.396 36.7751C123.575 36.0058 124.898 35.484 126.285 35.2412C132.477 34.1153 138.482 38.056 141.053 43.5916C142.308 46.252 142.754 49.2226 142.335 52.1344C141.917 55.0461 140.652 57.7707 138.698 59.9697C136.744 62.1686 134.186 63.7449 131.344 64.5029C128.502 65.2609 125.499 65.167 122.71 64.233C118.61 62.9195 115.532 59.9171 113.177 56.3987C113.817 57.0361 114.511 57.6169 115.251 58.1344C117.069 59.3416 119.131 60.1309 121.291 60.4457C123.45 60.7604 125.652 60.5927 127.739 59.9546C129.773 59.343 131.61 58.2069 133.066 56.6604C134.522 55.114 135.545 53.2116 136.033 51.1445C136.915 47.157 135.995 42.5596 132.862 39.7448L132.88 39.7824ZM77.111 94.848C75.0644 95.1946 73.0452 95.6869 71.0687 96.321C70.7685 95.7581 70.4682 95.1858 70.1961 94.6041C69.5717 93.2753 69.0388 91.9054 68.6011 90.5039C67.7252 87.7176 67.2205 84.8279 67.0999 81.9096C66.8902 76.2598 68.1648 70.6536 70.7966 65.6498C71.6993 63.9755 72.7379 62.3782 73.9022 60.8741C70.29 69.2151 72.2791 79.639 76.9891 87.145C78.7561 90.045 81.0924 92.5569 83.857 94.529C81.5975 94.3575 79.3256 94.4646 77.0923 94.848H77.111ZM85.6491 94.7917C82.9241 93.1142 80.5581 90.9139 78.6873 88.3178C76.0182 84.5292 74.2295 80.192 73.4519 75.6233C72.5136 70.3129 72.8608 64.5802 75.4034 59.7388C76.498 57.5514 78.0635 55.6336 79.9875 54.1233C81.9116 52.6129 84.1462 51.5476 86.531 51.0038C90.9177 50.373 95.3923 50.8405 99.5539 52.3642C97.6045 51.811 95.5494 51.7433 93.5679 52.1672C88.0885 53.34 84.0353 57.7122 82.384 62.9477C80.5075 68.7742 81.7647 75.0041 84.4106 80.3709C88.7878 89.1878 96.4586 95.9283 105.765 99.1358C107.033 99.9782 108.45 100.571 109.94 100.881C110.38 100.968 110.825 101.027 111.273 101.059C108.611 101.623 105.854 101.555 103.222 100.862C98.7376 99.802 94.6468 97.4939 90.3121 95.9833C88.7905 95.4484 87.2235 95.0527 85.6303 94.8011L85.6491 94.7917ZM131.06 84.7806C128.514 85.2395 126.239 86.6522 124.699 88.7306L124.136 89.3311C124.157 88.2884 124.024 87.2483 123.742 86.2443C122.7 82.5851 119.651 79.6766 115.701 79.6766C112.108 79.6766 108.739 82.2849 108.73 86.066C108.704 86.9589 108.895 87.8449 109.287 88.6475C109.679 89.45 110.261 90.1451 110.982 90.6728C111.753 91.1755 112.662 91.4274 113.582 91.3938C114.503 91.3602 115.39 91.0428 116.123 90.4852C116.847 90.0043 117.4 89.3072 117.703 88.4933C118.006 87.6794 118.044 86.7904 117.812 85.9534C117.731 85.7088 117.559 85.5045 117.332 85.3831C117.105 85.2616 116.84 85.2322 116.591 85.3009C116.343 85.3696 116.13 85.5312 115.998 85.7523C115.865 85.9733 115.823 86.2368 115.879 86.4882C116.255 87.8862 114.547 89.0778 113.346 89.181C111.76 89.3217 110.719 87.6329 110.531 86.263C110.034 82.6602 114.097 80.7649 117.099 81.4592C120.768 82.2849 122.55 86.3475 122.231 89.819C122.13 90.8477 121.851 91.851 121.406 92.7839C120.636 93.8722 119.876 94.9606 119.079 95.9551C118.157 96.8207 117.09 97.5163 115.926 98.0099C114.233 98.6813 112.39 98.8791 110.593 98.5821C108.796 98.2851 107.114 97.5046 105.728 96.3242C104.341 95.1438 103.302 93.6081 102.721 91.8819C102.141 90.1557 102.042 88.3041 102.434 86.5258C104.189 78.4287 113.28 73.8125 120.993 73.6812C124.85 73.5105 128.638 74.7551 131.642 77.1808C134.56 79.6672 136.446 83.0636 138.444 86.2818C136.236 84.9274 133.621 84.3958 131.06 84.7806ZM176.603 94.9043C173.651 97.5057 170.013 99.2026 166.122 99.7926C161.9 100.374 157.599 99.7221 153.738 97.9161C149.754 96.1007 146.21 93.444 143.351 90.1286C142.057 88.5979 140.887 86.9665 139.852 85.2498C145.312 89.9476 152.358 92.3869 159.555 92.0708C163.34 91.8763 167.05 90.9318 170.468 89.2922C173.885 87.6526 176.943 85.3504 179.464 82.5195C180.53 81.3457 181.502 80.0909 182.373 78.7665C182.223 80.5491 182.213 82.3412 182.035 84.1145C181.636 88.2509 179.701 92.0874 176.612 94.8668L176.603 94.9043ZM194.626 63.8578C190.817 65.1988 187.51 67.6741 185.15 70.9509C183.954 72.615 183.117 74.5097 182.692 76.5147C182.692 76.6367 182.692 76.7493 182.636 76.8712C181.808 78.3654 180.847 79.7816 179.765 81.1027C177.434 83.9179 174.595 86.27 171.395 88.0363C168.069 89.8195 164.417 90.9152 160.658 91.2586C156.9 91.6019 153.11 91.1857 149.515 90.0348C145.822 88.8872 142.383 87.0432 139.382 84.6024C138.247 82.7259 137.149 80.9057 135.873 79.1512C133.489 75.6451 129.905 73.1322 125.797 72.0862C121.544 71.1331 117.104 71.4595 113.036 73.0244C109.892 74.1584 107.033 75.9643 104.658 78.3161C106.489 75.9034 108.786 73.8835 111.414 72.3764C114.041 70.8694 116.944 69.906 119.951 69.5435C124.801 69.0424 129.685 70.0796 133.912 72.5084C138.097 74.8352 141.728 78.0065 145.8 80.5116C149.656 82.8948 154.085 84.7337 158.71 84.2646C162.867 83.8799 166.592 81.8158 169.791 79.2262C176.631 73.6905 181.05 65.4809 188.715 60.9116C191.08 59.5305 193.709 58.6622 196.431 58.3632C199.153 58.0641 201.907 58.341 204.515 59.1759C208.46 60.488 212.074 62.639 215.108 65.4809C213.165 64.6032 211.146 63.9059 209.075 63.398C204.324 62.1289 199.305 62.2756 194.636 63.8202L194.626 63.8578Z" fill="#EDA04C"/>
</svg>
