<svg width="1439" height="245" viewBox="0 0 1439 245" fill="none" xmlns="http://www.w3.org/2000/svg">
<path d="M1439 19.1599C1435.57 18.9148 1432.12 18.9533 1428.69 19.275C1411.05 20.9059 1394.97 30.787 1377.26 31.0365C1345.04 31.5353 1322.14 0.855798 1289.94 0.491251C1271.05 0.280198 1254.03 10.6794 1239.77 21.6926C1225.5 32.7057 1211.75 45.1578 1193.88 50.7603C1162.61 60.5455 1134.89 32.6481 1102.42 32.5714C1064.18 32.5714 1033.59 53.3506 1011.85 79.3101C995.598 101.221 984.738 77.1804 970.149 67.5487C948.83 53.4849 923.151 54.3674 898.123 61.6776C877.415 67.7214 863.151 84.1835 839.136 82.5143C829.308 81.8235 819.901 79.2526 810.188 77.9287C782.081 74.0913 753.592 80.6148 725.313 83.6847C690.724 87.522 663.726 82.7061 639.156 64.0567C616.556 46.9038 595.81 27.7747 560.629 28.5421C538.946 29.0218 518.889 37.8285 497.187 36.9459C457.665 35.3151 430.668 3.04308 391.203 0.491251C368.067 -0.966935 346.825 8.33863 328.985 18.45C311.146 28.5614 293.842 40.1309 271.624 44.563C232.963 52.2377 199.942 22.4984 160.152 20.2919C113.269 17.6825 75.1622 36.6006 47.5141 61.1787C22.6577 86.3132 29.2924 54.2331 0 39.1716V244.776H1439V19.1599Z" fill="url(#paint0_linear_6162_7497)"/>
<defs>
<linearGradient id="paint0_linear_6162_7497" x1="719.519" y1="470.334" x2="719.519" y2="0.356932" gradientUnits="userSpaceOnUse">
<stop stop-color="#C8C894"/>
<stop offset="1" stop-color="#DDDDAB"/>
</linearGradient>
</defs>
</svg>
