<svg xmlns="http://www.w3.org/2000/svg" width="40" height="41" viewBox="0 0 40 41" fill="none">
  <path d="M21.3998 19.1L4.03982 19.1L4.03982 15.18L25.3198 15.18L25.3198 19.1L25.3198 36.46L21.3998 36.46L21.3998 19.1Z" fill="#A77744" stroke="black" stroke-width="2"/>
  <path d="M24.5599 15.94L0.999883 15.94L0.999884 10.62L29.8799 10.62L29.8799 15.94L29.8799 39.5L24.5599 39.5L24.5599 15.94Z" fill="#863F17" stroke="black" stroke-width="2"/>
  <path d="M22.28 10.36L30.3859 10.36L30.3859 18.22L30.3859 18.72L30.8859 18.72L31.8694 18.72L32.3694 18.72L32.3694 18.22L32.3694 10.36L39 10.36L39.5 10.36L39.5 9.86L39.5 8.87647L39.5 8.37647L39 8.37647L32.3694 8.37647L32.3694 1.5L32.3694 1L31.8694 1L30.8859 1L30.3859 1L30.3859 1.5L30.3859 8.37647L22.28 8.37647L21.78 8.37647L21.78 8.87647L21.78 9.86L21.78 10.36L22.28 10.36Z" fill="#A77744" stroke="black"/>
</svg>