<svg xmlns="http://www.w3.org/2000/svg" width="110" height="29" viewBox="0 0 110 29" fill="none">
  <path d="M54.9998 12.9746L62.6219 27.6849H47.3777L54.9998 12.9746Z" fill="#B3935A"/>
  <path d="M54.9997 12.9746L55.6053 27.6849H54.394L54.9997 12.9746Z" fill="#997E4D"/>
  <path d="M54.9998 12.9746L59.9313 27.6849H58.7222L54.9998 12.9746Z" fill="#997E4D"/>
  <path d="M54.9997 12.9746L51.2773 27.6849H50.0681L54.9997 12.9746Z" fill="#997E4D"/>
  <path d="M33.9822 12.9746L41.6064 27.6849H26.3601L33.9822 12.9746Z" fill="#B3935A"/>
  <path d="M33.9822 12.9746L34.5878 27.6849H33.3787L33.9822 12.9746Z" fill="#997E4D"/>
  <path d="M33.9822 12.9746L38.9137 27.6849H37.7046L33.9822 12.9746Z" fill="#997E4D"/>
  <path d="M33.9821 12.9746L30.2597 27.6849H29.0505L33.9821 12.9746Z" fill="#997E4D"/>
  <path d="M76.0175 12.9746L83.6396 27.6849H68.3933L76.0175 12.9746Z" fill="#B3935A"/>
  <path d="M76.0175 12.9746L76.621 27.6849H75.4119L76.0175 12.9746Z" fill="#997E4D"/>
  <path d="M76.0176 12.9746L80.9491 27.6849H79.74L76.0176 12.9746Z" fill="#997E4D"/>
  <path d="M76.0175 12.9746L72.2951 27.6849H71.0859L76.0175 12.9746Z" fill="#997E4D"/>
  <path d="M43.5969 25.0811L42.5569 26.1211L44.7563 28.3205L45.7963 27.2805L43.5969 25.0811Z" fill="#F2F2F2"/>
  <path d="M43.9119 23.3154L42.8718 24.3555L45.0712 26.5549L46.1113 25.5149L43.9119 23.3154Z" fill="#D9D9D9"/>
  <path d="M44.2268 21.5518L43.1868 22.5918L45.3862 24.7912L46.4262 23.7512L44.2268 21.5518Z" fill="#F2F2F2"/>
  <path d="M64.6142 25.0811L63.5742 26.1211L65.7736 28.3205L66.8137 27.2805L64.6142 25.0811Z" fill="#F2F2F2"/>
  <path d="M64.9292 23.3154L63.8892 24.3555L66.0886 26.5549L67.1286 25.5149L64.9292 23.3154Z" fill="#D9D9D9"/>
  <path d="M65.2424 21.5518L64.2024 22.5918L66.4018 24.7912L67.4418 23.7512L65.2424 21.5518Z" fill="#F2F2F2"/>
  <path d="M14.7143 4.50185L31.5748 14.2363C30.6494 15.8391 29.1252 17.0087 27.3374 17.4877C25.5497 17.9667 23.6449 17.716 22.042 16.7906L5.18337 7.05721C6.10877 5.45436 7.633 4.28478 9.42074 3.80576C11.2085 3.32674 13.1133 3.5775 14.7161 4.50291L14.7143 4.50185Z" fill="#B3935A"/>
  <path d="M2.92725 3.56641L19.1262 12.9189C18.4717 14.0525 17.3936 14.8798 16.1291 15.2186C14.8647 15.5574 13.5174 15.38 12.3838 14.7255L0.459355 7.84092L2.92725 3.56641Z" fill="#CDA967"/>
  <path d="M52.2851 4.8556L72.4899 16.5208L72.4731 16.5501C71.1858 18.7796 69.0657 20.4065 66.5789 21.0728C64.0922 21.7391 61.4426 21.3903 59.2131 20.1031L39.0046 8.43573L39.0215 8.40649C39.6591 7.30222 40.5079 6.33439 41.5196 5.55827C42.5313 4.78215 43.686 4.21296 44.9177 3.88321C46.1494 3.55346 47.434 3.46961 48.6982 3.63646C49.9623 3.8033 51.1812 4.21757 52.2851 4.8556Z" fill="#B3935A"/>
  <path d="M32.5949 4.73876L54.1594 17.189C53.0019 19.1939 51.0961 20.6575 48.8605 21.2585C46.6249 21.8596 44.2421 21.549 42.2353 20.3949L20.6708 7.94462C21.8283 5.93976 23.7341 4.47614 25.9697 3.87508C28.2053 3.27402 30.5881 3.58465 32.5949 4.73876Z" fill="#CDA967"/>
  <path d="M69.4708 4.6953L86.1394 14.3189L85.9822 14.5912C85.429 15.5493 84.6926 16.389 83.815 17.0624C82.9373 17.7359 81.9356 18.2298 80.8671 18.5162C79.7985 18.8025 78.684 18.8755 77.5873 18.7311C76.4905 18.5867 75.4329 18.2277 74.4748 17.6746L57.8081 8.05204L57.9653 7.77974C59.0823 5.84489 60.9223 4.43304 63.0803 3.8548C65.2384 3.27655 67.5378 3.57927 69.4726 4.69636L69.4708 4.6953Z" fill="#CDA967"/>
  <path d="M82.9664 4.44798L95.3933 11.6227L95.1823 11.9882C94.3123 13.4919 92.8812 14.5889 91.2031 15.0385C89.5251 15.4881 87.7372 15.2536 86.2318 14.3865L73.8049 7.21175L74.0159 6.84625C74.886 5.3426 76.3171 4.24556 77.9951 3.79593C79.6732 3.3463 81.461 3.58081 82.9664 4.44798Z" fill="#B3935A"/>
  <path d="M93.8271 4.23388L102.221 9.07998L101.904 9.62823C101.245 10.7701 100.159 11.6034 98.8854 11.9447C97.6118 12.2859 96.2547 12.1073 95.1128 11.448L86.7191 6.60188L87.0357 6.05363C87.3621 5.48821 87.7967 4.99263 88.3147 4.59518C88.8327 4.19772 89.4238 3.90618 90.0545 3.7372C90.6851 3.56822 91.3429 3.52512 91.9902 3.61034C92.6375 3.69555 93.2616 3.90743 93.8271 4.23388Z" fill="#CDA967"/>
  <path d="M100.024 4.00456L106.743 7.88418C106.31 8.63495 105.596 9.18279 104.759 9.40716C103.921 9.63154 103.029 9.51408 102.278 9.08062L95.5568 5.19994C95.7715 4.82804 96.0574 4.50209 96.3981 4.24072C96.7389 3.97936 97.1278 3.78769 97.5426 3.67668C97.9574 3.56567 98.3901 3.53749 98.8158 3.59375C99.2415 3.65 99.652 3.7896 100.024 4.00456Z" fill="#B3935A"/>
  <path d="M106.753 7.91252L100.992 4.58683C101.126 4.35473 101.304 4.1513 101.517 3.98814C101.729 3.82499 101.972 3.70532 102.231 3.63595C102.49 3.56658 102.76 3.54889 103.026 3.58386C103.291 3.61884 103.547 3.70581 103.78 3.83981L109.54 7.1655C109.406 7.3976 109.228 7.60103 109.015 7.76419C108.803 7.92734 108.56 8.04701 108.301 8.11638C108.042 8.18575 107.772 8.20345 107.507 8.16847C107.241 8.13349 106.985 8.04652 106.753 7.91252Z" fill="#CDA967"/>
</svg>