<svg xmlns="http://www.w3.org/2000/svg" width="237" height="111" viewBox="0 0 237 111" fill="none">
  <path d="M5.72609 69.0274H6.08263C6.36331 69.0099 6.64238 68.9722 6.91768 68.9148C7.22072 68.7896 7.5126 68.6389 7.79025 68.4645C8.4001 68.0892 9.06627 67.6201 9.87315 67.0196C10.9292 65.9721 11.9223 64.863 12.8474 63.6982L13.9827 62.2627C15.4103 60.3856 16.9786 58.6197 18.6739 56.9803C20.7762 55.0038 23.0742 53.2465 25.5325 51.7355C30.5193 48.6771 36.2428 47.0297 42.0925 46.9693C48.6685 46.8791 55.0251 49.333 59.8348 53.8185C61.1671 55.0569 62.3117 56.3517 63.4282 57.5714C65.3047 59.7106 66.9654 61.559 68.8982 62.4597C69.8797 62.9158 70.9497 63.1496 72.032 63.1446C73.6796 63.1391 75.2853 62.6247 76.6294 61.6716C77.7029 60.8852 78.5718 59.8522 79.1626 58.6598C79.8787 56.9689 80.2365 55.1479 80.2135 53.3118C80.2604 52.1108 80.2135 50.8817 80.2135 49.5588C80.2135 45.5713 80.2135 41.0395 81.8273 36.4984C83.5201 31.8083 86.3776 27.6255 90.1311 24.343C93.8846 21.0605 98.411 18.7861 103.285 17.7335C104.267 15.4603 105.894 13.5256 107.966 12.1695C110.038 10.8134 112.462 10.0957 114.938 10.1056C115.332 10.1056 115.726 10.1243 116.12 10.1619C118.295 7.59448 121.343 5.92328 124.677 5.47063C125.212 5.40312 125.751 5.36863 126.291 5.36741C128.873 5.37822 131.401 6.10932 133.59 7.47846C134.297 7.02185 135.016 6.58401 135.748 6.16492C142.994 2.08133 151.178 -0.0432446 159.495 0.000667125C161.811 0.00277651 164.124 0.159499 166.42 0.46979C176.912 1.98155 186.849 6.13324 195.299 12.5356C197.452 11.6704 199.753 11.2338 202.073 11.2502C203.887 11.2496 205.692 11.4958 207.44 11.9821C210.404 12.8496 213.109 14.4356 215.314 16.5993C217.519 18.7631 219.155 21.4377 220.078 24.3857C220.543 25.8161 220.839 27.2961 220.96 28.7954C224.512 30.8403 227.251 34.0468 228.715 37.8748C230.18 41.7028 230.281 45.9185 229.001 49.8122C233.372 53.9223 236.158 59.4389 236.872 65.3964C237.304 69.5566 236.635 73.7572 234.933 77.5775C233.23 81.3977 230.553 84.7035 227.171 87.1637C224.574 89.1377 221.592 90.5442 218.417 91.292C216.709 96.7443 213.328 101.521 208.753 104.943C204.01 108.429 198.367 110.484 192.493 110.864C191.705 110.92 190.898 110.958 190.091 110.958C185.273 110.858 180.502 109.984 175.961 108.368C174.019 107.73 172.077 107.008 170.201 106.304C164.918 104.334 159.88 102.467 155.123 102.467C153.911 102.461 152.702 102.593 151.52 102.861C149.302 103.444 147.134 104.203 145.037 105.131C142.193 106.39 139.237 107.376 136.208 108.077C133.897 108.909 131.458 109.332 129.002 109.325C127.202 109.325 125.409 109.101 123.664 108.659C119.866 107.664 116.433 105.599 113.775 102.71C111.573 100.912 109.83 98.6157 108.689 96.0114L107.91 94.8198L107.713 94.5853C106.025 92.8683 104.899 92.4179 104.439 92.3053C104.153 92.238 103.86 92.2034 103.566 92.2021C102.569 92.2531 101.6 92.5566 100.752 93.0841C95.5819 99.877 88.7327 104.634 81.3581 106.548C79.0242 107.161 76.6219 107.477 74.2087 107.486C67.3896 107.49 60.8072 104.986 55.7159 100.449C52.1935 97.3465 49.6588 93.2786 48.4257 88.7494C47.9323 86.6423 47.6371 84.4938 47.5437 82.3318C47.5358 80.466 47.2188 78.6145 46.6055 76.8524C44.5038 72.1612 39.0995 70.4817 34.7085 70.4817C33.8862 70.4812 33.0648 70.5377 32.2503 70.6506C28.7389 71.1071 25.356 72.2688 22.3049 74.0658C21.0007 74.8539 19.6778 75.6045 18.4018 76.3176L18.1016 76.4865C16.5657 77.6757 14.8854 78.6656 13.1007 79.4326C11.5686 80.0669 9.9424 80.4441 8.28752 80.5491C7.78947 80.6107 7.28815 80.6421 6.78632 80.6429C6.07802 80.6433 5.37125 80.5774 4.67526 80.4459C3.26802 80.1759 2.01192 79.3911 1.15218 78.2448C0.292419 77.0985 -0.109253 75.6729 0.0255432 74.2463C0.160355 72.8197 0.82196 71.4946 1.88123 70.5296C2.94049 69.5647 4.32133 69.0291 5.75424 69.0274H5.72609Z" fill="#EDE6DD"/>
  <path d="M214.27 69.6193C215.452 70.1767 216.75 70.4429 218.056 70.3955C219.362 70.3482 220.637 69.9887 221.776 69.3472C222.187 69.1002 222.573 68.8143 222.93 68.4935C222.233 69.7524 221.208 70.7994 219.965 71.524C215.471 74.0948 209.701 71.3739 208.031 66.7014C207.588 65.4569 207.411 64.1335 207.512 62.8164C207.612 61.4994 207.987 60.218 208.612 59.0547C208.303 61.189 208.686 63.3662 209.704 65.2673C210.722 67.1685 212.322 68.6936 214.27 69.6193Z" fill="#83CDCE"/>
  <path d="M160.02 87.2006C164.711 79.6946 166.719 69.2238 163.107 60.9297C164.271 62.4338 165.31 64.0311 166.213 65.7054C168.845 70.7092 170.119 76.3153 169.909 81.9652C169.789 84.8835 169.284 87.7732 168.408 90.5595C167.971 91.961 167.438 93.3309 166.813 94.6597C166.541 95.2414 166.241 95.8043 165.941 96.3766C163.964 95.7425 161.945 95.2502 159.898 94.9036C157.663 94.5359 155.391 94.4445 153.134 94.6315C155.91 92.6476 158.253 90.1193 160.02 87.2006Z" fill="#F9EEE4"/>
  <path d="M109.308 59.9543C111.39 60.5852 113.586 60.7483 115.738 60.432C117.89 60.1157 119.946 59.3279 121.759 58.1247C122.499 57.6071 123.192 57.0264 123.832 56.3889C121.477 59.9074 118.4 62.9098 114.299 64.2233C111.51 65.1573 108.508 65.2512 105.665 64.4932C102.823 63.7352 100.266 62.1589 98.3117 59.9599C96.3576 57.761 95.0927 55.0364 94.674 52.1247C94.2553 49.2129 94.7014 46.2423 95.9567 43.5819C98.5369 38.0931 104.532 34.115 110.725 35.2315C112.111 35.4742 113.434 35.9961 114.613 36.7654C115.792 37.5347 116.803 38.5354 117.583 39.7069C118.02 40.3655 118.338 41.096 118.522 41.8649C118.103 40.9509 117.521 40.121 116.805 39.4161C113.286 35.9633 107.61 36.6013 104.129 39.7726C100.995 42.5873 100.076 47.1472 101.005 51.1348C101.492 53.2047 102.516 55.1097 103.974 56.658C105.431 58.2063 107.271 59.3432 109.308 59.9543Z" fill="#83CDCE"/>
  <path d="M158.107 20.7084C155.102 18.7468 151.533 17.8331 147.955 18.1094C150.098 17.5415 152.305 17.2514 154.523 17.2462C157.925 17.2315 161.247 18.2777 164.027 20.2393C165.463 21.3061 166.633 22.69 167.447 24.2832C168.261 25.8764 168.696 27.6359 168.718 29.4247C168.77 33.0196 167.493 36.5072 165.134 39.22C163.902 40.6295 162.478 41.8582 160.903 42.8697C163.188 40.3934 164.599 37.236 164.918 33.8814C165.416 28.4864 162.516 23.6076 158.107 20.7084Z" fill="#83CDCE"/>
  <path d="M167.901 94.0324C168.528 92.5793 169.052 91.0838 169.468 89.5569C171.016 83.8906 171.016 77.9127 169.468 72.2463C168.16 67.2728 165.628 62.7057 162.103 58.9607C161.736 58.3128 161.331 57.6863 160.893 57.0843C159.422 55.0192 157.507 53.3094 155.289 52.0805C153.072 50.8515 150.607 50.1344 148.076 49.9817C145.305 49.8893 142.537 50.2571 139.885 51.0701C138.091 51.5009 136.4 52.2856 134.913 53.3782C132.855 54.5014 131.187 56.2222 130.128 58.3134C128.994 60.6832 128.663 63.3576 129.184 65.9323C129.706 68.507 131.051 70.842 133.017 72.5841C134.084 73.5726 135.342 74.3322 136.714 74.8163C138.085 75.3004 139.541 75.4986 140.992 75.3988C142.294 75.271 143.547 74.8361 144.648 74.1299C145.749 73.4236 146.667 72.4662 147.326 71.3362C147.919 70.2448 148.229 69.0224 148.229 67.7803C148.229 66.5382 147.919 65.3158 147.326 64.2243C146.703 63.1117 145.747 62.2225 144.592 61.6821C143.438 61.1418 142.142 60.9775 140.889 61.2125C139.654 61.4109 138.537 62.0634 137.758 63.0423C136.979 64.0212 136.593 65.2558 136.677 66.5042C136.911 68.7842 138.45 70.9421 140.889 71.0923C142.925 71.2236 144.896 69.2627 144.098 67.1798C143.94 66.7999 143.682 66.4702 143.351 66.2257C143.02 65.9812 142.629 65.8312 142.22 65.7917C141.81 65.7522 141.398 65.8247 141.026 66.0014C140.655 66.1781 140.338 66.4524 140.111 66.7951C140.087 66.848 140.083 66.9079 140.101 66.9632C140.119 67.0185 140.156 67.0653 140.206 67.0945C140.257 67.1237 140.316 67.1332 140.373 67.1212C140.429 67.1092 140.48 67.0766 140.514 67.0296C140.704 66.7688 140.963 66.5671 141.263 66.4477C141.562 66.3284 141.89 66.2963 142.207 66.3552C142.524 66.4141 142.818 66.5615 143.055 66.7805C143.291 66.9995 143.461 67.2811 143.545 67.5926C143.597 67.9262 143.572 68.2675 143.471 68.5898C143.37 68.9121 143.197 69.2069 142.963 69.4511C142.73 69.6953 142.443 69.8824 142.126 69.9978C141.809 70.1132 141.469 70.1538 141.133 70.1165C140.542 70.0646 139.98 69.834 139.522 69.4553C139.065 69.0765 138.733 68.5676 138.572 67.996C138.368 66.9559 138.573 65.8772 139.144 64.9843C140.261 63.1078 142.897 62.8451 144.68 63.9803C145.602 64.6559 146.253 65.6389 146.515 66.752C146.776 67.8652 146.631 69.0351 146.106 70.0508C143.835 74.4887 137.605 74.3105 134.2 71.3925C132.581 70.0205 131.441 68.1689 130.945 66.1059C130.449 64.0428 130.623 61.8755 131.441 59.9177C132.291 57.9632 133.724 56.3195 135.545 55.2124C137.366 54.1053 139.486 53.5891 141.612 53.7347C143.789 53.9281 145.88 54.6754 147.686 55.9055C149.493 57.1356 150.955 58.8075 151.932 60.7622C156.539 69.5535 152.205 80.0713 146.247 87.0331C142.777 91.0496 138.566 94.3595 133.843 96.7814C134.719 95.7988 135.435 94.6843 135.963 93.4788C136.619 91.8287 136.93 90.0621 136.878 88.2875C136.827 86.5128 136.413 84.7674 135.663 83.1581C134.071 79.0714 131.32 75.5385 127.748 72.9934C124.177 70.4482 119.939 69.0016 115.557 68.8311C110.775 68.7202 106.068 70.026 102.027 72.5841C97.8331 75.0986 94.1458 78.373 89.8768 80.7843C85.4389 83.2895 80.4943 84.725 75.4278 83.2332C70.9899 81.9196 67.2932 78.8515 64.122 75.5958C58.0797 69.3846 53.1445 61.0905 44.4188 58.3509C38.7893 56.5776 32.7751 57.7129 27.6054 60.4901C29.1042 59.4021 30.7033 58.4596 32.3811 57.6753C36.3577 55.7333 40.8307 55.0462 45.2069 55.705C47.3087 56.0472 49.3307 56.7688 51.1741 57.8348C53.0447 59.0266 54.7324 60.4836 56.1844 62.1602C59.1774 65.3784 61.9921 68.681 66.2142 70.2572C68.1921 72.2906 70.573 73.8885 73.2042 74.9484C78.7398 76.9938 84.6602 74.2354 87.7657 69.4503C91.1153 64.29 90.5805 57.6941 88.1504 52.271C88.1504 50.0849 88.1504 47.8988 88.2443 45.7033C88.3943 41.6196 89.6952 37.6613 91.9972 34.2849C94.2345 31.1283 97.2501 28.604 100.751 26.9572C104.212 25.2632 108.123 24.7145 111.916 25.3903C115.733 26.1685 119.231 28.0663 121.965 30.8415C127.688 36.546 129.339 45.6376 124.667 52.5338C123.573 54.1962 122.107 55.5819 120.386 56.5816C118.666 57.5813 116.736 58.1677 114.75 58.2946C111.091 58.4728 107.075 57.0749 104.983 53.913C104.028 52.4676 103.464 50.7996 103.346 49.0715C103.227 47.3434 103.559 45.6141 104.307 44.052C106.015 40.7118 110.443 38.6196 113.943 40.5711C117.086 42.335 118.212 47.4391 114.327 49.1185C113.698 49.4307 112.974 49.4959 112.299 49.3015C111.623 49.107 111.045 48.6669 110.678 48.0677C109.993 46.8949 109.908 44.7557 111.438 44.1364C111.851 43.9676 111.672 43.292 111.25 43.4609C110.6 43.6984 110.031 44.1138 109.606 44.6596C109.181 45.2055 108.919 45.8597 108.848 46.5477C108.71 47.3771 108.798 48.2284 109.101 49.0124C109.405 49.7964 109.914 50.4844 110.575 51.0044C112.226 52.2241 114.731 51.7832 116.326 50.6854C117.241 50.0653 117.985 49.2242 118.488 48.2401C118.992 47.2561 119.239 46.1609 119.206 45.0559C119.622 43.118 119.254 41.0943 118.184 39.4265C117.273 38.0709 116.075 36.9316 114.677 36.0886C113.278 35.2457 111.711 34.7196 110.087 34.5476C103.613 33.8157 97.5423 38.188 95.0747 44.0145C93.8886 46.8731 93.579 50.0197 94.185 53.0547C94.791 56.0897 96.2854 58.8761 98.4784 61.06C100.671 63.2439 103.464 64.7268 106.501 65.3203C109.539 65.9137 112.684 65.591 115.538 64.3932C119.873 62.5917 122.988 58.9983 125.192 54.9357C126.983 52.6818 128.215 50.0355 128.786 47.2139C128.898 46.6697 128.974 46.1255 129.039 45.572C129.518 43.9019 129.902 42.213 130.259 40.496C130.727 37.8586 131.398 35.2613 132.267 32.7274C134.119 27.8709 137.748 23.8999 142.419 21.6185C144.349 20.6498 146.463 20.1029 148.621 20.0139C150.779 19.9249 152.931 20.296 154.935 21.1025C157.053 21.857 158.931 23.165 160.373 24.8908C161.815 26.6165 162.768 28.6969 163.134 30.9158C163.5 33.1346 163.265 35.4109 162.453 37.5082C161.642 39.6054 160.283 41.4471 158.519 42.8417C155.01 45.8816 149.887 46.9137 145.731 44.5868C141.809 42.4007 139.763 37.0808 142.081 33.0182C144.286 29.1433 150.028 28.0924 153.077 31.5264C153.796 32.3177 154.303 33.2782 154.551 34.3184C154.799 35.3585 154.779 36.4444 154.494 37.4749C153.781 39.7548 151.388 41.5563 148.986 40.6743C146.744 39.8487 145.853 36.987 148.048 35.4671C150.244 33.9471 152.477 36.7806 151.229 38.7415C151.163 38.8541 151.323 38.9761 151.407 38.8823C151.677 38.5816 151.863 38.2154 151.947 37.8203C152.031 37.4251 152.01 37.0149 151.885 36.6305C151.773 36.1905 151.559 35.7829 151.261 35.4399C150.964 35.0968 150.59 34.8277 150.171 34.6538C149.751 34.48 149.297 34.4062 148.844 34.4382C148.391 34.4702 147.951 34.6073 147.56 34.8384C147.115 35.1168 146.735 35.4875 146.446 35.9254C146.156 36.3633 145.964 36.8582 145.882 37.3767C145.8 37.8952 145.831 38.4253 145.971 38.931C146.112 39.4368 146.359 39.9065 146.697 40.3084C147.461 41.1529 148.51 41.6852 149.643 41.803C150.776 41.9207 151.912 41.6157 152.833 40.9464C153.767 40.2819 154.499 39.3718 154.948 38.3169C155.397 37.2621 155.545 36.1036 155.376 34.9698C155.222 33.838 154.82 32.7542 154.199 31.7956C153.578 30.8371 152.752 30.0275 151.782 29.4247C150.745 28.8533 149.589 28.5305 148.405 28.4817C147.221 28.4328 146.042 28.6593 144.961 29.1433C139.942 31.2543 138.3 37.4655 140.917 42.0817C143.685 46.9699 150.093 48.6494 155.179 46.7729C156.419 46.3088 157.59 45.6775 158.66 44.8964C161.891 43.571 164.686 41.3674 166.729 38.5351C168.978 35.4752 169.983 31.6767 169.543 27.9048C169.313 26.1524 168.706 24.4706 167.765 22.9743C166.824 21.478 165.571 20.2027 164.092 19.2354C158.228 15.3323 151.069 16.3175 144.755 18.6443C144.157 18.8039 143.568 18.9949 142.991 19.2166C140.746 20.0895 138.665 21.3362 136.836 22.9039C141.748 17.1857 148.617 13.5056 156.098 12.5832C166.419 11.2697 176.862 15.0884 185.278 20.9618C193.694 26.8352 201.65 35.7391 201.631 46.5759C201.681 51.4617 199.823 56.1741 196.452 59.7113C194.835 61.4074 192.821 62.6745 190.591 63.3984C188.362 64.1223 185.988 64.2804 183.683 63.8584C181.339 63.4062 179.179 62.2762 177.471 60.6084C175.764 58.9406 174.583 56.8084 174.075 54.4759C172.996 49.8504 174.272 45.1967 176.402 41.0684C178.883 39.4925 181.814 38.777 184.743 39.0324C188.496 39.3795 192.249 41.378 194.022 44.8871C195.561 48.0208 195.336 52.2898 192.802 54.8418C192.14 55.5434 191.322 56.079 190.414 56.405C189.506 56.7311 188.534 56.8384 187.576 56.7183C186.731 56.5901 185.942 56.2156 185.308 55.6416C184.674 55.0675 184.223 54.3195 184.011 53.4908C183.809 52.709 183.886 51.8812 184.228 51.15C184.571 50.4187 185.158 49.8298 185.888 49.4845C187.379 48.8183 189.819 49.4844 190.297 51.2296C190.307 51.2659 190.324 51.3 190.347 51.3298C190.37 51.3596 190.399 51.3846 190.431 51.4033C190.464 51.4221 190.5 51.4342 190.538 51.439C190.575 51.4438 190.613 51.4412 190.649 51.4313C190.685 51.4214 190.72 51.4045 190.749 51.3815C190.779 51.3585 190.804 51.3298 190.823 51.2972C190.842 51.2645 190.854 51.2284 190.859 51.1911C190.863 51.1537 190.861 51.1158 190.851 51.0795C190.673 50.2794 190.284 49.5416 189.725 48.9427C189.166 48.3437 188.456 47.9055 187.67 47.6736C183.214 46.3132 180.164 51.9051 181.928 55.5643C182.419 56.5238 183.12 57.3599 183.979 58.0099C184.839 58.6599 185.835 59.1068 186.891 59.3173C188.063 59.5167 189.264 59.4624 190.414 59.1581C191.563 58.8538 192.633 58.3066 193.553 57.5534C196.968 54.8794 198.038 50.0474 196.687 45.9754C196.336 44.9451 195.837 43.9715 195.204 43.0856C194.075 39.9817 191.947 37.3412 189.153 35.5796C182.294 31.1417 173.362 33.4404 168.511 39.7267C164.092 45.4312 164.008 54.0631 168.005 60.0397C169.366 63.3158 171.601 66.1555 174.464 68.2499C177.328 70.3442 180.711 71.6129 184.246 71.9179C182.696 72.5491 181.233 73.3752 179.892 74.3761C177.089 76.4351 175.119 79.4314 174.338 82.8203C174.006 84.4253 174.037 86.0841 174.43 87.6752C174.823 89.2663 175.567 90.7492 176.608 92.0151C178.961 94.9595 182.242 97.02 185.916 97.8604C188.547 98.4792 191.312 98.1468 193.722 96.9222C193.891 96.9222 194.06 96.8753 194.229 96.8377C197.467 96.1098 200.302 94.1649 202.147 91.4053C203.162 89.8903 203.774 88.1414 203.926 86.324C204.077 84.5066 203.762 82.6807 203.011 81.0189C202.186 79.5 200.975 78.2251 199.501 77.3225C198.027 76.42 196.341 75.9215 194.613 75.8773C191.01 75.746 187.398 77.7538 186.451 81.3754C186.221 82.2043 186.175 83.0733 186.315 83.9218C186.456 84.7703 186.781 85.5778 187.266 86.2881C187.751 86.9983 188.385 87.5941 189.124 88.034C189.863 88.4738 190.69 88.747 191.545 88.8345C194.651 89.0409 197.175 85.6069 195.833 82.7265C195.788 82.6504 195.719 82.5912 195.637 82.558C195.555 82.5249 195.464 82.5196 195.379 82.5431C195.294 82.5665 195.218 82.6174 195.165 82.6879C195.111 82.7583 195.082 82.8444 195.082 82.9329C195.151 83.6035 195.008 84.2787 194.672 84.8633C194.337 85.4479 193.826 85.9124 193.212 86.1913C192.599 86.4701 191.913 86.5493 191.252 86.4175C190.591 86.2857 189.988 85.9497 189.528 85.4568C187.126 83.008 189.228 79.3207 191.949 78.2698C193.268 77.7966 194.69 77.688 196.065 77.9555C197.441 78.223 198.719 78.8567 199.764 79.7898C200.846 80.7965 201.598 82.1062 201.923 83.5476C202.248 84.989 202.13 86.4949 201.584 87.8681C200.667 90.2608 198.923 92.2456 196.668 93.4626C194.413 94.6796 191.797 95.0482 189.293 94.5015C186.788 93.834 184.614 92.2705 183.183 90.1072C181.753 87.9439 181.166 85.3311 181.534 82.764C182.053 79.8772 183.464 77.2257 185.569 75.183C187.132 73.5991 188.965 72.3061 190.982 71.3644L191.742 71.1486C191.85 71.1728 191.962 71.1728 192.071 71.1486C194.134 70.3313 196.312 69.8407 198.526 69.6943C200.795 69.6614 203.037 70.1968 205.047 71.2517C207.071 72.4108 208.788 74.0378 210.055 75.9966C211.322 77.9554 212.101 80.189 212.327 82.5107C213.369 91.3302 207.083 99.0145 199.051 101.829C194.64 103.308 189.924 103.631 185.353 102.767C180.982 101.846 176.703 100.536 172.564 98.855C170.622 98.1419 168.68 97.4194 166.71 96.7721C167.158 95.8817 167.555 94.967 167.901 94.0324Z" fill="#02A0C7"/>
  <path d="M195.204 101.03C190.295 100.984 185.547 99.2703 181.741 96.1703C183.04 96.8783 184.433 97.3995 185.878 97.7184C188.509 98.3371 191.275 98.0048 193.684 96.7801C193.853 96.7801 194.022 96.7332 194.191 96.6957C197.43 95.9678 200.265 94.0229 202.11 91.2632C203.125 89.7482 203.737 87.9993 203.888 86.1819C204.039 84.3645 203.724 82.5387 202.973 80.8769C202.148 79.3579 200.938 78.0831 199.464 77.1805C197.989 76.2779 196.304 75.7794 194.576 75.7353C190.973 75.6039 187.361 77.6118 186.413 81.2334C186.183 82.0622 186.137 82.9313 186.278 83.7798C186.419 84.6283 186.743 85.4358 187.228 86.146C187.713 86.8563 188.348 87.4521 189.087 87.8919C189.826 88.3317 190.652 88.6049 191.508 88.6925C194.613 88.8989 197.137 85.4649 195.796 82.5845C195.75 82.5083 195.682 82.4491 195.599 82.4159C195.517 82.3828 195.427 82.3775 195.341 82.401C195.256 82.4245 195.181 82.4754 195.127 82.5458C195.074 82.6163 195.045 82.7024 195.045 82.7909C195.114 83.4614 194.97 84.1366 194.635 84.7213C194.299 85.3059 193.789 85.7704 193.175 86.0492C192.561 86.3281 191.875 86.4072 191.214 86.2754C190.553 86.1436 189.95 85.8076 189.49 85.3148C187.089 82.8659 189.19 79.1786 191.911 78.1278C193.23 77.6545 194.652 77.5459 196.028 77.8134C197.403 78.0809 198.681 78.7147 199.727 79.6478C200.808 80.6544 201.561 81.9642 201.885 83.4056C202.21 84.847 202.092 86.3528 201.547 87.7261C200.63 90.1188 198.886 92.1036 196.631 93.3206C194.376 94.5375 191.759 94.9061 189.256 94.3594C186.75 93.6919 184.576 92.1284 183.146 89.9651C181.716 87.8018 181.129 85.1891 181.497 82.622C182.015 79.7351 183.426 77.0836 185.531 75.041C187.095 73.4571 188.928 72.164 190.945 71.2223L191.705 71.0065C191.813 71.0307 191.925 71.0307 192.033 71.0065C194.096 70.1893 196.274 69.6986 198.488 69.5522C200.758 69.5193 202.999 70.0547 205.009 71.1097C207.033 72.2688 208.751 73.8958 210.017 75.8546C211.284 77.8134 212.063 80.047 212.29 82.3687C212.553 84.8905 212.255 87.4393 211.416 89.8321C210.578 92.2249 209.219 94.4023 207.439 96.2078C203.714 98.6472 199.783 100.983 195.204 101.03Z" fill="#045282"/>
  <path d="M32.3811 57.5728C36.3577 55.6308 40.8308 54.9436 45.2069 55.6025C47.3087 55.9446 49.3307 56.6663 51.1742 57.7323C53.0447 58.9241 54.7324 60.3811 56.1844 62.0576C59.1774 65.2758 61.9921 68.5784 66.2142 70.1547C68.1922 72.1881 70.573 73.786 73.2042 74.8459C78.7398 76.8913 84.6602 74.1329 87.7658 69.3478C91.1153 64.1874 90.5805 57.5916 88.1505 52.1685C88.1505 49.9824 88.1505 47.7963 88.2443 45.6008C88.3943 41.517 89.6953 37.5588 91.9973 34.1823C94.2345 31.0258 97.2501 28.5015 100.751 26.8546C104.212 25.1607 108.123 24.6119 111.916 25.2878C115.733 26.0659 119.231 27.9637 121.965 30.739C127.688 36.4435 129.339 45.5351 124.667 52.4312C123.573 54.0937 122.107 55.4793 120.386 56.479C118.666 57.4787 116.736 58.0651 114.75 58.1921C111.091 58.3703 107.075 56.9723 104.983 53.8104C104.028 52.365 103.464 50.697 103.346 48.9689C103.227 47.2408 103.559 45.5116 104.307 43.9495C106.015 40.6093 110.443 38.517 113.943 40.4686C117.086 42.2325 118.212 47.3366 114.328 49.016C113.698 49.3282 112.974 49.3934 112.299 49.1989C111.623 49.0045 111.045 48.5644 110.678 47.9652C109.993 46.7924 109.908 44.6532 111.438 44.0339C111.851 43.865 111.672 43.1895 111.25 43.3584C110.601 43.5959 110.031 44.0112 109.606 44.5571C109.181 45.1029 108.919 45.7572 108.848 46.4452C108.71 47.2746 108.798 48.1258 109.101 48.9099C109.405 49.6939 109.914 50.3819 110.575 50.9019C112.226 52.1216 114.731 51.6806 116.326 50.5829C117.241 49.9627 117.985 49.1217 118.488 48.1376C118.992 47.1536 119.239 46.0583 119.206 44.9534C119.622 43.0155 119.255 40.9918 118.184 39.3239C117.273 37.9684 116.075 36.829 114.677 35.9861C113.278 35.1431 111.711 34.6171 110.087 34.445C103.613 33.7132 97.5423 38.0854 95.0747 43.912C93.8887 46.7706 93.579 49.9172 94.185 52.9522C94.7911 55.9872 96.2855 58.7736 98.4784 60.9575C100.671 63.1414 103.464 64.6243 106.501 65.2177C109.539 65.8112 112.684 65.4885 115.538 64.2907C119.873 62.4892 122.988 58.8957 125.192 54.8331C126.983 52.5792 128.215 49.933 128.786 47.1114C128.898 46.5672 128.974 46.023 129.039 45.4694C129.518 43.7994 129.902 42.1105 130.259 40.3935C130.727 37.7561 131.398 35.1588 132.267 32.6248C134.119 27.7684 137.748 23.7974 142.419 21.516C144.349 20.5473 146.463 20.0003 148.621 19.9114C150.779 19.8224 152.931 20.1935 154.935 21C157.053 21.7544 158.931 23.0625 160.373 24.7882C161.815 26.5139 162.768 28.5943 163.134 30.8132C163.5 33.0321 163.265 35.3084 162.453 37.4057C161.642 39.5029 160.283 41.3445 158.519 42.7391C156.931 44.1359 155.013 45.1046 152.946 45.5539C153.593 46.0418 153.687 46.2763 153.593 46.1731C153.516 46.0701 153.414 45.9877 153.297 45.933C153.181 45.8784 153.052 45.8532 152.924 45.8597C152.795 45.8662 152.67 45.9041 152.559 45.9702C152.448 46.0363 152.356 46.1285 152.289 46.2388C152.383 47.3084 150.807 45.5539 150.666 45.7884C148.949 45.7916 147.26 45.3555 145.759 44.5218C141.837 42.3357 139.792 37.0158 142.109 32.9532C144.314 29.0783 150.056 28.0275 153.105 31.4614C153.824 32.2527 154.331 33.2132 154.579 34.2534C154.827 35.2935 154.807 36.3794 154.522 37.4099C153.809 39.6898 151.416 41.4913 149.014 40.6093C146.772 39.7837 145.881 36.922 148.076 35.4021C150.272 33.8821 152.505 36.7156 151.257 38.6765C151.191 38.7891 151.351 38.9111 151.435 38.8173C151.705 38.5166 151.891 38.1504 151.975 37.7553C152.059 37.3601 152.038 36.9499 151.914 36.5655C151.801 36.1255 151.587 35.7179 151.289 35.3748C150.992 35.0318 150.618 34.7627 150.199 34.5888C149.779 34.415 149.325 34.3412 148.872 34.3732C148.419 34.4052 147.979 34.5423 147.588 34.7734C147.143 35.0518 146.763 35.4225 146.474 35.8604C146.184 36.2983 145.992 36.7932 145.91 37.3117C145.828 37.8302 145.859 38.3603 145.999 38.866C146.14 39.3718 146.387 39.8415 146.725 40.2434C147.489 41.0879 148.538 41.6202 149.671 41.738C150.804 41.8557 151.94 41.5507 152.861 40.8814C153.795 40.2169 154.527 39.3068 154.976 38.2519C155.425 37.1971 155.573 36.0386 155.404 34.9048C155.238 33.7822 154.827 32.7097 154.201 31.763C153.576 30.8163 152.75 30.0183 151.782 29.4254C150.745 28.854 149.589 28.5312 148.405 28.4823C147.221 28.4335 146.043 28.66 144.961 29.144C139.942 31.255 138.3 37.4662 140.917 42.0824C141.886 43.683 143.238 45.017 144.852 45.9638C146.465 46.9107 148.289 47.4405 150.159 47.5054L150.337 47.6274C152.508 49.0979 154.548 50.7522 156.436 52.572V52.7315C153.945 51.0676 151.057 50.0962 148.067 49.9167C145.295 49.8243 142.527 50.1921 139.876 51.0051C138.081 51.4359 136.391 52.2206 134.903 53.3132C132.846 54.4364 131.177 56.1572 130.118 58.2484C128.97 60.6268 128.631 63.3157 129.155 65.9045C129.678 68.4933 131.035 70.8395 133.017 72.5848C134.084 73.5732 135.342 74.3329 136.714 74.817C138.085 75.3011 139.541 75.4993 140.992 75.3995C142.294 75.2717 143.547 74.8368 144.648 74.1306C145.749 73.4243 146.667 72.4669 147.326 71.3369C147.919 70.2454 148.229 69.023 148.229 67.7809C148.229 66.5388 147.919 65.3164 147.326 64.225C146.703 63.1124 145.747 62.2232 144.592 61.6828C143.438 61.1425 142.142 60.9782 140.889 61.2132C139.654 61.4115 138.537 62.0641 137.758 63.043C136.979 64.0219 136.593 65.2565 136.677 66.5049C136.911 68.7848 138.45 70.9428 140.889 71.0929C142.925 71.2243 144.896 69.2634 144.098 67.1804C143.94 66.8006 143.682 66.4709 143.351 66.2264C143.02 65.9819 142.629 65.8319 142.22 65.7923C141.81 65.7528 141.398 65.8254 141.026 66.0021C140.655 66.1788 140.338 66.4531 140.111 66.7958C140.087 66.8487 140.083 66.9086 140.101 66.9639C140.119 67.0192 140.156 67.066 140.206 67.0951C140.257 67.1243 140.316 67.1339 140.373 67.1219C140.429 67.1099 140.48 67.0773 140.514 67.0303C140.704 66.7695 140.963 66.5678 141.263 66.4484C141.563 66.3291 141.89 66.2969 142.207 66.3558C142.524 66.4147 142.818 66.5622 143.055 66.7812C143.291 67.0002 143.461 67.2818 143.545 67.5933C143.597 67.9269 143.572 68.2681 143.471 68.5905C143.37 68.9128 143.197 69.2076 142.963 69.4518C142.73 69.696 142.443 69.883 142.126 69.9985C141.809 70.1139 141.469 70.1545 141.133 70.1172C140.542 70.0653 139.98 69.8347 139.522 69.4559C139.065 69.0772 138.733 68.5683 138.572 67.9967C138.368 66.9566 138.573 65.8778 139.144 64.985C140.261 63.1085 142.897 62.8457 144.68 63.981C145.602 64.6566 146.253 65.6396 146.515 66.7527C146.776 67.8659 146.631 69.0358 146.106 70.0515C143.835 74.4894 137.605 74.3111 134.2 71.3932C132.581 70.0212 131.441 68.1696 130.945 66.1065C130.449 64.0435 130.623 61.8762 131.441 59.9184C132.291 57.9638 133.724 56.3201 135.545 55.2131C137.366 54.106 139.486 53.5898 141.612 53.7354C143.789 53.9288 145.88 54.6761 147.687 55.9062C149.493 57.1363 150.955 58.8082 151.932 60.7628C156.539 69.5542 152.205 80.072 146.247 87.0337C142.777 91.0503 138.566 94.3602 133.843 96.7821C134.719 95.7995 135.435 94.685 135.963 93.4795C136.619 91.8294 136.93 90.0628 136.878 88.2882C136.827 86.5135 136.413 84.7681 135.663 83.1588C134.071 79.072 131.32 75.5392 127.748 72.9941C124.177 70.4489 119.939 69.0023 115.557 68.8318C110.775 68.7209 106.068 70.0267 102.027 72.5848C97.8332 75.0993 94.1458 78.3737 89.8768 80.785C85.4389 83.2901 80.4944 84.7257 75.4278 83.2339C70.9899 81.9203 67.2933 78.8522 64.122 75.5965C58.0797 69.3853 53.1445 61.0912 44.4188 58.3515C38.7893 56.5783 32.7752 57.7135 27.6054 60.4907C29.1 59.3671 30.6992 58.3899 32.3811 57.5728Z" fill="#4A5070"/>
  <path d="M57.5171 82.5854C60.038 85.4164 63.0961 87.7185 66.5139 89.3581C69.9316 90.9977 73.641 91.9422 77.4267 92.1367C84.6231 92.4528 91.6693 90.0135 97.1299 85.3157C96.0948 87.0324 94.9246 88.6638 93.6302 90.1946C90.771 93.5099 87.2277 96.1666 83.2439 97.982C79.3827 99.7881 75.0818 100.44 70.859 99.8585C66.9617 99.2498 63.3228 97.5297 60.3788 94.9046C57.2874 92.1391 55.3428 88.3168 54.9276 84.1898C54.7493 82.4165 54.7493 80.6245 54.5898 78.8418C55.467 80.1637 56.4457 81.4153 57.5171 82.5854Z" fill="#83CDCE"/>
  <path d="M125.728 101.041C126.175 101.009 126.62 100.95 127.06 100.863C128.55 100.553 129.967 99.9603 131.235 99.1179C140.542 95.9104 148.212 89.1699 152.59 80.3529C155.236 74.9862 156.455 68.7562 154.616 62.9297C152.965 57.6943 148.912 53.3221 143.432 52.1493C141.451 51.7254 139.396 51.793 137.446 52.3463C141.61 50.8288 146.084 50.3678 150.469 51.0046C152.862 51.5477 155.104 52.6157 157.033 54.1312C158.962 55.6467 160.531 57.572 161.625 59.7678C164.158 64.6092 164.515 70.3419 163.577 75.6523C162.798 80.2104 161.012 84.5375 158.351 88.3186C156.48 90.9147 154.114 93.115 151.389 94.7926C149.793 95.0375 148.223 95.4269 146.697 95.956C142.363 97.4666 138.253 99.7746 133.787 100.835C131.154 101.532 128.393 101.603 125.728 101.041Z" fill="#07244C"/>
  <path d="M32.4756 59.2322C35.0837 58.3974 37.8383 58.1205 40.5603 58.4195C43.2824 58.7185 45.9111 59.5868 48.2757 60.968C55.9412 65.5372 60.3603 73.7469 67.2001 79.2826C70.3902 81.8721 74.1244 83.9738 78.2808 84.3209C82.9064 84.7432 87.3255 82.9042 91.1911 80.568C95.2631 78.0628 98.8847 74.8916 103.079 72.5647C107.308 70.1106 112.203 69.0534 117.068 69.5436C120.075 69.906 122.978 70.8694 125.606 72.3765C128.233 73.8835 130.53 75.9034 132.361 78.3161C129.986 75.9643 127.127 74.1585 123.983 73.0245C119.915 71.4596 115.475 71.1331 111.223 72.0862C107.104 73.126 103.509 75.6395 101.118 79.1512C99.8417 80.9057 98.744 82.7634 97.6087 84.6024C94.6086 87.0432 91.169 88.8872 87.4756 90.0349C83.8809 91.1858 80.0915 91.6019 76.3326 91.2586C72.5738 90.9153 68.9225 89.8195 65.5958 88.0364C62.3962 86.2701 59.5572 83.918 57.2266 81.1027C56.144 79.7817 55.1831 78.3654 54.3556 76.8713C54.3556 76.7493 54.3556 76.6367 54.2993 76.5147C53.8745 74.5097 53.0374 72.615 51.8411 70.9509C49.4809 67.6742 46.1739 65.1988 42.3648 63.8578C37.6851 62.3249 32.6593 62.1944 27.9064 63.4825C25.8358 63.9904 23.8164 64.6876 21.8735 65.5654C24.9077 62.7122 28.525 60.5514 32.4756 59.2322Z" fill="#F9EEE4"/>
  <path d="M105.33 77.1909C108.335 74.7652 112.122 73.5206 115.979 73.6913C123.692 73.8226 132.783 78.4294 134.538 86.5359C134.93 88.3142 134.831 90.1658 134.251 91.892C133.671 93.6182 132.631 95.1539 131.245 96.3343C129.858 97.5147 128.176 98.2952 126.379 98.5922C124.582 98.8892 122.739 98.6914 121.046 98.02C119.882 97.5264 118.815 96.8308 117.893 95.9652C117.096 94.9707 116.336 93.8823 115.567 92.794C115.121 91.8611 114.842 90.8578 114.741 89.8291C114.422 86.3576 116.205 82.3231 119.873 81.4693C122.922 80.7844 126.985 82.6703 126.441 86.2732C126.253 87.6524 125.212 89.3318 123.626 89.1911C122.416 89.0879 120.718 87.8869 121.093 86.4983C121.149 86.2469 121.107 85.9834 120.974 85.7623C120.842 85.5413 120.629 85.3797 120.381 85.311C120.133 85.2423 119.867 85.2717 119.64 85.3932C119.413 85.5146 119.241 85.7189 119.16 85.9635C118.928 86.8005 118.966 87.6894 119.269 88.5033C119.573 89.3173 120.126 90.0144 120.849 90.4953C121.582 91.0529 122.47 91.3703 123.39 91.4039C124.31 91.4375 125.219 91.1856 125.991 90.6829C126.711 90.1552 127.293 89.4601 127.685 88.6576C128.078 87.855 128.269 86.969 128.242 86.0761C128.242 82.3231 124.865 79.7242 121.271 79.6867C117.321 79.6867 114.272 82.5765 113.23 86.2544C112.948 87.2584 112.816 88.2985 112.836 89.3412L112.273 88.7407C110.733 86.6623 108.458 85.2496 105.912 84.7907C103.337 84.4102 100.711 84.9554 98.4999 86.3294C100.526 83.0737 102.412 79.6773 105.33 77.1909Z" fill="#5A91A5"/>
  <path d="M203.611 68.3707C202.022 67.7633 200.347 67.4088 198.648 67.3199C199.22 66.8883 199.774 66.4379 200.299 65.9594C207.364 59.57 209.626 49.7278 207.805 40.6268C207.114 37.2024 205.892 33.9071 204.184 30.8596C207.001 33.3341 209.284 36.3575 210.892 39.7448C211.945 42.0189 212.678 44.4282 213.069 46.9036C213.261 48.1455 213.358 49.4001 213.36 50.6566C213.36 51.1164 213.36 51.5948 213.313 52.0452C211.605 53.0567 210.231 54.5477 209.363 56.333C209.209 56.6594 209.074 56.9946 208.959 57.3369C208.169 58.3731 207.577 59.547 207.214 60.7991C205.769 65.9219 208.791 71.7296 214.139 72.818C216.085 73.2137 218.109 72.9104 219.854 71.9614C221.6 71.0125 222.954 69.4786 223.68 67.6295C224.669 66.4654 225.217 64.9909 225.229 63.4637C225.251 62.3029 224.946 61.1592 224.349 60.1636C223.751 59.1681 222.886 58.3608 221.851 57.8342C220.818 57.3439 219.662 57.1756 218.533 57.3513C217.403 57.527 216.353 58.0385 215.518 58.8193C215.063 59.2323 214.707 59.7415 214.474 60.3096C214.242 60.8778 214.139 61.4906 214.173 62.1036C214.207 62.7166 214.378 63.3143 214.672 63.8531C214.966 64.3919 215.377 64.8582 215.874 65.2182C217.619 66.391 220.35 65.6967 220.697 63.4355C220.716 63.3683 220.707 63.2965 220.672 63.2358C220.638 63.1751 220.581 63.1305 220.514 63.1118C220.447 63.0932 220.375 63.102 220.314 63.1363C220.253 63.1706 220.209 63.2276 220.19 63.2948C220.092 63.5844 219.933 63.8498 219.724 64.0731C219.516 64.2965 219.261 64.4726 218.979 64.5899C218.697 64.7071 218.392 64.7627 218.087 64.7529C217.781 64.7432 217.481 64.6683 217.207 64.5333C216.76 64.2554 216.408 63.8479 216.199 63.3652C215.989 62.8825 215.932 62.3474 216.034 61.8311C216.127 61.3584 216.314 60.9091 216.585 60.51C216.855 60.1109 217.202 59.77 217.606 59.5076C218.01 59.2451 218.463 59.0664 218.938 58.9821C219.412 58.8977 219.899 58.9094 220.368 59.0164C221.198 59.186 221.955 59.6064 222.537 60.2206C223.12 60.8349 223.499 61.6133 223.624 62.4504C223.778 63.3502 223.684 64.2747 223.354 65.1256C223.023 65.9765 222.468 66.7219 221.748 67.2823C218.53 69.8719 213.754 68.3144 211.718 65.0024C210.77 63.4323 210.37 61.592 210.581 59.7701C210.791 57.9482 211.6 56.2476 212.881 54.935C213.079 54.7464 213.285 54.5679 213.501 54.4002C213.541 54.3968 213.579 54.3816 213.611 54.3566C213.642 54.3316 213.666 54.2978 213.679 54.2595C214.814 53.3641 216.168 52.7876 217.601 52.5894C218.44 52.4727 219.29 52.4538 220.134 52.5331C220.134 52.5331 220.134 52.5331 220.19 52.5894C223.011 54.119 225.359 56.39 226.983 59.1571C228.435 61.5875 229.231 64.3532 229.294 67.1836C229.356 70.0141 228.683 72.8122 227.34 75.3043C225.948 77.7419 224.005 79.819 221.665 81.3687C219.325 82.9184 216.654 83.8974 213.866 84.2271C213.903 81.8206 213.447 79.4321 212.525 77.209C211.714 75.2095 210.506 73.3953 208.974 71.8762C207.442 70.357 205.618 69.1645 203.611 68.3707Z" fill="#07244C"/>
  <path d="M122.856 29.2461C119.343 25.7361 114.734 23.5343 109.796 23.0067C109.899 22.6033 109.965 22.1905 110.04 21.9559C110.404 20.7803 111.13 19.7495 112.113 19.0098C113.127 18.3323 114.344 18.0258 115.558 18.1421C116.772 18.2583 117.908 18.7902 118.775 19.6478C118.939 19.8007 119.144 19.9031 119.365 19.9429C119.587 19.9827 119.814 19.9581 120.022 19.8721C120.23 19.7861 120.408 19.6424 120.536 19.4579C120.664 19.2734 120.737 19.056 120.745 18.8315C120.738 17.3886 121.228 15.9874 122.134 14.8644C123.04 13.7414 124.306 12.9653 125.718 12.6673C127.223 12.4437 128.757 12.7954 130.015 13.6524C130.802 14.2224 131.484 14.9239 132.032 15.7259C127.818 19.3297 124.649 23.999 122.856 29.2461Z" fill="#83CDCE"/>
  <path d="M89.5479 61.6899C89.2101 67.3193 85.7949 72.6486 80.2592 74.3468C77.5123 75.1398 74.5654 74.8441 72.0308 73.5211C70.4596 72.7131 68.9943 71.7141 67.668 70.5469C71.6169 71.6297 75.8311 71.1524 79.4378 69.2137C83.0445 67.275 85.7674 64.0234 87.0427 60.1324C87.7528 57.7709 88.1101 55.3175 88.103 52.8516C89.1992 55.6637 89.6915 58.675 89.5479 61.6899Z" fill="#83CDCE"/>
  <path d="M191.048 96.977C188.823 97.4816 186.5 97.3318 184.358 96.5454C181.045 95.3832 178.213 93.1518 176.308 90.2029C175.473 88.8124 174.98 87.2439 174.869 85.6259C174.758 84.008 175.033 82.3868 175.67 80.8955C177.546 76.2981 181.506 73.6147 185.934 71.9165C186.507 71.9165 187.088 71.9165 187.661 71.832C185.739 72.6933 184.004 73.9238 182.557 75.4536C181.124 76.9764 180.073 78.8171 179.489 80.8247C178.905 82.8324 178.805 84.9498 179.198 87.0035C179.814 89.731 181.306 92.1821 183.446 93.9828C185.585 95.7835 188.255 96.835 191.048 96.977Z" fill="#83CDCE"/>
  <path d="M205.77 39.6127C207.646 47.7661 206.014 56.6795 200.14 62.8156C194.961 68.173 187.005 70.9033 179.865 68.1823C173.297 65.696 168.099 58.7999 169.347 51.6036C170.067 47.5389 172.35 43.9181 175.708 41.5174C175.474 41.9302 175.248 42.3524 175.042 42.784C172.809 47.4753 172.227 53.1047 174.601 57.8804C175.678 59.9505 177.291 61.6937 179.271 62.9281C181.252 64.1625 183.527 64.843 185.86 64.8985C188.19 64.9639 190.503 64.4898 192.618 63.5132C194.734 62.5367 196.596 61.0841 198.057 59.269C201.266 55.2858 202.779 50.2003 202.27 45.1109C201.332 33.8519 192.953 24.9761 183.862 19.1027C174.77 13.2293 163.727 9.98295 153.106 12.3379C145.196 14.0925 137.437 19.0183 133.6 26.2897C132.605 27.601 131.779 29.0321 131.142 30.5493C129.744 33.927 129.396 37.5205 129.021 41.1233C128.723 38.9036 128.037 36.7536 126.994 34.7714C126.143 33.1697 125.096 31.6791 123.88 30.3335C127.85 21.9047 134.673 15.1515 143.142 11.2683C150.908 7.89152 159.501 6.88927 167.836 8.38791C176.633 9.86389 184.918 13.5256 191.931 19.037C198.601 24.2724 203.874 31.2436 205.77 39.6127Z" fill="#07244C"/>
  <path d="M165.716 49.8585C165.733 46.0433 167.103 42.3581 169.582 39.4581C172.062 36.5582 175.489 34.6315 179.255 34.0209C182.905 33.532 186.603 34.4733 189.575 36.648C191.057 37.7323 192.329 39.0771 193.328 40.6167C193.526 40.917 193.694 41.236 193.863 41.555C192.16 39.8356 190.039 38.5878 187.708 37.9334C179.396 35.569 170.82 40.917 167.771 48.6575C166.782 51.1238 166.484 53.8126 166.907 56.4356C166.103 54.3368 165.699 52.106 165.716 49.8585Z" fill="#F9EEE4"/>
  <path d="M215.771 51.0022C215.209 51.1534 214.662 51.3576 214.139 51.6121C214.186 49.9721 214.069 48.3314 213.792 46.7144C213.409 44.2148 212.673 41.7822 211.605 39.49C209.809 35.5006 206.993 32.0543 203.443 29.4976C201.325 26.0488 198.735 22.9129 195.749 20.1808C197.57 19.3474 199.523 18.8393 201.519 18.6796C203.298 18.5754 205.076 18.8902 206.711 19.5987C208.345 20.3072 209.791 21.3895 210.931 22.7586C212.071 24.1278 212.874 25.7454 213.274 27.4813C213.675 29.2173 213.663 31.0231 213.238 32.7533C213.205 32.8722 213.196 32.9964 213.212 33.1188C213.227 33.2412 213.266 33.3593 213.327 33.4665C213.388 33.5737 213.47 33.6678 213.567 33.7435C213.664 33.8191 213.776 33.8748 213.895 33.9074C215.64 34.2873 217.268 35.0827 218.64 36.2261C220.012 37.3695 221.088 38.8271 221.776 40.4751C222.463 42.2196 222.679 44.1141 222.403 45.9685C222.126 47.8229 221.366 49.5719 220.2 51.0398C218.75 50.6545 217.227 50.6416 215.771 51.0022Z" fill="#5A91A5"/>
  <path d="M145.29 44.7924C148.52 46.3562 151.556 48.2928 154.335 50.5626C155.709 51.6888 157.016 52.895 158.248 54.1749C159.544 55.4347 160.676 56.8533 161.616 58.397C161.635 58.4394 161.639 58.4869 161.627 58.5319C161.616 58.5769 161.59 58.6167 161.553 58.6449C161.516 58.6731 161.471 58.6881 161.424 58.6874C161.378 58.6866 161.333 58.6703 161.297 58.6409C160.021 57.4775 158.923 56.1358 157.713 54.888C156.502 53.6401 155.189 52.3922 153.838 51.2382C151.133 48.9102 148.225 46.8284 145.15 45.0176C144.99 44.9238 145.15 44.6892 145.29 44.7736V44.7924Z" fill="#EDA04C"/>
  <path d="M211.671 90.5686C210.624 92.8039 209.146 94.8106 207.321 96.4738C205.497 98.1369 203.363 99.4238 201.041 100.261C198.678 101.155 196.161 101.572 193.636 101.488C191.111 101.405 188.627 100.822 186.329 99.7728C183.908 98.6845 181.122 96.9581 179.761 94.6031C179.686 94.4717 179.855 94.3685 179.958 94.453C180.896 95.2036 181.835 96.0855 182.773 96.8173C183.75 97.5302 184.785 98.158 185.869 98.6938C188.07 99.7683 190.448 100.433 192.887 100.655C197.717 101.097 202.526 99.6211 206.276 96.5453C208.351 94.8343 210.1 92.7617 211.436 90.4279C211.53 90.2684 211.746 90.4279 211.671 90.5686Z" fill="#EDA04C"/>
  <path d="M5.74452 74.6569H5.95093C6.83144 74.6342 7.70648 74.5114 8.55927 74.291C9.32837 74.0207 10.0648 73.6651 10.7547 73.2308C11.7254 72.6318 12.6649 71.9835 13.5695 71.2886C14.884 70.0206 16.1127 68.6666 17.2474 67.2354C18.8682 65.0707 20.633 63.0175 22.5297 61.0899C24.3501 59.3758 26.3401 57.8511 28.4688 56.5394C36.96 51.3603 48.369 50.7786 55.997 57.8811C59.4779 61.1274 62.0674 65.4715 66.5147 67.5451C68.6637 68.5255 71.0334 68.9212 73.3844 68.6922C75.7353 68.4632 77.9841 67.6176 79.9035 66.2409C81.7267 64.9228 83.2015 63.1807 84.2007 61.165C85.2756 58.7655 85.8319 56.1662 85.8332 53.537C86.0396 48.4611 85.411 43.3101 87.1561 38.4219C90.0741 30.2873 97.5425 23.9166 106.221 23.0159C106.765 22.9596 107.3 22.9314 107.844 22.9221C107.848 21.9323 108.059 20.9542 108.464 20.051C109.099 18.5858 110.2 17.3717 111.597 16.5983C112.718 16.0224 113.965 15.7377 115.224 15.7705C116.484 15.8033 117.714 16.1525 118.803 16.7859C119.25 15.3131 120.103 13.9963 121.265 12.9871C122.427 11.9779 123.85 11.3174 125.371 11.0814C127.221 10.8701 129.087 11.3043 130.653 12.3105C131.67 12.9237 132.521 13.7775 133.13 14.7968C134.832 13.399 136.646 12.1437 138.553 11.0439C146.801 6.44565 156.333 4.68836 165.678 6.043C175.415 7.41151 184.627 11.2918 192.409 17.302C193.234 17.94 194.032 18.6061 194.82 19.2911C197.635 16.6358 202.326 16.2793 205.91 17.2926C207.982 17.9161 209.87 19.0385 211.408 20.5615C212.945 22.0844 214.086 23.9613 214.729 26.0277C215.388 28.0546 215.561 30.2077 215.236 32.3139C217.093 32.8515 218.802 33.8077 220.232 35.1089C221.661 36.4101 222.774 38.0217 223.483 39.8199C224.181 41.7478 224.406 43.8152 224.138 45.8481C223.87 47.8809 223.118 49.8196 221.945 51.501C227.18 54.3158 230.576 60.1611 231.327 65.9594C231.647 69.139 231.121 72.3467 229.803 75.2578C228.485 78.169 226.421 80.6805 223.821 82.5382C220.947 84.764 217.435 86.0073 213.801 86.0848C213.417 88.9016 212.472 91.6127 211.022 94.0576C209.571 96.5024 207.645 98.6313 205.356 100.318C201.47 103.155 196.854 104.821 192.052 105.122C187.164 105.497 182.332 104.399 177.706 102.889C168.934 100.008 159.758 95.0826 150.263 97.2593C144.886 98.4884 140.092 101.519 134.66 102.532C131.585 103.705 128.222 103.899 125.033 103.086C122.142 102.29 119.551 100.658 117.583 98.3946C115.843 97.0446 114.495 95.253 113.68 93.2061L113.474 92.8871C113.124 92.3429 112.77 91.805 112.414 91.2733C112.189 91.0012 111.973 90.7291 111.719 90.4758C110.102 88.6612 108.009 87.3352 105.677 86.6477C102.431 85.9065 99.4471 86.9574 96.8294 88.7119C92.6824 94.4727 86.8653 99.1358 79.941 100.909C76.3897 101.852 72.6601 101.9 69.0857 101.049C65.5114 100.197 62.2039 98.473 59.4591 96.0302C56.7457 93.6783 54.7874 90.5775 53.8296 87.1169C52.7413 82.9041 53.5294 78.3818 51.7092 74.3286C48.2658 66.6443 39.2868 63.7639 31.4525 64.8523C27.1711 65.4321 23.0529 66.8782 19.3491 69.1025C17.9136 69.9751 16.4312 70.8008 14.9581 71.6264C13.7194 72.6256 12.3532 73.4554 10.8955 74.094C9.88388 74.5106 8.80775 74.7487 7.71484 74.7977C7.04707 74.9095 6.36536 74.9095 5.69759 74.7977C5.56624 74.8915 5.59441 74.6382 5.74452 74.6569ZM87.0435 60.1329C85.7757 64.035 83.053 67.2985 79.4412 69.2451C75.8294 71.1916 71.6064 71.6715 67.65 70.585C68.9842 71.7403 70.4559 72.7267 72.0316 73.5217C74.5659 74.8272 77.5049 75.1093 80.2413 74.3098C85.7675 72.6116 89.2015 67.2542 89.5299 61.6529C89.6812 58.6432 89.1985 55.6352 88.1132 52.824C88.12 55.2998 87.7596 57.7629 87.0435 60.1329ZM130.015 13.6709C128.758 12.8139 127.223 12.4622 125.718 12.6858C124.306 12.9839 123.041 13.7599 122.135 14.8829C121.229 16.006 120.738 17.4072 120.745 18.8501C120.737 19.0746 120.665 19.292 120.536 19.4764C120.408 19.6609 120.23 19.8047 120.022 19.8907C119.815 19.9766 119.587 20.0012 119.366 19.9614C119.145 19.9217 118.94 19.8193 118.775 19.6663C117.908 18.8088 116.772 18.2769 115.558 18.1606C114.344 18.0444 113.127 18.3509 112.113 19.0283C111.13 19.768 110.404 20.7989 110.04 21.9744C109.965 22.209 109.899 22.6124 109.796 23.0253C114.734 23.5529 119.343 25.7547 122.856 29.2646C124.651 24.0209 127.82 19.355 132.032 15.7538C131.485 14.9484 130.803 14.2437 130.015 13.6709ZM191.939 19.0377C184.927 13.5263 176.642 9.86459 167.845 8.38861C159.51 6.88997 150.917 7.89222 143.151 11.269C134.677 15.1593 127.853 21.923 123.888 30.3624C125.105 31.708 126.151 33.1985 127.003 34.8003C128.046 36.7825 128.732 38.9325 129.03 41.1522C129.405 37.5493 129.753 33.9558 131.15 30.5782C131.79 29.0539 132.619 27.6164 133.618 26.2998C137.465 19.0377 145.215 14.1025 153.124 12.348C163.745 9.98363 174.92 13.2863 183.88 19.1128C192.84 24.9393 201.341 33.8433 202.288 45.121C202.797 50.2104 201.284 55.2959 198.076 59.2791C196.614 61.0942 194.753 62.5468 192.637 63.5233C190.521 64.4999 188.208 64.974 185.878 64.9086C183.545 64.8531 181.27 64.1726 179.29 62.9382C177.309 61.7038 175.697 59.9606 174.619 57.8905C172.236 53.0961 172.827 47.5229 175.06 42.7941C175.267 42.3625 175.492 41.9403 175.727 41.5275C172.369 43.9282 170.085 47.549 169.365 51.6136C168.117 58.81 173.353 65.6873 179.883 68.1924C187.051 70.9134 194.979 68.1924 200.158 62.8257C206.079 56.6895 207.664 47.8137 205.788 39.6228C203.874 31.2443 198.601 24.2731 191.939 19.0283V19.0377ZM167.845 48.6675C170.942 40.9176 179.47 35.5321 187.783 37.9434C190.113 38.5978 192.234 39.8456 193.938 41.565C193.769 41.2554 193.6 40.9364 193.403 40.6268C192.403 39.0872 191.131 37.7423 189.65 36.658C186.678 34.4833 182.98 33.542 179.329 34.0309C175.563 34.6416 172.136 36.5682 169.657 39.4681C167.178 42.3681 165.808 46.0534 165.791 49.8685C165.799 52.1176 166.228 54.3453 167.057 56.4362C166.61 53.82 166.882 51.1314 167.845 48.6582V48.6675ZM182.566 75.3982C184.014 73.8684 185.748 72.6379 187.67 71.7766C187.089 71.8328 186.516 71.861 185.944 71.861C181.516 73.5592 177.5 76.2426 175.68 80.84C175.042 82.3313 174.768 83.9525 174.879 85.5704C174.99 87.1884 175.483 88.757 176.318 90.1474C178.223 93.0963 181.055 95.3277 184.368 96.49C186.509 97.2763 188.833 97.4262 191.057 96.9215C188.269 96.7761 185.605 95.7241 183.469 93.9255C181.334 92.127 179.844 89.6803 179.226 86.9574C178.83 84.9038 178.926 82.7854 179.506 80.776C180.087 78.7667 181.136 76.9237 182.566 75.3982ZM221.776 40.4673C221.087 38.8192 220.011 37.3616 218.639 36.2182C217.267 35.0748 215.64 34.2794 213.894 33.8995C213.775 33.867 213.664 33.8113 213.567 33.7356C213.469 33.66 213.388 33.5659 213.327 33.4587C213.266 33.3515 213.227 33.2333 213.211 33.1109C213.196 32.9886 213.205 32.8644 213.238 32.7455C213.662 31.0152 213.675 29.2094 213.274 27.4735C212.873 25.7375 212.071 24.1199 210.931 22.7508C209.791 21.3817 208.345 20.2993 206.71 19.5909C205.076 18.8824 203.297 18.5676 201.519 18.6718C199.523 18.8315 197.57 19.3396 195.749 20.173C198.735 22.905 201.324 26.041 203.442 29.4898C206.993 32.0465 209.808 35.4927 211.605 39.4821C212.673 41.7744 213.409 44.2069 213.791 46.7066C214.069 48.3236 214.185 49.9642 214.138 51.6043C214.662 51.3498 215.209 51.1456 215.771 50.9944C217.226 50.6198 218.753 50.6198 220.209 50.9944C221.365 49.5324 222.119 47.7934 222.396 45.95C222.672 44.1066 222.462 42.2229 221.785 40.486L221.776 40.4673ZM213.885 84.2177C216.672 83.888 219.343 82.909 221.683 81.3593C224.023 79.8096 225.967 77.7325 227.358 75.295C228.702 72.8029 229.375 70.0047 229.312 67.1743C229.25 64.3438 228.454 61.5781 227.002 59.1477C225.378 56.3806 223.029 54.1096 220.209 52.58C220.209 52.58 220.209 52.58 220.153 52.5237C219.309 52.4444 218.459 52.4633 217.619 52.58C216.187 52.7782 214.833 53.3547 213.697 54.2501C213.685 54.2884 213.661 54.3222 213.629 54.3472C213.598 54.3722 213.559 54.3874 213.519 54.3908C213.304 54.5585 213.097 54.737 212.9 54.9256C211.599 56.2442 210.778 57.9606 210.567 59.8008C210.356 61.641 210.768 63.4988 211.736 65.0775C213.772 68.3895 218.548 69.947 221.766 67.3574C222.487 66.7969 223.042 66.0515 223.372 65.2007C223.703 64.3498 223.796 63.4253 223.643 62.5254C223.518 61.6883 223.138 60.9099 222.556 60.2957C221.973 59.6814 221.216 59.261 220.387 59.0914C219.917 58.9844 219.431 58.9728 218.956 59.0571C218.482 59.1415 218.029 59.3202 217.625 59.5826C217.221 59.8451 216.873 60.186 216.603 60.5851C216.333 60.9842 216.146 61.4334 216.052 61.9062C215.95 62.4224 216.008 62.9575 216.217 63.4403C216.427 63.923 216.778 64.3305 217.225 64.6083C217.5 64.7434 217.8 64.8183 218.105 64.828C218.411 64.8378 218.715 64.7822 218.998 64.6649C219.28 64.5477 219.534 64.3715 219.743 64.1482C219.952 63.9248 220.111 63.6595 220.209 63.3699C220.227 63.3027 220.272 63.2456 220.333 63.2113C220.393 63.177 220.465 63.1682 220.533 63.1869C220.6 63.2055 220.657 63.2502 220.691 63.3109C220.725 63.3716 220.734 63.4434 220.715 63.5106C220.359 65.7718 217.629 66.4661 215.893 65.2933C215.396 64.9333 214.985 64.4669 214.69 63.9281C214.396 63.3893 214.226 62.7917 214.192 62.1787C214.157 61.5657 214.26 60.9528 214.493 60.3847C214.726 59.8165 215.082 59.3074 215.536 58.8944C216.371 58.1136 217.422 57.6021 218.551 57.4264C219.681 57.2507 220.837 57.4189 221.87 57.9092C222.904 58.4358 223.77 59.2431 224.367 60.2387C224.965 61.2343 225.27 62.3779 225.247 63.5387C225.236 65.0659 224.688 66.5405 223.699 67.7045C222.973 69.5536 221.618 71.0875 219.873 72.0365C218.128 72.9855 216.104 73.2887 214.157 72.893C208.8 71.8047 205.788 65.9876 207.233 60.8741C207.595 59.6221 208.187 58.4481 208.978 57.412C209.093 57.0697 209.227 56.7345 209.381 56.4081C210.25 54.6227 211.623 53.1317 213.331 52.1203C213.331 51.6605 213.378 51.182 213.378 50.7317C213.377 49.4751 213.279 48.2205 213.088 46.9787C212.697 44.4766 211.958 42.0416 210.892 39.7448C209.29 36.3297 207.003 33.28 204.174 30.7846C205.882 33.832 207.104 37.1274 207.796 40.5517C209.597 49.6996 207.336 59.5418 200.29 65.8843C199.764 66.3628 199.211 66.8226 198.639 67.2448C200.338 67.3337 202.012 67.6883 203.602 68.2956C205.615 69.0883 207.446 70.2823 208.983 71.805C210.52 73.3276 211.732 75.1471 212.543 77.1527C213.474 79.3961 213.931 81.8079 213.885 84.2365V84.2177ZM208.575 59.0258C207.949 60.1891 207.574 61.4705 207.474 62.7875C207.374 64.1045 207.55 65.428 207.993 66.6725C209.663 71.3637 215.433 74.0659 219.927 71.4951C221.171 70.7705 222.195 69.7234 222.892 68.4645C222.536 68.7853 222.149 69.0712 221.738 69.3183C220.6 69.9598 219.324 70.3193 218.018 70.3666C216.712 70.4139 215.414 70.1478 214.232 69.5904C212.29 68.6661 210.693 67.1454 209.675 65.2501C208.658 63.3547 208.272 61.1838 208.575 59.0539V59.0258ZM185.325 102.523C189.896 103.386 194.612 103.063 199.023 101.585C207.055 98.7699 213.341 91.0857 212.299 82.2661C212.073 79.9445 211.294 77.7108 210.027 75.752C208.76 73.7932 207.043 72.1662 205.019 71.0072C203.009 69.9522 200.767 69.4168 198.498 69.4497C196.284 69.5961 194.106 70.0868 192.043 70.904C191.935 70.9282 191.822 70.9282 191.714 70.904L190.954 71.1198C188.938 72.0888 187.111 73.4106 185.559 75.0229C183.455 77.0656 182.043 79.717 181.525 82.6039C181.159 85.1748 181.749 87.7907 183.185 89.9546C184.621 92.1185 186.801 93.6796 189.312 94.3414C191.816 94.888 194.432 94.5195 196.687 93.3025C198.942 92.0855 200.686 90.1006 201.603 87.708C202.149 86.3347 202.267 84.8289 201.942 83.3875C201.617 81.9461 200.865 80.6364 199.783 79.6297C198.738 78.6966 197.46 78.0628 196.084 77.7953C194.709 77.5278 193.287 77.6364 191.968 78.1097C189.247 79.1606 187.145 82.8478 189.547 85.2967C190.007 85.7895 190.61 86.1255 191.271 86.2573C191.932 86.3891 192.618 86.31 193.231 86.0311C193.845 85.7523 194.356 85.2878 194.691 84.7031C195.027 84.1185 195.17 83.4433 195.101 82.7728C195.101 82.6843 195.13 82.5982 195.184 82.5277C195.237 82.4573 195.312 82.4064 195.398 82.3829C195.483 82.3595 195.574 82.3647 195.656 82.3979C195.738 82.431 195.807 82.4902 195.852 82.5664C197.222 85.4468 194.67 88.8808 191.564 88.6743C190.709 88.5868 189.882 88.3136 189.143 87.8738C188.404 87.434 187.77 86.8382 187.285 86.128C186.8 85.4177 186.475 84.6101 186.334 83.7616C186.194 82.9131 186.24 82.0442 186.469 81.2153C187.408 77.5655 191.029 75.5858 194.632 75.7172C196.36 75.7614 198.046 76.2598 199.52 77.1624C200.994 78.065 202.205 79.3399 203.03 80.8588C203.781 82.5206 204.096 84.3465 203.945 86.1639C203.793 87.9813 203.181 89.7301 202.166 91.2452C200.321 94.0048 197.486 95.9497 194.248 96.6776C194.079 96.6776 193.91 96.7339 193.741 96.762C191.331 97.9866 188.566 98.319 185.935 97.7003C182.261 96.8598 178.98 94.7994 176.627 91.855C175.586 90.5891 174.842 89.1061 174.449 87.5151C174.056 85.924 174.025 84.2651 174.357 82.6602C175.138 79.2712 177.108 76.2749 179.911 74.216C181.252 73.215 182.715 72.389 184.265 71.7578C180.73 71.4528 177.347 70.1841 174.483 68.0897C171.619 65.9953 169.385 63.1556 168.024 59.8796C164.017 53.9029 164.111 45.2711 168.53 39.5665C173.4 33.2803 182.341 30.9816 189.172 35.4195C191.966 37.1811 194.094 39.8216 195.223 42.9255C195.856 43.8114 196.355 44.785 196.706 45.8153C198.057 49.8497 196.987 54.7192 193.572 57.3932C192.652 58.1465 191.582 58.6937 190.433 58.998C189.283 59.3022 188.082 59.3565 186.91 59.1571C185.854 58.9467 184.858 58.4997 183.998 57.8498C183.139 57.1998 182.438 56.3637 181.947 55.4041C180.174 51.745 183.233 46.153 187.689 47.5135C188.475 47.7454 189.185 48.1836 189.744 48.7825C190.303 49.3815 190.692 50.1193 190.87 50.9193C190.89 50.9927 190.88 51.071 190.842 51.137C190.804 51.203 190.742 51.2513 190.668 51.2712C190.595 51.2911 190.516 51.281 190.45 51.2432C190.384 51.2053 190.336 51.1429 190.316 51.0695C189.838 49.3525 187.398 48.6581 185.907 49.3243C185.177 49.6696 184.59 50.2586 184.247 50.9898C183.905 51.7211 183.828 52.5488 184.03 53.3306C184.242 54.1594 184.693 54.9074 185.327 55.4814C185.961 56.0554 186.75 56.4299 187.595 56.5582C188.553 56.6783 189.525 56.5709 190.433 56.2449C191.341 55.9189 192.159 55.3833 192.821 54.6817C195.364 52.1297 195.589 47.8513 194.041 44.7269C192.315 41.2272 188.562 39.2194 184.762 38.8723C181.833 38.6169 178.902 39.3323 176.421 40.9082C174.291 45.0365 173.015 49.6902 174.094 54.3158C174.602 56.6482 175.783 58.7805 177.49 60.4483C179.198 62.1161 181.358 63.2461 183.702 63.6982C185.992 64.1131 188.349 63.9559 190.563 63.2406C192.778 62.5253 194.781 61.2741 196.396 59.5981C199.767 56.0609 201.625 51.3484 201.575 46.4627C201.575 35.6165 193.619 26.7595 185.222 20.8485C176.824 14.9376 166.457 11.1564 156.042 12.47C148.561 13.3924 141.692 17.0725 136.78 22.7907C138.609 21.223 140.69 19.9762 142.935 19.1034C143.512 18.8817 144.101 18.6907 144.699 18.5311C151.023 16.1948 158.181 15.219 164.036 19.1222C165.515 20.0894 166.768 21.3648 167.709 22.8611C168.65 24.3573 169.256 26.0392 169.487 27.7916C169.927 31.5635 168.922 35.362 166.672 38.4219C164.63 41.2542 161.834 43.4578 158.604 44.7832C157.534 45.5643 156.363 46.1956 155.123 46.6597C150.028 48.5362 143.62 46.8661 140.861 41.9685C138.253 37.3523 139.923 31.1411 144.905 29.03C145.986 28.546 147.165 28.3196 148.349 28.3684C149.532 28.4172 150.689 28.7401 151.726 29.3115C152.695 29.9024 153.521 30.6985 154.149 31.6435C154.776 32.5886 155.189 33.6597 155.357 34.7815C155.526 35.9153 155.378 37.0738 154.929 38.1286C154.481 39.1835 153.749 40.0936 152.815 40.7581C151.893 41.4274 150.757 41.7324 149.624 41.6147C148.492 41.4969 147.442 40.9646 146.678 40.1201C146.341 39.7182 146.093 39.2485 145.953 38.7427C145.812 38.237 145.782 37.707 145.864 37.1884C145.945 36.6699 146.138 36.175 146.427 35.7371C146.717 35.2992 147.097 34.9285 147.542 34.6501C147.933 34.419 148.372 34.2819 148.825 34.2499C149.278 34.2179 149.732 34.2917 150.152 34.4655C150.572 34.6394 150.945 34.9085 151.243 35.2516C151.54 35.5946 151.754 36.0023 151.867 36.4422C151.991 36.8266 152.012 37.2368 151.928 37.632C151.845 38.0271 151.658 38.3933 151.388 38.694C151.304 38.7972 151.135 38.694 151.21 38.5533C152.458 36.5923 150.094 33.862 148.03 35.2788C145.965 36.6955 146.763 39.6604 148.968 40.486C151.37 41.368 153.762 39.5478 154.475 37.2866C154.76 36.2561 154.78 35.1702 154.532 34.1301C154.285 33.0899 153.778 32.1294 153.059 31.3381C150.009 27.9135 144.258 28.955 142.062 32.8299C139.745 36.9113 141.79 42.2124 145.712 44.3985C149.868 46.7254 155.001 45.6839 158.5 42.6534C160.265 41.2588 161.623 39.4172 162.435 37.3199C163.246 35.2227 163.481 32.9463 163.115 30.7275C162.75 28.5086 161.796 26.4282 160.354 24.7025C158.912 22.9767 157.035 21.6687 154.916 20.9142C152.913 20.1077 150.761 19.7366 148.603 19.8256C146.445 19.9146 144.33 20.4616 142.4 21.4303C137.73 23.7116 134.101 27.6826 132.248 32.5391C131.38 35.073 130.708 37.6703 130.24 40.3078C129.893 42.0248 129.509 43.7136 129.021 45.3837C128.964 45.9279 128.88 46.4814 128.767 47.0256C128.196 49.8473 126.965 52.4935 125.174 54.7474C122.969 58.81 119.854 62.3941 115.519 64.2049C112.666 65.4028 109.52 65.7254 106.483 65.132C103.445 64.5385 100.653 63.0556 98.4598 60.8717C96.2669 58.6878 94.7725 55.9014 94.1665 52.8664C93.5604 49.8314 93.8701 46.6848 95.0562 43.8262C97.505 37.9997 103.575 33.6275 110.068 34.3593C111.692 34.5314 113.259 35.0574 114.658 35.9003C116.057 36.7433 117.254 37.8826 118.165 39.2382C119.236 40.906 119.604 42.9297 119.188 44.8676C119.22 45.9726 118.973 47.0678 118.47 48.0518C117.966 49.0359 117.223 49.877 116.307 50.4971C114.712 51.5855 112.217 52.0358 110.556 50.8161C109.895 50.2961 109.386 49.6081 109.083 48.8241C108.779 48.0401 108.692 47.1888 108.83 46.3594C108.9 45.6714 109.163 45.0172 109.588 44.4713C110.012 43.9255 110.582 43.5101 111.232 43.2726C111.654 43.1037 111.832 43.7793 111.419 43.9482C109.89 44.5674 109.984 46.6972 110.659 47.8794C111.027 48.4786 111.605 48.9187 112.28 49.1132C112.956 49.3076 113.679 49.2424 114.309 48.9303C118.193 47.2508 117.067 42.1467 113.924 40.3828C110.425 38.4219 105.996 40.5236 104.289 43.8637C103.54 45.4258 103.209 47.1551 103.327 48.8832C103.446 50.6113 104.01 52.2793 104.964 53.7247C107.056 56.8866 111.072 58.2846 114.731 58.1063C116.717 57.9794 118.647 57.393 120.368 56.3933C122.089 55.3936 123.554 54.0079 124.648 52.3455C129.34 45.4493 127.67 36.3953 121.946 30.6532C119.213 27.878 115.714 25.9802 111.898 25.202C108.104 24.5262 104.194 25.0749 100.733 26.7689C97.2315 28.4157 94.216 30.94 91.9787 34.0966C89.6767 37.473 88.3757 41.4313 88.2257 45.515C88.1038 47.673 88.1694 49.8591 88.1319 52.0827C90.5432 57.5058 91.0968 64.1017 87.7472 69.262C84.651 74.0471 78.7213 76.768 73.1857 74.7602C70.5544 73.7002 68.1736 72.1023 66.1957 70.0689C61.9736 68.4927 59.1589 65.1901 56.1659 61.9719C54.7138 60.2953 53.0262 58.8383 51.1556 57.6465C49.3122 56.5805 47.2902 55.8589 45.1884 55.5167C40.8122 54.8579 36.3392 55.545 32.3626 57.4871C30.6848 58.2714 29.0857 59.2139 27.5869 60.3018C32.7566 57.4871 38.7708 56.3987 44.4002 58.1626C53.1259 60.9023 58.0611 69.187 64.1034 75.4076C67.2747 78.6727 70.9808 81.7313 75.4093 83.0449C80.4289 84.5273 85.4204 83.0918 89.8583 80.5961C94.1273 78.1942 97.8146 74.9197 102.009 72.3958C106.05 69.8377 110.757 68.5319 115.538 68.6428C119.929 68.8161 124.173 70.2702 127.747 72.826C131.322 75.3817 134.07 78.9274 135.654 83.0261C136.404 84.6354 136.817 86.3808 136.869 88.1555C136.921 89.9302 136.609 91.6967 135.954 93.3468C135.425 94.5523 134.71 95.6668 133.834 96.6494C138.557 94.2275 142.768 90.9177 146.237 86.9011C152.195 79.9299 156.558 69.4122 151.923 60.6302C150.946 58.6755 149.484 57.0036 147.677 55.7735C145.871 54.5434 143.78 53.7961 141.603 53.6027C139.476 53.4571 137.357 53.9733 135.536 55.0804C133.715 56.1875 132.281 57.8312 131.432 59.7857C130.614 61.7435 130.44 63.9109 130.936 65.9739C131.432 68.0369 132.572 69.8885 134.19 71.2605C137.596 74.1784 143.817 74.3661 146.097 69.9188C146.622 68.9031 146.767 67.7332 146.505 66.6201C146.244 65.5069 145.593 64.5239 144.671 63.8484C142.916 62.7131 140.251 62.9664 139.135 64.8523C138.564 65.7452 138.359 66.8239 138.563 67.8641C138.724 68.4356 139.056 68.9445 139.513 69.3233C139.971 69.702 140.532 69.9326 141.124 69.9845C141.46 70.0218 141.799 69.9812 142.117 69.8658C142.434 69.7503 142.721 69.5633 142.954 69.3191C143.187 69.0749 143.361 68.7802 143.462 68.4578C143.563 68.1355 143.588 67.7942 143.535 67.4606C143.452 67.1491 143.282 66.8675 143.045 66.6486C142.809 66.4296 142.515 66.2821 142.198 66.2232C141.881 66.1643 141.553 66.1964 141.254 66.3157C140.954 66.4351 140.695 66.6369 140.505 66.8977C140.471 66.9446 140.42 66.9773 140.363 66.9892C140.307 67.0012 140.247 66.9917 140.197 66.9625C140.147 66.9333 140.109 66.8865 140.092 66.8312C140.074 66.7759 140.077 66.716 140.101 66.6631C140.329 66.3205 140.646 66.0461 141.017 65.8694C141.388 65.6927 141.801 65.6202 142.21 65.6597C142.62 65.6992 143.011 65.8492 143.342 66.0937C143.673 66.3382 143.931 66.6679 144.089 67.0478C144.886 69.1307 142.916 71.0916 140.88 70.9603C138.441 70.8101 136.911 68.6522 136.667 66.3722C136.584 65.1238 136.969 63.8892 137.749 62.9103C138.528 61.9314 139.645 61.2789 140.88 61.0805C142.133 60.8455 143.428 61.0098 144.583 61.5502C145.738 62.0905 146.694 62.9797 147.316 64.0923C147.909 65.1838 148.22 66.4061 148.22 67.6482C148.22 68.8903 147.909 70.1127 147.316 71.2042C146.658 72.3342 145.74 73.2916 144.639 73.9979C143.538 74.7042 142.285 75.139 140.983 75.2668C139.532 75.3666 138.076 75.1684 136.705 74.6843C135.333 74.2002 134.075 73.4406 133.008 72.4521C131.042 70.6969 129.703 68.3475 129.195 65.7612C128.687 63.175 129.037 60.4936 130.193 58.1251C131.253 56.0339 132.921 54.3131 134.979 53.1899C136.466 52.0973 138.157 51.3126 139.951 50.8818C142.603 50.0688 145.37 49.701 148.142 49.7934C150.673 49.9461 153.138 50.6632 155.355 51.8922C157.573 53.1212 159.488 54.8309 160.959 56.896C161.397 57.498 161.801 58.1245 162.169 58.7724C165.671 62.5271 168.18 67.0971 169.468 72.0674C171.017 77.7338 171.017 83.7117 169.468 89.378C169.052 90.9049 168.529 92.4004 167.902 93.8535C167.542 94.7153 167.138 95.5577 166.691 96.3773C168.662 97.0154 170.613 97.7378 172.546 98.4603C176.678 100.199 180.958 101.565 185.334 102.542L185.325 102.523ZM164.918 33.8902C164.598 37.2449 163.188 40.4022 160.902 42.8786C162.477 41.867 163.902 40.6384 165.134 39.2288C167.502 36.5163 168.785 33.0247 168.737 29.4241C168.714 27.6353 168.279 25.8758 167.465 24.2826C166.652 22.6894 165.481 21.3055 164.045 20.2387C161.268 18.2705 157.945 17.2177 154.541 17.2269C152.324 17.2321 150.116 17.5222 147.973 18.0901C151.551 17.8138 155.12 18.7274 158.125 20.689C162.516 23.607 165.415 28.4859 164.918 33.8902ZM104.12 39.7824C107.601 36.658 113.286 35.9825 116.795 39.4258C117.512 40.1308 118.094 40.9606 118.512 41.8746C118.329 41.1058 118.011 40.3753 117.574 39.7167C116.793 38.5452 115.783 37.5444 114.604 36.7751C113.425 36.0058 112.102 35.484 110.715 35.2412C104.523 34.1153 98.5183 38.056 95.9475 43.5916C94.6921 46.252 94.2461 49.2226 94.6648 52.1344C95.0834 55.0461 96.3484 57.7707 98.3024 59.9697C100.256 62.1686 102.814 63.7449 105.656 64.5029C108.498 65.2609 111.501 65.167 114.29 64.233C118.39 62.9195 121.468 59.9171 123.823 56.3987C123.183 57.0361 122.489 57.6169 121.749 58.1344C119.931 59.3416 117.869 60.1309 115.709 60.4457C113.55 60.7604 111.348 60.5927 109.261 59.9546C107.227 59.343 105.39 58.2069 103.934 56.6604C102.478 55.114 101.455 53.2116 100.967 51.1445C100.085 47.157 101.005 42.5596 104.138 39.7448L104.12 39.7824ZM159.889 94.848C161.936 95.1946 163.955 95.6869 165.931 96.321C166.231 95.7581 166.532 95.1858 166.804 94.6041C167.428 93.2753 167.961 91.9054 168.399 90.5039C169.275 87.7176 169.78 84.8279 169.9 81.9096C170.11 76.2598 168.835 70.6536 166.203 65.6498C165.301 63.9755 164.262 62.3782 163.098 60.8741C166.71 69.2151 164.721 79.639 160.011 87.145C158.244 90.045 155.908 92.5569 153.143 94.529C155.402 94.3575 157.674 94.4646 159.908 94.848H159.889ZM151.351 94.7917C154.076 93.1142 156.442 90.9139 158.313 88.3178C160.982 84.5292 162.771 80.192 163.548 75.6233C164.486 70.3129 164.139 64.5802 161.597 59.7388C160.502 57.5514 158.936 55.6336 157.012 54.1233C155.088 52.6129 152.854 51.5476 150.469 51.0038C146.082 50.373 141.608 50.8405 137.446 52.3642C139.395 51.811 141.451 51.7433 143.432 52.1672C148.911 53.34 152.965 57.7122 154.616 62.9477C156.493 68.7742 155.235 75.0041 152.589 80.3709C148.212 89.1878 140.541 95.9283 131.235 99.1358C129.967 99.9782 128.55 100.571 127.06 100.881C126.62 100.968 126.175 101.027 125.727 101.059C128.389 101.623 131.146 101.555 133.778 100.862C138.262 99.802 142.353 97.4939 146.688 95.9833C148.209 95.4484 149.777 95.0527 151.37 94.8011L151.351 94.7917ZM105.94 84.7806C108.486 85.2395 110.761 86.6522 112.301 88.7306L112.864 89.3311C112.843 88.2884 112.976 87.2483 113.258 86.2443C114.3 82.5851 117.349 79.6766 121.299 79.6766C124.892 79.6766 128.261 82.2849 128.27 86.066C128.296 86.9589 128.105 87.8449 127.713 88.6475C127.321 89.45 126.739 90.1451 126.018 90.6728C125.247 91.1755 124.338 91.4274 123.418 91.3938C122.497 91.3602 121.61 91.0428 120.877 90.4852C120.153 90.0043 119.6 89.3072 119.297 88.4933C118.994 87.6794 118.956 86.7904 119.188 85.9534C119.269 85.7088 119.441 85.5045 119.668 85.3831C119.895 85.2616 120.16 85.2322 120.409 85.3009C120.657 85.3696 120.87 85.5312 121.002 85.7523C121.135 85.9733 121.177 86.2368 121.121 86.4882C120.745 87.8862 122.453 89.0778 123.654 89.181C125.24 89.3217 126.281 87.6329 126.469 86.263C126.966 82.6602 122.903 80.7649 119.901 81.4592C116.232 82.2849 114.45 86.3475 114.769 89.819C114.87 90.8477 115.149 91.851 115.594 92.7839C116.364 93.8722 117.124 94.9606 117.921 95.9551C118.843 96.8207 119.91 97.5163 121.074 98.0099C122.767 98.6813 124.61 98.8791 126.407 98.5821C128.204 98.2851 129.886 97.5046 131.272 96.3242C132.659 95.1438 133.698 93.6081 134.279 91.8819C134.859 90.1557 134.958 88.3041 134.566 86.5258C132.811 78.4287 123.72 73.8125 116.007 73.6812C112.15 73.5105 108.362 74.7551 105.358 77.1808C102.44 79.6672 100.554 83.0636 98.5558 86.2818C100.764 84.9274 103.379 84.3958 105.94 84.7806ZM60.3974 94.9043C63.3493 97.5057 66.9874 99.2026 70.8775 99.7926C75.1004 100.374 79.4013 99.7221 83.2624 97.9161C87.2462 96.1007 90.7896 93.444 93.6488 90.1286C94.9431 88.5979 96.1134 86.9665 97.1484 85.2498C91.6878 89.9476 84.6416 92.3869 77.4453 92.0708C73.6596 91.8763 69.9502 90.9318 66.5324 89.2922C63.1147 87.6526 60.0566 85.3504 57.5357 82.5195C56.4704 81.3457 55.498 80.0909 54.6272 78.7665C54.7773 80.5491 54.7866 82.3412 54.9649 84.1145C55.3636 88.2509 57.2987 92.0874 60.388 94.8668L60.3974 94.9043ZM42.3737 63.8578C46.1828 65.1988 49.4898 67.6741 51.8499 70.9509C53.0463 72.615 53.8834 74.5097 54.3081 76.5147C54.3081 76.6367 54.3082 76.7493 54.3644 76.8712C55.192 78.3654 56.1529 79.7816 57.2355 81.1027C59.566 83.9179 62.405 86.27 65.6046 88.0363C68.9313 89.8195 72.5827 90.9152 76.3415 91.2586C80.1003 91.6019 83.8898 91.1857 87.4845 90.0348C91.1779 88.8872 94.6175 87.0432 97.6176 84.6024C98.7528 82.7259 99.8506 80.9057 101.127 79.1512C103.511 75.6451 107.095 73.1322 111.203 72.0862C115.456 71.1331 119.896 71.4595 123.964 73.0244C127.108 74.1584 129.967 75.9643 132.342 78.3161C130.511 75.9034 128.214 73.8835 125.586 72.3764C122.959 70.8694 120.056 69.906 117.049 69.5435C112.199 69.0424 107.315 70.0796 103.088 72.5084C98.903 74.8352 95.272 78.0065 91.2 80.5116C87.3438 82.8948 82.9153 84.7337 78.2897 84.2646C74.1333 83.8799 70.4084 81.8158 67.209 79.2262C60.3692 73.6905 55.9501 65.4809 48.2846 60.9116C45.92 59.5305 43.2912 58.6622 40.5692 58.3632C37.8471 58.0641 35.0926 58.341 32.4845 59.1759C28.5397 60.488 24.9259 62.639 21.8917 65.4809C23.8346 64.6032 25.8541 63.9059 27.9246 63.398C32.6762 62.1289 37.695 62.2756 42.3643 63.8202L42.3737 63.8578Z" fill="#EDA04C"/>
</svg>