<svg xmlns="http://www.w3.org/2000/svg" width="378" height="49" viewBox="0 0 378 49" fill="none">
  <path d="M33.4939 31.5162C36.7116 30.9149 40.0223 31.0505 43.1809 31.9128C47.2885 33.0852 50.8655 35.6197 54.8191 37.2577C63.5135 40.844 71.7628 35.7577 77.2396 28.9127C90.8289 11.9295 100.259 -6.3985 125.401 2.18791C136.046 5.82593 145.939 12.2916 156.995 13.7399C183.13 17.1883 209.298 -7.5537 233.756 2.36033C252.308 9.87775 260.232 34.4301 279.281 40.5337C291.399 44.4131 304.355 39.6198 316.403 35.5335C329.839 30.9817 340.056 30.361 353.423 34.5335C361.467 37.0163 369.733 44.7751 378 48.9994H0C1.81418 49.1028 20.401 36.568 25.4499 34.1542C27.9989 32.9084 30.7054 32.0208 33.4939 31.5162Z" fill="url(#paint0_linear_6109_3318)"/>
  <defs>
    <linearGradient id="paint0_linear_6109_3318" x1="189.017" y1="48.9994" x2="189.017" y2="-0.00179331" gradientUnits="userSpaceOnUse">
      <stop stop-color="#FDFDFD" stop-opacity="0.24"/>
      <stop offset="0.04" stop-color="#FDFDFD" stop-opacity="0.28"/>
      <stop offset="0.3" stop-color="#FDFDFD" stop-opacity="0.59"/>
      <stop offset="0.52" stop-color="#FDFDFD" stop-opacity="0.81"/>
      <stop offset="0.68" stop-color="#FDFDFD" stop-opacity="0.95"/>
      <stop offset="0.77" stop-color="#FDFDFD"/>
    </linearGradient>
  </defs>
</svg>