<svg xmlns="http://www.w3.org/2000/svg" width="342" height="53" viewBox="0 0 342 53" fill="none">
  <path d="M30.304 34.0889C33.2152 33.4386 36.2106 33.5852 39.0685 34.5179C42.7848 35.786 46.0212 38.5275 49.5982 40.2992C57.4646 44.1782 64.9283 38.6767 69.8835 31.2729C82.1785 12.9034 90.7107 -6.92082 113.458 2.36652C123.09 6.30152 132.04 13.295 142.043 14.8615C165.689 18.5914 189.365 -8.17033 211.493 2.55301C228.279 10.6841 235.448 37.2407 252.683 43.8425C263.646 48.0386 275.368 42.8541 286.27 38.4342C298.425 33.5108 307.67 32.8394 319.764 37.3526C327.042 40.0381 334.521 48.4302 342 52.9993H0C1.6414 53.1112 18.458 39.5532 23.0261 36.9423C25.3323 35.5948 27.7811 34.6348 30.304 34.0889Z" fill="url(#paint0_linear_6249_6738)"/>
  <defs>
    <linearGradient id="paint0_linear_6249_6738" x1="171.015" y1="52.9993" x2="171.015" y2="-0.0019397" gradientUnits="userSpaceOnUse">
      <stop stop-color="#F9E9C0" stop-opacity="0.24"/>
      <stop offset="0.04" stop-color="#F9E9C0" stop-opacity="0.28"/>
      <stop offset="0.3" stop-color="#F9E9C0" stop-opacity="0.59"/>
      <stop offset="0.52" stop-color="#F9E9C0" stop-opacity="0.81"/>
      <stop offset="0.68" stop-color="#F9E9C0" stop-opacity="0.95"/>
      <stop offset="0.77" stop-color="#F9E9C0"/>
    </linearGradient>
  </defs>
</svg>