<svg xmlns="http://www.w3.org/2000/svg" width="112" height="112" viewBox="0 0 112 112" fill="none">
  <g clip-path="url(#clip0_4149_7463)">
    <path d="M46.6495 95.4339C38.2847 95.4339 31.7022 88.8696 29.2783 81.4459C28.2564 78.295 28.0188 75.0486 28.5891 71.8261C29.7773 65.1185 34.1498 58.9122 40.6135 54.7826C43.0849 53.2072 44.4395 50.4143 45.8415 47.4783C46.9109 45.2583 48.0278 42.9667 49.6912 41.0094C56.3926 33.1799 68.3932 30.1722 78.1839 33.8483C79.2295 34.2302 79.776 35.4237 79.372 36.474C78.9918 37.5243 77.8036 38.0733 76.758 37.6675C68.4883 34.5644 58.3887 37.0946 52.7568 43.6829C51.426 45.2344 50.4754 47.1918 49.4774 49.2685C47.8852 52.5865 46.2218 56.0239 42.776 58.2199C37.2866 61.7289 33.5557 66.9565 32.5814 72.5422C32.1299 75.0963 32.32 77.6743 33.128 80.1807C35.4568 87.3657 42.1582 93.2856 50.4754 90.7553C51.6161 90.3973 52.7568 89.9676 53.9687 89.4902C56.9867 88.3205 60.0997 87.127 63.5692 87.2464C65.3753 87.2941 67.0862 87.6999 68.7259 88.058C70.1993 88.3922 71.6013 88.7025 73.0034 88.7741C78.9918 89.0844 85.408 86.2677 89.7805 81.422C97.5275 72.7809 95.4125 58.8406 90.1845 49.5072C88.2596 46.0699 85.6219 43.0622 82.5801 40.7945C81.6771 40.1262 81.487 38.861 82.1524 37.954C82.8178 37.0469 84.0772 36.8559 84.9803 37.5243C88.4735 40.1262 91.4915 43.5635 93.7015 47.5021C99.6187 58.0529 101.852 73.9983 92.7747 84.1432C87.618 89.896 79.9661 93.214 72.7895 92.832C71.0548 92.7366 69.4151 92.3785 67.8467 92.0205C66.3258 91.6624 64.8762 91.3521 63.4504 91.3043C60.7651 91.2089 58.1986 92.2353 55.4183 93.2856C54.2063 93.763 52.9469 94.2404 51.6636 94.6223C49.9289 95.1952 48.2417 95.4339 46.6495 95.4339Z" fill="#00A991"/>
    <path d="M70.6986 75.9318C68.3698 75.9318 66.0884 75.2873 64.0448 74.046C61.1456 72.2796 59.1019 69.4629 58.3415 66.1688C57.5573 62.8747 58.1276 59.4612 59.9337 56.549C61.7397 53.6607 64.5676 51.6556 67.8707 50.8679C74.7384 49.2447 81.6299 53.4697 83.222 60.2728C84.8142 67.0759 80.5367 73.9505 73.669 75.5737C72.6947 75.8124 71.6967 75.9318 70.6986 75.9318ZM70.8412 54.5916C70.1758 54.5916 69.4866 54.6632 68.7975 54.8303C66.5162 55.3794 64.5913 56.7638 63.3556 58.7212C62.1199 60.6786 61.7397 62.994 62.2625 65.2378C62.7853 67.4817 64.1636 69.3674 66.136 70.5609C68.1083 71.7783 70.461 72.1364 72.7423 71.6112C77.4237 70.4893 80.3704 65.8346 79.2773 61.2037C78.3505 57.2651 74.7859 54.5916 70.8412 54.5916Z" fill="#00A991"/>
    <path d="M32.6998 52.133C32.5572 52.133 32.4384 52.1091 32.2958 52.0852C29.4917 51.5124 26.6401 50.3188 23.9072 49.1492C22.6953 48.6479 21.5784 48.1705 20.4853 47.7647C19.606 47.4305 19.0594 46.5234 19.1783 45.5925C19.2733 44.757 19.3446 43.9216 19.4159 43.1338C19.606 40.5558 19.7961 37.9062 21.5546 35.0895C23.0517 32.7025 25.0241 30.7451 26.949 28.8832C27.3054 28.5251 27.6619 28.191 27.9946 27.8329C30.1571 25.6846 31.7968 22.9395 32.7948 19.9318C33.3176 18.3563 33.4365 16.6138 33.579 14.7997C33.7454 12.6036 33.9117 10.3359 34.7672 8.11594C35.5277 6.11082 38.4506 -0.429669 44.1539 0.167091C46.8392 0.453536 49.3343 1.14578 52.2335 1.9335L53.7544 2.3393C54.7287 2.60187 55.4654 3.41347 55.6317 4.41603C55.798 5.41858 55.3703 6.44501 54.5148 6.99403C51.5444 8.99915 50.071 14.2029 49.9522 18.4996C49.8334 22.6769 49.5244 27.451 47.2907 31.1509C45.7698 33.6812 43.6548 35.5669 41.6349 37.3811C39.5199 39.2907 37.5 41.081 36.3356 43.4919C35.8366 44.5422 35.6702 45.7596 35.4801 47.0486C35.3138 48.3137 35.1237 49.6027 34.6246 50.8917C34.2919 51.6317 33.5315 52.133 32.6998 52.133ZM23.3607 44.5422C24.0736 44.8286 24.7865 45.1151 25.4756 45.4254C27.4005 46.237 29.3729 47.0725 31.274 47.6454C31.3453 47.2634 31.3928 46.8815 31.4403 46.4757C31.6542 44.9957 31.8681 43.3248 32.6523 41.7016C34.1731 38.5746 36.5733 36.4263 38.9021 34.3495C40.7794 32.6547 42.5617 31.0793 43.7736 29.0503C45.4846 26.1858 45.746 22.0563 45.8648 18.4041C45.9837 14.1552 47.1956 8.97528 50.071 5.58568C47.7897 4.96504 45.7698 4.4399 43.7261 4.22506C41.5161 4.01023 39.5437 6.97016 38.5456 9.57203C37.904 11.2668 37.7614 13.1526 37.6189 15.1338C37.4763 17.1151 37.3099 19.1679 36.6445 21.2208C35.4801 24.8491 33.4602 28.1432 30.8462 30.769C30.4898 31.127 30.1333 31.4851 29.7531 31.8431C27.9946 33.5618 26.1885 35.3282 24.9766 37.3095C23.7647 39.2668 23.6221 41.1287 23.4557 43.4919C23.4082 43.8022 23.3844 44.1603 23.3607 44.5422Z" fill="#00A991"/>
    <path d="M18.5605 34.2302C18.2991 34.2302 18.0377 34.1824 17.7763 34.0631C15.9228 33.2754 13.9029 32.5592 11.7879 32.5115C10.671 32.4876 9.55412 32.8218 8.36594 33.1799C7.20152 33.5379 5.98958 33.896 4.65881 33.9676C3.70827 34.0153 2.80525 33.3708 2.59137 32.4399C1.90223 29.7187 1.75965 26.711 1.5933 23.8227C1.52201 22.5575 1.47448 21.364 1.35566 20.2421C1.26061 19.2873 1.8547 18.4041 2.75772 18.1176C3.51816 17.8789 4.27859 17.5925 4.9915 17.3299C7.32034 16.4467 9.6967 15.5635 12.9048 15.9693C15.6139 16.3274 18.1328 17.2822 20.5805 18.237C21.032 18.4041 21.4835 18.595 21.935 18.7621C23.3133 19.2873 24.7866 19.6215 26.3075 19.8124C27.4244 19.9318 28.2086 20.9582 28.0898 22.0801C27.9709 23.202 26.9491 24.0136 25.8322 23.8704C24.0024 23.6556 22.2201 23.2259 20.5329 22.6053C20.0814 22.4382 19.6061 22.2472 19.1546 22.0801C16.9446 21.2208 14.6395 20.3376 12.4058 20.0511C10.2195 19.7647 8.53229 20.3853 6.41732 21.1969C6.13216 21.3163 5.82323 21.4118 5.5143 21.5311C5.56183 22.2472 5.60936 22.9633 5.63312 23.6794C5.75194 25.7084 5.84699 27.7852 6.13216 29.6709C6.46485 29.5754 6.8213 29.48 7.17776 29.3606C8.55605 28.9548 10.1245 28.4774 11.8592 28.5251C14.6395 28.5968 17.0872 29.4561 19.2972 30.4109C20.3191 30.8406 20.8181 32.0341 20.3903 33.0844C20.1052 33.7766 19.3685 34.2302 18.5605 34.2302Z" fill="#00A991"/>
    <path d="M24.7625 15.5158C24.1446 15.5158 23.5268 15.2293 23.1466 14.7042C22.4812 13.7971 22.6713 12.532 23.5506 11.8636C25.1665 10.6462 26.8537 9.52429 28.5884 8.49786C29.5628 7.92497 30.7985 8.25916 31.3688 9.21397C31.9391 10.1927 31.6064 11.4339 30.6559 12.0068C29.0637 12.9616 27.4953 13.9881 25.9982 15.11C25.618 15.3725 25.1902 15.5158 24.7625 15.5158Z" fill="#00A991"/>
    <path d="M56.4634 111.594C26.0697 111.594 1.35547 86.769 1.35547 56.2387C1.35547 49.6743 2.49612 43.2293 4.72991 37.1185C5.11013 36.0682 6.27454 35.5192 7.34391 35.9011C8.38951 36.283 8.93607 37.4527 8.55585 38.5268C6.48842 44.1841 5.41905 50.1517 5.41905 56.2387C5.41905 84.5251 28.3272 107.512 56.4634 107.512C84.5995 107.512 107.508 84.5013 107.508 56.2387C107.508 29.5754 86.8095 7.11338 60.3606 5.10826C59.2437 5.01278 58.412 4.03409 58.4833 2.91218C58.5783 1.79027 59.5289 0.954808 60.6695 1.02642C89.2097 3.19863 111.571 27.451 111.571 56.2387C111.571 86.7451 86.8571 111.594 56.4634 111.594Z" fill="#00A991"/>
    <path d="M23.9785 83.4032C23.3606 83.4032 22.7665 83.1407 22.3625 82.6155C16.5404 75.0009 13.4512 65.8824 13.4512 56.2626C13.4512 54.5439 13.5462 52.8252 13.7601 51.1543C13.8789 50.0324 14.9008 49.2447 16.0176 49.364C17.1345 49.5073 17.9187 50.5098 17.7999 51.6317C17.6098 53.1594 17.5385 54.711 17.5385 56.2626C17.5385 64.9991 20.3426 73.2583 25.6419 80.1569C26.3311 81.0401 26.1647 82.3291 25.2855 83.0213C24.8577 83.2839 24.43 83.4032 23.9785 83.4032Z" fill="#00A991"/>
    <path d="M68.4642 29.9096C68.3929 29.9096 68.3216 29.9096 68.2741 29.9096C67.1572 29.7903 66.3492 28.8116 66.4443 27.6897L67.1809 20.1228C66.0403 19.9557 64.757 19.8363 63.5926 20.0273C62.3094 20.2182 61.0261 20.5763 59.6954 20.9582C58.0557 21.4118 56.3447 21.8892 54.5149 22.104C53.398 22.2234 52.3999 21.4118 52.2811 20.2899C52.1623 19.1679 52.9703 18.1654 54.0872 18.046C55.5843 17.8789 57.0576 17.4731 58.6023 17.0435C60.0043 16.6377 61.4777 16.2319 62.9985 16.017C65.47 15.659 68.0839 16.1125 69.8187 16.5183C70.8168 16.7332 71.5059 17.688 71.3871 18.7144L70.4841 28.1194C70.389 29.1458 69.5098 29.9096 68.4642 29.9096Z" fill="#00A991"/>
  </g>
  <defs>
    <clipPath id="clip0_4149_7463">
      <rect width="111" height="112" fill="white" transform="translate(0.833008)"/>
    </clipPath>
  </defs>
</svg>